<?xml version="1.0" encoding="utf-8"?>
<!-- Generator: Adobe Illustrator 25.2.0, SVG Export Plug-In . SVG Version: 6.00 Build 0)  -->
<svg version="1.1" id="Layer_1" xmlns="http://www.w3.org/2000/svg" xmlns:xlink="http://www.w3.org/1999/xlink" x="0px" y="0px"
	 viewBox="0 0 137.3 149.1" style="enable-background:new 0 0 137.3 149.1;" xml:space="preserve">
<style type="text/css">
	.st0{fill:#95C8EC;}
	.st1{fill:#FFD398;}
	.st2{fill:#616262;}
	.st3{fill:#FCC280;}
	.st4{fill:#434343;}
</style>
<g>
	<path class="st0" d="M30.5,120.9v0.2c0,0-0.1-0.1-0.2-0.1C30.4,120.9,30.4,120.9,30.5,120.9z"/>
	<path class="st0" d="M68.7,98c0.1-0.1,0.1-0.1,0.2-0.1C68.8,97.9,68.7,98,68.7,98c-0.1,0.1-0.1,0.1-0.2,0.2l0.1-0.1
		C68.6,98.1,68.6,98.1,68.7,98z"/>
	<path class="st0" d="M68.8,97h-0.1c-0.3,0-0.5,0-0.8,0.1c0.3-0.1,0.5-0.1,0.8-0.1C68.7,97,68.7,97,68.8,97z"/>
	<path class="st0" d="M71.7,98.2c-0.1-0.1-0.2-0.2-0.4-0.3C71.4,97.9,71.5,98,71.7,98.2L71.7,98.2z"/>
	<path class="st0" d="M107,120.9c-0.1,0.1-0.1,0.1-0.2,0.1v-0.2C106.9,120.9,106.9,120.9,107,120.9z"/>
	<path class="st1" d="M65.6,98.2c0.1-0.1,0.2-0.2,0.4-0.3c0.2-0.1,0.3-0.2,0.5-0.3c0.1-0.1,0.2-0.1,0.3-0.2c0.1-0.1,0.3-0.1,0.4-0.2
		c0,0,0,0,0,0c0.1,0,0.2-0.1,0.3-0.1c0.1,0,0.1,0,0.2,0c0.3-0.1,0.5-0.1,0.8-0.1V0C54.4,0,41.3,4.4,30.5,12
		C13.3,24.1,2.1,44,2.1,66.5c0,6.8,1,13.3,2.9,19.5c-3.1,3.8-5,8.8-5,14.1c0,12.3,10,22.3,22.3,22.3c2.9,0,5.6-0.6,8.2-1.6
		c0,0,0,0,0,0v14.5c0,2.7,1.6,5.2,4.1,6.3c3.1,1.4,6.3,2.6,9.6,3.7v-19c0-2.6,2.2-4.7,4.9-4.5c2.3,0.2,4.1,2.3,4.1,4.7v21
		c3.6,0.7,7.3,1.1,11,1.3v-22.5c0-2.5,2-4.5,4.5-4.5v-14.4l-5.3,4.6c-0.9,0.8-1.9,1.1-3,1.1c-1.2,0-2.5-0.5-3.4-1.5
		c-1.6-1.9-1.5-4.7,0.4-6.3L65.6,98.2z M49.1,91.5C47.6,93,45.9,94.2,44,95c-2,0.9-4.3,1.4-6.6,1.4h-3.2c-1.3,0-2.5-0.2-3.7-0.5
		c-0.5-0.1-0.9-0.3-1.4-0.5c-1.6-0.7-3.1-1.6-4.3-2.9c-2.5-2.5-3.9-5.9-3.9-9.4V67.8c0-3.5,1.4-6.9,3.9-9.4l0.5-0.5
		c1.5-1.5,3.3-2.6,5.2-3.2c1.3-0.5,2.8-0.7,4.2-0.7h12.1c4.4,0,8.6,1.7,11.7,4.8c3,3,4.8,7.1,4.8,11.4v0c0.1,4.5-1.7,8.8-4.8,12
		L49.1,91.5z"/>
	<path class="st0" d="M30.5,120.9v0.2c0,0-0.1-0.1-0.2-0.1C30.4,120.9,30.4,120.9,30.5,120.9z"/>
	<path class="st0" d="M68.7,98c0.1-0.1,0.1-0.1,0.2-0.1C68.8,97.9,68.7,98,68.7,98c-0.1,0.1-0.1,0.1-0.2,0.2l0.1-0.1
		C68.6,98.1,68.6,98.1,68.7,98z"/>
	<path class="st0" d="M68.8,97h-0.1c-0.3,0-0.5,0-0.8,0.1c0.3-0.1,0.5-0.1,0.8-0.1C68.7,97,68.7,97,68.8,97z"/>
	<path class="st0" d="M71.7,98.2c-0.1-0.1-0.2-0.2-0.4-0.3C71.4,97.9,71.5,98,71.7,98.2L71.7,98.2z"/>
	<path class="st0" d="M107,120.9c-0.1,0.1-0.1,0.1-0.2,0.1v-0.2C106.9,120.9,106.9,120.9,107,120.9z"/>
	<g>
		<path class="st0" d="M68.8,97.9c-0.1,0.1-0.1,0.1-0.2,0.2c-0.1,0-0.1,0.1-0.2,0.1l0.1-0.1c0,0,0.1-0.1,0.1-0.1
			C68.7,98,68.8,97.9,68.8,97.9z"/>
	</g>
	<g>
		<path class="st0" d="M68.8,97.9c-0.1,0.1-0.1,0.1-0.2,0.2c-0.1,0-0.1,0.1-0.2,0.1l0.1-0.1c0,0,0.1-0.1,0.1-0.1
			C68.7,98,68.8,97.9,68.8,97.9z"/>
		<path class="st0" d="M68.8,97h-0.1c-0.3,0-0.5,0-0.8,0.1c0.3-0.1,0.5-0.1,0.8-0.1C68.7,97,68.7,97,68.8,97z"/>
		<path class="st0" d="M71.7,98.2c-0.1-0.1-0.2-0.2-0.4-0.3C71.4,97.9,71.5,98,71.7,98.2L71.7,98.2z"/>
	</g>
	<path class="st2" d="M63.3,70.2L63.3,70.2c0.1,4.5-1.7,8.8-4.8,12l-9.4,9.4C47.6,93,45.9,94.2,44,95c-2,0.9-4.3,1.4-6.6,1.4h-3.2
		c-1.3,0-2.5-0.2-3.7-0.5c-0.5-0.1-0.9-0.3-1.4-0.5c-1.6-0.7-3.1-1.6-4.3-2.9c-2.5-2.5-3.9-5.9-3.9-9.4V67.8c0-3.5,1.4-6.9,3.9-9.4
		l0.5-0.5c1.5-1.5,3.3-2.6,5.2-3.2c1.3-0.5,2.8-0.7,4.2-0.7h12.1c4.4,0,8.6,1.7,11.7,4.8C61.5,61.8,63.2,65.9,63.3,70.2z"/>
	<path class="st2" d="M68.5,98.1L68.5,98.1c0,0,0.1,0,0.1-0.1v9.5l-5.3,4.6c-0.9,0.8-1.9,1.1-3,1.1c-1.2,0-2.5-0.5-3.4-1.5
		c-1.6-1.9-1.5-4.7,0.4-6.3l8.2-7.2c0.1-0.1,0.2-0.2,0.4-0.3c0.2-0.1,0.3-0.2,0.5-0.3c0.1-0.1,0.2-0.1,0.3-0.2
		c0.1-0.1,0.3-0.1,0.4-0.2c0,0,0,0,0,0c0.1,0,0.2-0.1,0.3-0.1c0.1,0,0.1,0,0.2,0c0.3-0.1,0.5-0.1,0.8-0.1v1
		C68.6,98.1,68.6,98.1,68.5,98.1z"/>
	<path class="st0" d="M68.7,98c0.1-0.1,0.1-0.1,0.2-0.1C68.8,97.9,68.7,98,68.7,98c-0.1,0.1-0.1,0.1-0.2,0.2l0.1-0.1
		C68.6,98.1,68.6,98.1,68.7,98z"/>
	<path class="st0" d="M68.8,97h-0.1c-0.3,0-0.5,0-0.8,0.1c0.3-0.1,0.5-0.1,0.8-0.1C68.7,97,68.7,97,68.8,97z"/>
	<path class="st0" d="M71.7,98.2c-0.1-0.1-0.2-0.2-0.4-0.3C71.4,97.9,71.5,98,71.7,98.2L71.7,98.2z"/>
	<path class="st2" d="M53.2,126.4v21.2c-3.1-0.6-6.1-1.3-9-2.2v-19c0-2.5,2-4.5,4.5-4.5C51.1,121.9,53.2,123.9,53.2,126.4z"/>
	<path class="st2" d="M68.7,121.9v27.2c-1.5,0-3,0-4.5-0.1v-22.5C64.2,123.9,66.2,121.9,68.7,121.9z"/>
	<path class="st3" d="M132.3,86.1c1.9-6.2,2.9-12.7,2.9-19.5c0-22.6-11.2-42.5-28.4-54.5C96,4.4,82.8,0,68.7,0v97c0,0,0.1,0,0.1,0
		c0,0,0.1,0,0.1,0c0.1,0,0.1,0,0.2,0c0.1,0,0.3,0,0.4,0.1c0.2,0,0.4,0.1,0.6,0.2c0.1,0,0.2,0.1,0.3,0.1c0.2,0.1,0.3,0.1,0.4,0.2
		c0.1,0.1,0.3,0.2,0.4,0.2c0,0,0,0,0,0c0.1,0.1,0.2,0.2,0.3,0.2l0.1,0.1l8.2,7.2c1.9,1.6,2.1,4.5,0.4,6.3c-0.9,1-2.1,1.5-3.4,1.5
		c-1,0-2.1-0.4-3-1.1l-5.3-4.6v14.4c2.5,0,4.5,2,4.5,4.5v22.5c3.7-0.2,7.4-0.6,11-1.3v-21.2c0-2.6,2.2-4.7,4.9-4.5
		c2.3,0.2,4.1,2.3,4.1,4.7v18.8c3.3-1,6.5-2.2,9.6-3.6c2.5-1.1,4.1-3.6,4.1-6.3v-14.5c0.1,0,0.1,0.1,0.2,0.1
		c3.2,1.2,6.7,1.8,10.4,1.4c10.4-1.1,18.8-9.6,19.8-20.1C137.8,96.1,135.8,90.4,132.3,86.1z M116.4,83c0,3.5-1.4,6.9-3.9,9.4
		c-1.2,1.2-2.7,2.2-4.3,2.9c-0.5,0.2-0.9,0.3-1.4,0.5c-1.2,0.3-2.4,0.5-3.7,0.5h-3.2c-2.3,0-4.5-0.5-6.6-1.4c-1.9-0.8-3.6-2-5.1-3.5
		l-9.4-9.4c-3.2-3.2-4.9-7.5-4.8-12v0c0.1-4.3,1.8-8.3,4.8-11.4c3.1-3.1,7.3-4.8,11.7-4.8h12.1c1.4,0,2.8,0.2,4.2,0.7
		c2,0.6,3.7,1.7,5.2,3.2l0.5,0.5c2.5,2.5,3.9,5.9,3.9,9.4V83z"/>
	<path class="st4" d="M80.3,111.7c-0.9,1-2.1,1.5-3.4,1.5c-1,0-2.1-0.4-3-1.1l-5.3-4.6V98c0.1-0.1,0.1-0.1,0.2-0.2
		c-0.1,0-0.1,0.1-0.2,0.1v-1h0.1c0,0,0.1,0,0.1,0c0.1,0,0.1,0,0.2,0c0.1,0,0.3,0,0.4,0.1c0.2,0,0.4,0.1,0.6,0.2
		c0.1,0,0.2,0.1,0.3,0.1c0.2,0.1,0.3,0.1,0.4,0.2c0.1,0.1,0.3,0.2,0.4,0.2c0,0,0,0,0,0c0.1,0.1,0.3,0.2,0.4,0.3l8.2,7.2
		C81.7,107,81.9,109.9,80.3,111.7z"/>
	<path class="st0" d="M68.8,97h-0.1v0C68.7,97,68.7,97,68.8,97z"/>
	<path class="st0" d="M68.7,98c0.1-0.1,0.1-0.1,0.2-0.1C68.8,97.9,68.7,98,68.7,98L68.7,98z"/>
	<path class="st0" d="M71.7,98.2c-0.1-0.1-0.2-0.2-0.4-0.3C71.4,97.9,71.5,98,71.7,98.2L71.7,98.2z"/>
	<path class="st4" d="M73.2,126.4v22.5c-1.5,0.1-3,0.1-4.5,0.1v-27.2C71.1,121.9,73.2,123.9,73.2,126.4z"/>
	<path class="st4" d="M93.2,126.4v19c-2.9,0.9-5.9,1.7-9,2.2v-21.2c0-2.5,2-4.5,4.5-4.5C91.1,121.9,93.2,123.9,93.2,126.4z"/>
	<path class="st0" d="M107,120.9c-0.1,0.1-0.1,0.1-0.2,0.1v-0.2C106.9,120.9,106.9,120.9,107,120.9z"/>
	<path class="st4" d="M116.4,67.8V83c0,3.5-1.4,6.9-3.9,9.4c-1.2,1.2-2.7,2.2-4.3,2.9c-0.5,0.2-0.9,0.3-1.4,0.5
		c-1.2,0.3-2.4,0.5-3.7,0.5h-3.2c-2.3,0-4.5-0.5-6.6-1.4c-1.9-0.8-3.6-2-5.1-3.5l-9.4-9.4c-3.2-3.2-4.9-7.5-4.8-12v0
		c0.1-4.3,1.8-8.3,4.8-11.4c3.1-3.1,7.3-4.8,11.7-4.8h12.1c1.4,0,2.8,0.2,4.2,0.7c2,0.6,3.7,1.7,5.2,3.2l0.5,0.5
		C115,60.9,116.4,64.2,116.4,67.8z"/>
</g>
</svg>
