<?xml version="1.0" encoding="utf-8"?>
<!-- Generator: Adobe Illustrator 25.2.0, SVG Export Plug-In . SVG Version: 6.00 Build 0)  -->
<svg version="1.1" id="Layer_1" xmlns="http://www.w3.org/2000/svg" xmlns:xlink="http://www.w3.org/1999/xlink" x="0px" y="0px"
	 viewBox="0 0 265.1 231.6" style="enable-background:new 0 0 265.1 231.6;" xml:space="preserve">
<style type="text/css">
	.st0{fill:#98B67B;}
	.st1{fill:#758E55;}
</style>
<g>
	<path class="st0" d="M132.6,66.3C132.6,29.7,102.9,0,66.3,0C29.7,0,0,29.7,0,66.3c0,15.7,5.4,30.1,14.5,41.4l0,0l0.1,0.1
		c2.3,2.9,4.9,5.6,7.7,8.1l110.3,115.8V66.3z"/>
	<path class="st1" d="M250.6,107.7c9.1-11.3,14.5-25.7,14.5-41.4c0-36.6-29.7-66.3-66.3-66.3c-36.6,0-66.3,29.7-66.3,66.3v165.4
		l110.3-115.8C245.6,113.4,248.2,110.7,250.6,107.7L250.6,107.7L250.6,107.7z"/>
</g>
</svg>
