<?xml version="1.0" encoding="utf-8"?>
<!-- Generator: Adobe Illustrator 25.2.0, SVG Export Plug-In . SVG Version: 6.00 Build 0)  -->
<svg version="1.1" id="Layer_1" xmlns="http://www.w3.org/2000/svg" xmlns:xlink="http://www.w3.org/1999/xlink" x="0px" y="0px"
	 viewBox="0 0 150.3 150.4" style="enable-background:new 0 0 150.3 150.4;" xml:space="preserve">
<style type="text/css">
	.st0{fill:#FDD836;}
	.st1{fill:#434343;}
	.st2{fill:#FEEA39;}
	.st3{fill:#616262;}
</style>
<g>
	<path class="st0" d="M150.3,75.2c0,30.4-18.1,56.6-44.1,68.5c-9.5,4.3-20,6.7-31.1,6.7v-10c9.3,0,18.1-1.9,26.1-5.4
		c23-10.1,39.1-33.1,39.1-59.7c0-1.6-0.1-3.1-0.2-4.7c-0.5-6.8-2-13.3-4.4-19.3c-3.4-8.6-8.6-16.3-15.1-22.6
		c-1.6-1.6-3.3-3.1-5.1-4.5C104.5,15.3,90.4,10,75.2,10V0C116.7,0,150.3,33.7,150.3,75.2z"/>
	<path class="st0" d="M130.4,75.2c0,23-14.1,42.7-34.1,51L78.3,95.1c9.7-1.5,17.1-9.9,17.1-20c0-1.6-0.2-3.2-0.5-4.7h35.4
		C130.3,72.1,130.4,73.6,130.4,75.2z"/>
	<path class="st0" d="M110.2,32.5L90.8,62.4c-3.7-4.5-9.3-7.4-15.6-7.4V20C88.4,20,100.6,24.7,110.2,32.5z"/>
	<path class="st0" d="M87.3,75.2c0,6.7-5.5,12.2-12.2,12.2V63c4.8,0,8.9,2.7,10.9,6.7c0.1,0.3,0.3,0.5,0.4,0.8
		C87,72,87.3,73.5,87.3,75.2z"/>
	<path class="st1" d="M140.2,70.5c-0.5-6.8-2-13.3-4.4-19.3c-3.4-8.6-8.6-16.3-15.1-22.6c-1.6-1.6-3.3-3.1-5.1-4.5
		C104.5,15.3,90.5,10,75.2,10v10c13.3,0,25.4,4.7,35,12.5L90.8,62.4c-3.7-4.5-9.3-7.4-15.6-7.4v8c4.8,0,8.9,2.7,10.9,6.7
		c0.1,0.3,0.3,0.5,0.4,0.8c0.6,1.4,0.9,3,0.9,4.7c0,6.7-5.5,12.2-12.2,12.2v53c9.3,0,18.1-1.9,26.1-5.4c23-10.1,39.1-33.1,39.1-59.7
		C140.4,73.6,140.3,72.1,140.2,70.5z M96.2,126.2L78.3,95.1c9.7-1.5,17.1-9.9,17.1-20c0-1.6-0.2-3.2-0.6-4.7h35.4
		c0.1,1.5,0.2,3.1,0.2,4.7C130.4,98.2,116.2,117.9,96.2,126.2z"/>
	<path class="st2" d="M10.2,70.5c-0.1,1.5-0.2,3.1-0.2,4.7c0,26.7,16.1,49.7,39.1,59.7c8,3.5,16.8,5.4,26.1,5.4v10
		c-11.1,0-21.6-2.4-31.1-6.7C18.1,131.8,0,105.6,0,75.2C0,33.7,33.7,0,75.2,0v10c-15.3,0-29.3,5.3-40.5,14.1
		c-1.8,1.4-3.5,2.9-5.1,4.5l0,0c-6.5,6.3-11.7,14-15.1,22.6v0C12.2,57.3,10.6,63.7,10.2,70.5z"/>
	<path class="st2" d="M75.2,20v35c-6.3,0-11.9,2.9-15.6,7.4L40.2,32.5C49.7,24.7,61.9,20,75.2,20z"/>
	<path class="st2" d="M72.1,95.1l-17.9,31.1c-20-8.3-34.1-28-34.1-51c0-1.6,0.1-3.1,0.2-4.7h35.3C55.2,72,55,73.6,55,75.2
		C55,85.2,62.4,93.6,72.1,95.1z"/>
	<path class="st3" d="M75.2,10c-15.3,0-29.3,5.3-40.5,14.1c-1.8,1.4-3.5,2.9-5.1,4.5l0,0c-6.5,6.3-11.7,14-15.1,22.6v0
		c-2.4,6-3.9,12.5-4.4,19.3c-0.1,1.5-0.2,3.1-0.2,4.7c0,26.7,16.1,49.7,39.1,59.7c8,3.5,16.8,5.4,26.1,5.4v-53
		c-6.7,0-12.2-5.5-12.2-12.2c0-1.7,0.3-3.2,0.9-4.7c0.1-0.3,0.2-0.5,0.4-0.8c2-4,6.1-6.7,10.9-6.7v-8c-6.3,0-11.9,2.9-15.6,7.4
		L40.2,32.5c9.5-7.8,21.7-12.5,35-12.5V10z M55.6,70.5C55.2,72,55,73.6,55,75.2c0,10.1,7.4,18.5,17.1,20l-17.9,31.1
		c-20-8.3-34.2-28-34.2-51c0-1.6,0.1-3.1,0.2-4.7H55.6z"/>
	<path class="st2" d="M75.2,63v24.4c-6.7,0-12.2-5.5-12.2-12.2c0-1.7,0.3-3.2,0.9-4.7c0.1-0.3,0.2-0.5,0.4-0.8
		C66.3,65.7,70.4,63,75.2,63z"/>
</g>
</svg>
