<?xml version="1.0" encoding="utf-8"?>
<!-- Generator: Adobe Illustrator 25.2.0, SVG Export Plug-In . SVG Version: 6.00 Build 0)  -->
<svg version="1.1" id="Layer_1" xmlns="http://www.w3.org/2000/svg" xmlns:xlink="http://www.w3.org/1999/xlink" x="0px" y="0px"
	 viewBox="0 0 603.7 726" style="enable-background:new 0 0 603.7 726;" xml:space="preserve">
<style type="text/css">
	.st0{fill:#FFFFFF;}
</style>
<g>
	<g>
		<path class="st0" d="M603.7,726c-201.2,0-402.4,0-603.7,0C0,484,0,242,0,0c201.2,0,402.4,0,603.7,0C603.7,242,603.7,484,603.7,726
			z M249.7,153.1c-4-10.4-7.8-20.1-11.6-30c-7.1-18.8-14.2-37.6-21.3-56.4c-1-2.6-2.2-4-5.3-3.5c-3,0.5-6.1,0.8-9.2,0.7
			c-3.9-0.1-5.6,1.7-6.6,5.3c-1.9,6.6-5.8,9.5-12.5,10c-10.7,0.8-20.9,3.3-30.4,8.4c-13.4,7.2-21.6,18.2-23.2,33.5
			c-0.3,3.1-1.6,3.8-4.3,3.7c-4.5-0.1-9,0-13.9,0c0,2.5,0,4.3,0,6.2c0,58.6,0,117.2,0.1,175.8c0,5.5-0.2,10.1-5.1,14.5
			c-10.3,9.3-12.8,22.4-11.5,35.5c3.1,30.2,13.3,57.6,35.3,79.4c13.1,12.9,28.5,22,46.3,27.1c20.7,5.9,40.1,3.2,58.1-8.6
			c15.5-10.2,26.4-24.5,35.2-40.5c5-9.2,11.4-17,21.6-20.5c16.4-5.6,29.1,3.1,37.5,15.8c6.2,9.4,11.8,19.2,18.8,27.9
			c9.7,12.1,21.9,21.1,37,25.8c13.9,4.3,27.7,3.7,41.6-0.3c14-4.1,26.5-11,37.6-20.2c6.7-5.6,13.4-11.8,18.2-19
			c6.4-9.7,11.7-20.4,16.2-31.2c6-14.4,9.4-29.6,8.5-45.5c-0.6-10.8-3.9-20.6-12.4-27.7c-3.3-2.7-4.7-5.4-4.7-9.8
			c0.2-56.7,0.1-113.5,0.1-170.2c0-3.9-0.1-7.8,0-11.7c0-2-0.7-2.9-2.8-2.9c-2.9,0.1-5.9-0.3-8.8,0.1c-3.6,0.4-4.6-1.2-4.9-4.4
			c-0.9-8.9-4.5-16.8-10.7-23.3c-11-11.6-25.4-16-40.7-17.7c-9.4-1-12.5-3.1-15.5-11.9c-0.5-1.4-2.3-2.9-3.7-3.2
			c-3.9-0.7-8-1.1-12-1c-1.4,0-3.6,1.3-4.2,2.5c-2.2,4.7-3.8,9.7-5.6,14.6c-7.2,18.9-14.5,37.7-21.7,56.6c-1.7,4.4-3.2,8.9-4.9,13.7
			c0.8-0.2,1.3-0.2,1.5-0.4c6.7-5.9,14.2-10.5,22.7-13.3c21.8-7.3,42.8-5.5,62,7.3c23.3,15.6,33.6,38.1,32,66.1
			c-0.1,1.6-0.1,3.2-0.1,4.8c0,29.6-0.1,59.3,0,88.9c0,3.5-0.7,4.5-4.5,4.1c-6.6-0.8-13.4-1.3-20-1c-30.1,1.5-58.6,9.6-86.1,21.5
			c-10,4.3-19.5,10.1-29.3,15c-24.6,12.2-48.4,9.5-71.8-3.7c-9.1-5.1-18-10.7-27.6-14.7c-12.4-5.2-25.2-9.8-38.3-13.3
			c-17.5-4.7-35.5-7.4-53.7-5.3c-3.8,0.4-7.6,1.1-11.8,1.7c0-3.1,0-5.8,0-8.4c0-31.1,0.6-62.3-0.3-93.4
			c-1.1-39.6,27.8-71.8,67.2-73.6c13.1-0.6,25.7,1.7,37,8.8C238.6,145.4,243.7,149.1,249.7,153.1z M222.1,54.4
			c0.5,2.2,0.7,3.3,1.1,4.5c5.5,17.8,11.2,35.5,16.7,53.3c3.9,12.8,7.5,25.7,11.7,38.4c1.6,5,4,9.9,6.7,14.5
			c5.8,9.8,10,20.1,10.9,31.6c0.5,6.2-0.4,5.6,6.2,5.7c5.3,0.1,10.7,0.2,16,0.5c5,0.3,10.1,1.2,15.1,1.1c6.8-0.2,13.5-1.3,20.3-1.4
			c3.9-0.1,5.3-0.9,5.5-5c0.7-11.3,4.1-21.8,10.4-31.3c2.5-3.8,5.7-7.3,7.2-11.5c4.3-12.2,7.9-24.7,11.7-37.1
			c4.1-13.3,8.3-26.5,12.4-39.8c2.3-7.5,4.5-15,7.1-23.5c-13.5-1.2-26.4-2.3-39.3-3.4c-2.6-0.2-2.5,1.7-2.8,3.4
			c-4.2,25.7-8.5,51.3-12.6,76.9c-3.5,21.6-6.9,43.1-10.4,64.7c-0.2,1.3-0.8,2.6-1.2,3.9c-0.5-3.8-0.2-7.2,0.2-10.7
			c1.3-11.3,2.7-22.6,3.9-33.9c1-8.9,1.8-17.8,2.8-26.7c1.2-11.2,2.6-22.3,3.9-33.5c1-8.8,2.1-17.5,3.1-26.3
			c0.9-8.8,1.9-17.6,2.4-26.4c0.1-1.4-1.3-3.6-2.6-4.2c-17.5-7.5-35.1-7.5-52.8-0.5c-2.6,1-3.8,2.8-3.4,6
			c3.3,28.1,6.5,56.1,9.6,84.2c2.6,22.9,5,45.8,7.5,68.7c0.1,1,0,2,0,3c-0.4,0-0.8,0-1.1,0.1c-0.3-1.3-0.6-2.5-0.8-3.8
			c-3.1-19.3-6.2-38.6-9.4-57.9c-4.4-27.2-8.9-54.5-13.4-81.7c-0.9-5.7-0.9-5.7-6.8-5.3c-1.6,0.1-3.2,0.1-4.8,0.3
			C242.8,52.3,232.7,53.3,222.1,54.4z M125.3,515.2c-0.3,0.1-0.6,0.2-0.9,0.3c0.8,2,1.4,4.2,2.6,6c5.2,7.6,10.7,15,16,22.6
			c13.2,18.8,26.4,37.7,39.6,56.6c16.3,23.2,32.7,46.3,49,69.6c1.5,2.1,2.9,3.3,5.8,3.2c41.2-0.1,82.4-0.2,123.5,0.1
			c5.1,0,8-1.7,10.7-5.7c6.5-9.8,13.4-19.4,20.2-29c8.5-12,17-24,25.5-36.1c10.3-14.5,20.5-29.1,30.8-43.6
			c9.2-13.1,18.4-26.3,27.5-39.6c0.8-1.2,1-3,1.4-4.5c-0.3-0.1-0.6-0.3-0.9-0.4c-1.1,1-2.2,1.9-2.6,2.3c-1.8-1.2-3.1-2.5-4.6-3
			c-0.6-0.2-2.6,1.7-2.4,2c0.8,1.7,2,3.3,3.4,5.4c-3.1,3.4-6.7,7.5-10.5,11.4c-4,4-8.2,7.9-12.2,11.8c-0.4,0.4-0.4,1.3-0.9,1.8
			c-2.2,2.3-4.6,4.5-6.8,6.8c-1,1-2.1,2.2-2.6,3.5c-1.2,3.3-2.9,5.9-6.7,6.3c-2.4,0.2-3.2,1.4-3.1,3.7c0,3.5-3,6.2-6.4,6.2
			c-2.8,0-3.9,1.2-3.2,4.1c0.8,3.4-2.5,6.6-5.9,5.8c-2.5-0.6-4.9,0.7-3.9,2.8c2.2,4.5-1.3,5.9-2.6,7.3c-2.8,0.1-4.7,0.2-6.7,0.3
			c0.1,1.9,0.3,3.8,0.5,6.8c-0.9,1-2.7,3-4.5,4.9c0-0.4,0-0.8,0.1-1.1c-1.9-0.3-4.5-1.6-5.5-0.9c-3.2,2.4-0.2,4.2,1.9,6
			c-2.1,2.2-3.9,4.2-6,6.5c-1.7-2.1-3.2-5.4-6-2.6c-3.2,3.3,1,4.2,2.9,6c-1.5,1.7-3,3.3-4.4,4.8c-4.8,5.3-9.4,10.8-14.6,15.9
			c-2.2,2.1-4.9,5.4-8.5,3.3c-2.4-1.4-4.1-0.1-6-0.1c-4.5,0-9.1,0.4-13.6,0c-2.2-0.2-3.9-0.2-6,0c-4.4,0.3-9-0.4-13.6,0.2
			c-2,0.2-4.1-1-7-1.8c-0.7-1.8-1.8-4.5-3-7.3c-1-2.4-3.5-2.7-5.6-0.8c-1.1,1-2.1,2.1-2.4,2.4c-2.2-1.5-3.7-2.8-5.4-3.5
			c-0.4-0.2-2.4,1.8-2.3,2.1c0.8,1.7,2,3.1,3.3,5c-2.2,4.5-3.7,5.1-8.8,3.1c-1.1-0.4-2.5,0-3.7,0.3c-0.9,0.2-1.9,1.3-2.4,1.1
			c-3.5-1.7-6.8-2.2-10.2,0.1c-0.4,0.3-1.8-1-2.8-1.2c-1.3-0.2-3.1-0.7-4,0c-2.3,1.6-4,1.6-6.1-0.2c-0.7-0.6-2.4-0.5-3.4-0.1
			c-3.3,1.3-9.9,0.7-11.9-2.3c-3.1-4.6-6.7-8.6-11.1-12c-1.5-1.1-1.8-3.6-3.2-5c-4.2-4.4-8.8-8.5-13-12.8c-3.4-3.5-6.5-7.3-9.1-10.3
			c1.4-1.9,2.6-3.1,3.2-4.6c0.2-0.5-1.3-2.4-1.6-2.3c-1.9,0.6-3.6,1.5-5.8,2.5c-1.3-1.5-3.2-3.6-5-5.6c0.5-0.1,0.9-0.2,1.4-0.3
			c0.2-1.9,0.4-3.9,0.5-5.8c-1.9,0-3.9,0-5.8,0c-0.1,0.5-0.2,1-0.4,1.5c-1.7-1.8-3.3-3.7-5-5.5c0.4-0.1,0.7-0.1,1.1-0.2
			c0.2-1.7,0.9-3.4,0.5-5c-0.1-0.6-2.4-0.9-3.7-1.1c-1.3-0.2-3.2,0.4-3.9-0.3c-1.4-1.4-3.7-2.7-2.1-5.7c1.3-2.5-0.3-4.3-3-4.1
			c-4.9,0.5-6.5-1.3-6.7-6.6c-0.1-1.2-1.8-3.1-3-3.2c-4.4-0.5-6.1-2.1-6.7-6.7c-0.2-1.1-1.5-2.8-2.5-2.9c-4.5-0.6-6.3-3.3-7.3-7.3
			c-0.3-1.2-1.7-2.1-2.7-3c-2.2-2.1-4.6-4.1-6.8-6.3c-0.6-0.6-0.6-1.9-1.2-2.5C132.8,521.3,129,518.3,125.3,515.2z M301.4,573.2
			c-9.6,0-19.3,0.1-28.9,0c-2.4,0-3.4,0.6-3.3,3.2c0.1,5.9-0.1,11.8,0.1,17.7c0,1.2,0.9,2.8,1.9,3.4c0.7,0.4,2.6-0.2,3.4-0.9
			c1.9-1.6,3.2-1.7,5.2,0.1c0.9,0.8,3.6,0.7,4.7-0.1c1.9-1.4,3.2-1.7,4.8,0c1.7,1.8,3.3,1.3,5.3,0.1c1.1-0.7,3.3-0.7,4.3,0
			c2,1.2,3.5,1.9,5.3,0c1.8-1.8,3.3-1.3,5.2,0.1c1,0.7,3.6,0.8,4.5,0c2.1-1.9,3.4-1.6,5.5,0.1c0.9,0.7,3.6,0.6,4.4-0.2
			c2-2,3.2-1.5,5.1,0c0.9,0.7,2.7,1.3,3.4,0.9c1-0.6,1.9-2.2,1.9-3.4c0.1-5.6-0.2-11.2-0.1-16.9c0.1-3.3-1.2-4.1-4.2-4
			C320.4,573.3,310.9,573.2,301.4,573.2z M264.2,491.9c-0.3,0.3-0.5,0.6-0.8,0.9c8.2,11.9,16.3,23.8,24.6,35.5
			c0.7,1,2.7,1.5,4.1,1.6c5.6,0.2,11.3-0.1,16.9,0.2c3.1,0.1,4.6-1.3,6.1-3.6c4.2-6.3,8.6-12.6,12.9-18.9c3.4-5,6.8-10.1,10.2-15.1
			c-5.1,2.3-9.9,4.9-13.9,8.4c-8.3,7.3-17.4,11.2-28.5,9.3c-3.2-0.6-6.6-1.2-9.2-2.9C278.9,502.4,271.7,497.1,264.2,491.9z
			 M225.5,546c0,0.5,0,1,0.1,1.6c1.3,0.7,2.5,1.4,3.8,2c4.1,1.9,8,4.8,12.3,5.4c8,1.1,16.3,1.3,24.4,1.2c11.3-0.2,22.5-0.4,33.5,2.9
			c1.1,0.3,2.5,0.4,3.5,0.1c12.4-3.8,25.1-3.2,37.9-2.8c5.7,0.2,11.7,0.4,17.2-0.8c6.8-1.5,13.3-4.6,19.9-7
			c-0.1-0.7-0.2-1.4-0.2-2.1c-1.4-0.1-3.3-0.9-4.1-0.3c-8.5,6.4-18.1,6.6-28,5.6c-7.9-0.8-15.7-1.7-23.6-2.7
			c-6.5-0.7-12.5,0.3-18.1,3.8c-1.2,0.8-3.8,0.9-4.9,0.2c-5.7-3.9-11.9-4.7-18.4-4c-8.1,0.9-16.2,2.1-24.4,2.8
			c-9.3,0.8-18.5,0.5-26.5-5.5C228.8,545.6,226.9,546.1,225.5,546z M490,469.4c8.3,0,14.8-6.4,14.8-14.7c0-7.7-6.8-14.5-14.7-14.6
			c-7.8-0.1-15.2,7.1-14.8,14.8C475.9,463.2,481,469.2,490,469.4z M266.6,624.7c-2-1.5-3.2-3.2-4.2-3c-1.1,0.1-2.6,1.8-2.8,2.9
			c-0.1,0.8,1.5,2.7,2.4,2.8C263.3,627.4,264.5,626.1,266.6,624.7z M296.4,605.2c-2.1-1.5-3.2-2.9-4.4-3c-1-0.1-2,1.5-3.1,2.3
			c0.9,1.1,1.7,2.9,2.7,3.1C292.7,607.7,294.1,606.4,296.4,605.2z M340.9,629.2c1.6-2.3,2.9-3.4,3-4.6c0-1-1.5-2.1-2.3-3.1
			c-1.1,0.9-2.8,1.7-3.1,2.8C338.2,625.3,339.6,626.7,340.9,629.2z M390.2,530.8c1.5-2,2.9-3.1,3-4.3c0.1-1-1.7-2.9-2.4-2.8
			c-1.2,0.2-2.9,1.5-3.1,2.6C387.5,527.2,388.9,528.6,390.2,530.8z M183.4,512.1c-1.3,2.4-2.6,3.7-2.5,4.9c0.1,1,1.9,2.4,2.9,2.4
			c1,0,2.6-1.7,2.6-2.6C186.4,515.5,185,514.4,183.4,512.1z M316.1,614.6c-2.3-1.4-3.6-2.8-4.6-2.6c-1.2,0.2-2,1.9-3,3
			c1,0.9,2,2.6,3.1,2.6C312.7,617.5,313.9,616.1,316.1,614.6z M390.2,589.6c1.6-2.1,3.1-3.3,3-4.3c-0.1-1.1-1.7-2.6-2.9-2.8
			c-0.7-0.2-2.6,1.6-2.7,2.5C387.6,586.2,388.9,587.4,390.2,589.6z M355,624.7c-1.9-1.5-3-3-4.1-3c-0.9,0-2.7,1.9-2.6,2.7
			c0.2,1.2,1.6,2.7,2.7,3C351.8,627.6,353.1,626,355,624.7z M395,575.5c-2.4-1.4-3.6-2.6-4.7-2.6c-1,0.1-2,1.6-3,2.4
			c1,1,1.8,2.8,2.9,2.9C391.4,578.4,392.7,577,395,575.5z M183.2,531c1.7-2.2,3.2-3.4,3.1-4.4c-0.1-1.1-1.8-2.1-2.7-3.2
			c-1,0.9-2.6,1.7-2.7,2.7C180.8,527.2,182,528.5,183.2,531z M316,624.4c-2.2-1.4-3.4-2.8-4.6-2.7c-1,0.1-2.9,1.9-2.7,2.7
			c0.2,1.2,1.7,2.8,2.9,3C312.6,627.5,313.8,625.9,316,624.4z M276.1,624.3c-1.8-1.3-3.1-2.9-3.9-2.7c-1.2,0.3-2.8,1.9-2.8,2.9
			c0,1,1.7,2.7,2.8,2.8C273.3,627.5,274.4,625.8,276.1,624.3z M360.7,619.8c-1.4,2.4-2.8,3.7-2.6,4.8c0.2,1.1,1.8,2,2.9,2.9
			c0.9-1,2.5-1.9,2.5-2.9C363.5,623.4,362.2,622.2,360.7,619.8z M390.2,531.8c-1.4,2.3-2.7,3.5-2.6,4.7c0.1,1,1.9,2.8,2.7,2.6
			c1.2-0.3,2.7-1.7,2.9-2.9C393.3,535.2,391.7,533.9,390.2,531.8z M148.4,526.3c-1.9-1.3-3.2-2.8-4.3-2.7c-1.1,0.2-2,1.9-3,3
			c1.1,0.9,2.1,2.4,3.4,2.6C145.4,529.3,146.6,527.7,148.4,526.3z M237.2,604.8c-2.1-1.4-3.4-2.8-4.5-2.7c-1,0.1-2,1.7-2.9,2.7
			c1.1,1,2,2.5,3.3,2.7C233.9,607.7,235.1,606.3,237.2,604.8z M183.6,540.8c1.4-2.3,2.9-3.7,2.7-4.7c-0.2-1.1-1.9-2.4-3.1-2.6
			c-0.6-0.1-2.4,1.8-2.4,2.8C180.8,537.4,182.2,538.6,183.6,540.8z M183.4,551.5c-1.3,2.3-2.6,3.5-2.6,4.7c0.1,1,1.9,2.7,2.6,2.6
			c1.2-0.3,2.8-1.7,2.9-2.8C186.5,554.9,184.9,553.7,183.4,551.5z M238.5,624.3c2,1.5,3.1,3,4.2,3c0.9,0,2.7-1.7,2.7-2.5
			c-0.1-1.2-1.4-3-2.4-3.2C242,621.5,240.7,623,238.5,624.3z M306.1,614.7c-2-1.4-3.3-2.9-4.3-2.8c-1.1,0.1-2.6,1.8-2.9,3
			c-0.2,0.7,1.8,2.6,2.7,2.6C302.8,617.5,304,616.1,306.1,614.7z M430.4,522.9c-0.5,0-1,0-1.5,0c-0.7,1.3-1.9,2.6-1.8,3.8
			c0.1,1,1.8,2.6,2.7,2.5c1,0,2.5-1.7,2.6-2.7C432.4,525.3,431.1,524.1,430.4,522.9z M390.7,560.1c1.2-1.8,2.8-3.2,2.5-4
			c-0.3-1.2-1.9-2.1-3-3.1c-0.9,1.1-2.4,2.2-2.5,3.4C387.6,557.3,389.2,558.4,390.7,560.1z M232.8,610.3c-1.4,2.2-2.9,3.4-2.8,4.6
			c0,1,1.9,2.8,2.7,2.6c1.2-0.2,2.8-1.7,3-2.8C235.8,613.7,234.2,612.4,232.8,610.3z M374.7,614.5c-1.8-1.2-3.1-2.7-4.2-2.5
			c-1,0.1-1.9,1.9-2.8,3c1.1,0.9,2.2,2.4,3.3,2.6C372,617.6,373.1,616,374.7,614.5z M316,634.4c-2.1-1.4-3.3-2.8-4.2-2.7
			c-1.2,0.2-2.3,1.6-3.4,2.5c1,1,2,2.6,3.1,2.8C312.6,637.3,313.9,635.8,316,634.4z M419.9,521.7c-1.4,2.4-2.9,3.8-2.7,4.9
			c0.2,1.1,2,1.9,3,2.8c0.8-1,2.3-2,2.3-3C422.6,525.2,421.3,524,419.9,521.7z M390.1,561.6c-1.2,2.1-2.5,3.4-2.4,4.5
			c0.1,0.9,2.1,2.5,2.8,2.3c1.2-0.4,2.5-1.8,2.7-3C393.3,564.6,391.7,563.4,390.1,561.6z M443.8,516.7c-2-1.4-3.2-2.8-4.3-2.8
			c-0.9,0-1.9,1.7-2.8,2.6c1,1,1.8,2.5,3,2.8C440.5,519.5,441.8,518,443.8,516.7z M216.6,576c0-0.5-0.1-1-0.1-1.5
			c-1.3-0.6-2.6-1.7-3.8-1.6c-1,0.1-2.5,1.9-2.4,2.8c0.1,1,1.8,2.5,2.8,2.5C214.3,578.2,215.4,576.8,216.6,576z M370.8,600.6
			c-1.5,2-2.9,3.1-3,4.3c0,0.9,1.7,2.8,2.5,2.7c1.2-0.1,3-1.4,3.2-2.5C373.7,604,372.2,602.7,370.8,600.6z M178,526.6
			c-1.9-1.5-3-3-4.2-3c-0.9,0-2.8,1.8-2.7,2.5c0.2,1.2,1.5,2.7,2.6,3C174.6,529.4,175.9,527.9,178,526.6z M331.4,629
			c1.4-2.3,2.7-3.5,2.7-4.7c-0.1-1-1.7-2-2.6-2.9c-1,1.1-2.4,2-2.7,3.3C328.5,625.6,329.9,626.8,331.4,629z M174.4,532.8
			c-0.5,0-1,0-1.5,0.1c-0.7,1.2-1.9,2.5-1.8,3.6c0.1,1,1.7,1.9,2.6,2.8c1-1,2.6-1.9,2.7-3C176.6,535.2,175.1,533.9,174.4,532.8z
			 M207.7,585c-2.3-1.3-3.7-2.7-4.7-2.5c-1.1,0.3-2.3,2-2.5,3.2c-0.1,0.7,1.8,2.4,2.8,2.3C204.4,588,205.5,586.6,207.7,585z
			 M178,555.9c-2.1-1.3-3.3-2.7-4.4-2.7c-0.9,0-2.7,2-2.5,2.8c0.3,1.2,1.7,2.6,2.9,2.8C174.8,559,176,557.4,178,555.9z M390.1,520.5
			c1.5-1.6,3.2-2.7,3.1-3.5c-0.2-1.2-1.7-2.2-2.6-3.3c-1.1,1-2.6,1.8-3,3C387.4,517.5,388.9,518.8,390.1,520.5z M213.1,531.8
			c-1.4,2.1-2.8,3.3-2.8,4.5c0,1,1.8,2.9,2.5,2.8c1.2-0.3,2.9-1.6,3.1-2.7C216.1,535.3,214.6,534,213.1,531.8z M276.1,614.7
			c-1.7-1.4-2.9-3-3.7-2.8c-1.2,0.3-2.2,1.8-3.2,2.7c1,1,1.9,2.6,3.2,2.9C273.1,617.7,274.4,616.1,276.1,614.7z M138.6,516.6
			c-2-1.3-3.1-2.7-4.3-2.7c-1,0-1.9,1.7-2.9,2.6c1,1,1.9,2.6,3.1,2.8C135.4,519.5,136.6,518,138.6,516.6z M291.9,618.7
			c1.4-1.8,3.1-3.1,2.9-4.1c-0.2-1.1-2-2-3.1-3c-0.9,1.1-2.4,2.1-2.6,3.3C289,615.9,290.5,617,291.9,618.7z M282.6,621
			c-0.5,0-1,0.1-1.5,0.1c-0.6,1.3-1.8,2.6-1.7,3.7c0.1,1,1.9,2.5,2.8,2.4c1-0.1,2.5-1.7,2.5-2.7C284.7,623.4,283.3,622.2,282.6,621z
			 M296.2,624.3c-2.1-1.3-3.4-2.7-4.6-2.6c-1,0.1-2.3,2-2.5,3.2c-0.1,0.8,1.9,2.5,2.8,2.4C293.2,627.2,294.3,625.7,296.2,624.3z
			 M301.8,628.8c1.4-2.1,2.8-3.3,2.8-4.5c0-1-1.9-2.8-2.7-2.7c-1.2,0.2-2.9,1.7-3,2.9C298.8,625.6,300.4,626.8,301.8,628.8z
			 M439.6,521.9c-1.4,2.2-2.7,3.4-2.7,4.6c0,1,1.7,1.9,2.6,2.9c1-1,2.5-2,2.7-3.1C442.4,525.3,441,524.1,439.6,521.9z M301.7,608.7
			c1.3-1.5,3.1-2.7,2.9-3.5c-0.3-1.2-1.8-2.2-2.8-3.2c-1,1-2.6,2-2.9,3.2C298.7,605.9,300.4,607.1,301.7,608.7z M430.5,532.8
			c-0.5,0-1,0-1.6,0c-0.7,1.2-2,2.5-1.9,3.6c0.1,1,1.7,2.6,2.7,2.6c0.9,0,2.6-1.6,2.7-2.6C432.5,535.3,431.2,534,430.5,532.8z
			 M148.5,516.4c-2.1-1.3-3.3-2.6-4.5-2.5c-1,0.1-1.9,1.8-2.9,2.7c1.1,1,2.1,2.5,3.3,2.7C145.4,519.5,146.6,517.9,148.5,516.4z
			 M311.7,609c1.3-1.9,2.9-3.1,2.7-4c-0.3-1.2-1.8-2.7-2.9-2.8c-0.9-0.1-2.8,1.7-2.8,2.6C308.7,606,310.3,607.1,311.7,609z
			 M243,609.2c1.2-2.2,2.5-3.5,2.4-4.6c-0.1-1-1.7-1.8-2.7-2.7c-0.9,1.1-2.4,2.1-2.6,3.3C240,606,241.5,607.2,243,609.2z
			 M227.4,614.9c-2-1.5-3.2-3-4.3-3c-1.1,0.1-2.6,1.6-2.9,2.8c-0.2,0.8,1.6,2.7,2.6,2.7C223.9,617.5,225.2,616.2,227.4,614.9z
			 M242.4,610.3c-1.2,2.3-2.5,3.6-2.4,4.8c0.1,1,1.8,1.7,2.9,2.6c0.9-1.1,2.3-2.1,2.5-3.3C245.5,613.4,244,612.3,242.4,610.3z
			 M222.9,591c-1.4,1.9-3,3.1-2.8,3.9c0.3,1.2,1.8,2.6,2.9,2.7c0.8,0.1,2.7-1.6,2.7-2.5C225.8,594,224.3,592.9,222.9,591z
			 M262.3,618.8c1.4-1.7,2.9-2.9,2.8-3.8c-0.2-1.2-1.7-2.2-2.7-3.3c-1,1.1-2.5,2-2.8,3.2C259.5,615.8,261,617,262.3,618.8z
			 M404.9,585.2c-2.3-1.4-3.7-2.8-4.7-2.7c-1.1,0.2-2.4,1.9-2.6,3.1c-0.1,0.7,1.7,2.4,2.7,2.4C401.4,588,402.6,586.7,404.9,585.2z
			 M213.2,589.6c1.3-2.2,2.7-3.4,2.6-4.5c-0.1-1-1.9-2.7-2.6-2.6c-1.2,0.3-2.8,1.7-2.9,2.8C210.1,586.3,211.7,587.5,213.2,589.6z
			 M252.7,628.8c1.3-2,2.7-3.2,2.5-4.1c-0.2-1.2-1.8-2.1-2.7-3.2c-0.9,1.1-2.4,2.1-2.6,3.4C249.8,625.7,251.3,626.9,252.7,628.8z
			 M213.2,512.1c-1.5,2.3-2.9,3.4-2.9,4.6c0,0.9,1.7,2.5,2.7,2.6c1,0,2.8-1.5,2.9-2.4C216,515.7,214.6,514.5,213.2,512.1z
			 M404.9,516.9c-2.3-1.6-3.4-3-4.6-3c-1,0-2.7,1.6-2.7,2.6c-0.1,0.9,1.4,2.8,2.3,2.9C401.1,519.4,402.4,518.2,404.9,516.9z
			 M158.2,536.2c-1.9-1.3-3.1-2.7-4.3-2.7c-1,0-1.9,1.7-2.9,2.7c1,1,2,2.6,3.2,2.9C155.1,539.2,156.3,537.6,158.2,536.2z
			 M453.5,526.2c-1.9-1.3-3.2-2.8-4.2-2.6c-1.1,0.2-1.9,2-2.9,3c1.1,0.9,2.1,2.4,3.3,2.5C450.6,529.3,451.8,527.7,453.5,526.2z
			 M237.3,624.8c-2.1-1.6-3.3-3.2-4.3-3.1c-1.2,0.2-2.7,1.7-3,2.9c-0.2,0.8,1.6,2.7,2.6,2.8C233.7,627.5,235,626.1,237.3,624.8z
			 M217.6,555.8c-2.3-1.4-3.5-2.7-4.7-2.6c-1,0.1-2.7,2-2.5,2.7c0.2,1.2,1.7,2.7,2.8,2.8C214.2,558.9,215.4,557.3,217.6,555.8z
			 M252.9,638.8c1.3-2.3,2.6-3.6,2.4-4.7c-0.1-1-1.9-1.8-2.9-2.6c-0.9,1.1-2.3,2.1-2.5,3.3C249.8,635.7,251.3,636.8,252.9,638.8z
			 M404.8,555.7c-2.4-1.3-3.8-2.6-4.9-2.5c-0.9,0.1-2.4,1.9-2.3,3c0.1,1,1.8,2.6,2.7,2.6C401.5,558.7,402.6,557.3,404.8,555.7z
			 M400.4,530.6c1.3-1.9,2.8-3.2,2.7-4.2c-0.2-1.1-1.9-2-3-3c-0.9,1.1-2.4,2.1-2.6,3.4C397.4,527.6,399,528.8,400.4,530.6z
			 M424.3,556.1c-2.1-1.5-3.3-3-4.4-3c-1,0-2.9,1.7-2.8,2.4c0.2,1.2,1.5,2.8,2.6,3.1C420.7,559,422,557.5,424.3,556.1z M429.9,560.5
			c1.3-2.3,2.6-3.5,2.5-4.7c-0.1-1-1.7-1.9-2.6-2.8c-0.9,1.1-2.4,2.1-2.6,3.3C427,557.1,428.4,558.3,429.9,560.5z M188,566
			c-2.1-1.5-3.2-3-4.1-2.9c-1.2,0.2-2.1,1.7-3.2,2.6c0.9,0.9,1.7,2.6,2.7,2.6C184.5,568.4,185.7,567.2,188,566z M332,611.2
			c-0.5,0-1,0-1.5,0.1c-0.7,1.2-1.9,2.6-1.8,3.7c0.1,1,1.9,2.6,2.8,2.5c1-0.1,2.6-1.7,2.6-2.7C334.1,613.6,332.7,612.4,332,611.2z
			 M430.5,513.2c-0.5,0-1,0-1.5,0c-0.7,1.2-2,2.4-2,3.6c0,0.9,1.7,2.5,2.7,2.5c1,0,2.6-1.6,2.7-2.5
			C432.5,515.6,431.2,514.4,430.5,513.2z M217.5,526.2c-2.2-1.3-3.6-2.8-4.6-2.6c-1.1,0.2-2.5,1.9-2.6,3.1c-0.1,0.8,1.8,2.5,2.8,2.5
			C214.3,529.2,215.4,527.7,217.5,526.2z M168.1,526.5c-1.9-1.5-3-3-4.1-3c-0.9,0-2.7,1.8-2.6,2.6c0.1,1.1,1.5,2.7,2.6,3
			C164.8,529.4,166.1,527.9,168.1,526.5z M197.5,526.7c-1.8-1.6-3-3.2-3.8-3.1c-1.2,0.2-2.6,1.5-3,2.7c-0.2,0.7,1.4,2.7,2.3,2.8
			C194.2,529.2,195.4,527.9,197.5,526.7z M403.7,566.5c0-0.5,0-1,0-1.5c-1.2-0.7-2.4-2-3.6-1.9c-1,0.1-2.6,1.7-2.6,2.6
			c0,0.9,1.5,2.6,2.5,2.7C401.2,568.5,402.5,567.2,403.7,566.5z M207.5,526.4c-2.1-1.5-3.3-3-4.3-2.9c-1.1,0.2-2.5,1.9-2.6,3.1
			c-0.1,0.8,1.7,2.6,2.6,2.6C204.3,529.3,205.4,527.9,207.5,526.4z M453.6,516.8c-1.8-1.4-3-3-3.8-2.9c-1.2,0.2-2.3,1.7-3.4,2.7
			c1.1,0.9,2,2.4,3.2,2.7C450.5,519.4,451.7,518,453.6,516.8z M322.2,611.3c-0.5,0-1,0-1.4,0c-0.7,1.2-2,2.5-1.9,3.6
			c0.1,1,1.8,2.6,2.7,2.5c1,0,2.6-1.6,2.7-2.6C324.2,613.7,322.9,612.5,322.2,611.3z M414.4,526.2c-2.1-1.3-3.3-2.6-4.5-2.6
			c-0.9,0.1-2.6,2-2.4,2.7c0.3,1.1,1.8,2.5,2.9,2.7C411.3,529.3,412.4,527.7,414.4,526.2z M403.8,576.1c0-0.5,0-1,0-1.5
			c-1.2-0.6-2.5-1.9-3.7-1.7c-1,0.1-2.6,1.8-2.5,2.7c0.1,1,1.7,2.6,2.7,2.6C401.4,578.3,402.6,576.9,403.8,576.1z M286.2,614.7
			c-2-1.3-3.1-2.7-4.3-2.7c-0.9,0-2.7,1.9-2.5,2.6c0.3,1.2,1.6,2.7,2.7,2.9C283,617.7,284.2,616.1,286.2,614.7z M272.2,630
			c-1.5,2.2-2.8,3.4-2.8,4.5c0,1,1.7,1.9,2.6,2.8c1-1,2.5-1.9,2.8-3.1C275,633.4,273.6,632.2,272.2,630z M321.6,620.2
			c-1.5,2-3,3.2-2.8,4.1c0.2,1.2,1.7,2.2,2.7,3.2c0.9-0.9,2.6-1.8,2.6-2.8C324.2,623.6,322.9,622.3,321.6,620.2z M203.3,540.5
			c1.3-2,2.8-3.3,2.6-4.2c-0.3-1.2-1.8-2-2.8-3c-0.9,1-2.5,2-2.5,2.9C200.5,537.4,201.9,538.5,203.3,540.5z M429.9,550.5
			c1.3-2.2,2.6-3.5,2.5-4.6c-0.1-1-1.8-1.8-2.7-2.7c-0.9,1.1-2.4,2-2.6,3.2C426.9,547.3,428.4,548.5,429.9,550.5z M262.5,630.3
			c-1.4,1.8-3,2.9-2.9,3.8c0.2,1.2,1.7,2.2,2.6,3.3c1-1,2.5-1.9,2.8-3.1C265.2,633.4,263.8,632.2,262.5,630.3z M404.5,536.4
			c-1.9-1.5-3.1-3.1-3.9-2.9c-1.2,0.2-2.7,1.6-3,2.8c-0.2,0.7,1.5,2.8,2.4,2.8C401.2,539.1,402.5,537.7,404.5,536.4z M414.2,545.8
			c-1.9-1.2-3.2-2.5-4.1-2.4c-1.1,0.2-1.9,1.7-2.8,2.7c1.1,1,2,2.5,3.2,2.7C411.3,549,412.4,547.3,414.2,545.8z M404.8,546.2
			c-2.3-1.4-3.6-2.8-4.7-2.7c-1,0.1-2.6,1.7-2.6,2.7c0,1,1.6,2.7,2.6,2.8C401.3,549,402.5,547.6,404.8,546.2z M237.3,595.1
			c-2.1-1.5-3.3-3-4.2-2.8c-1.2,0.2-2.2,1.7-3.3,2.6c0.9,1,1.8,2.6,2.8,2.7C233.8,597.8,235,596.5,237.3,595.1z M252.8,610.3
			c-1.5,2-2.9,3.2-2.8,4.1c0.2,1.2,1.7,2.1,2.6,3.2c1-0.9,2.7-1.7,2.8-2.7C255.4,613.8,254.1,612.5,252.8,610.3z M439.7,540.6
			c1.3-2.1,2.8-3.3,2.6-4.3c-0.2-1.2-1.8-2-2.8-3.1c-0.9,1-2.5,1.9-2.5,2.9C437,537.4,438.3,538.6,439.7,540.6z M266.5,595.1
			c-1.9-1.4-3.1-2.9-4-2.7c-1.2,0.3-2,1.8-3,2.8c1,0.9,1.9,2.4,2.9,2.5C263.4,597.8,264.6,596.4,266.5,595.1z M174.7,513.3
			c-0.5,0-1,0-1.5-0.1c-0.7,1.2-2.1,2.3-2.1,3.5c0,1,1.6,2.6,2.6,2.7c0.9,0.1,2.7-1.5,2.8-2.4C176.6,515.8,175.3,514.5,174.7,513.3z
			 M217.3,546c-2-1.3-3.3-2.8-4.2-2.5c-1.2,0.3-2,1.9-3,3c1,0.9,2,2.5,3,2.5C214.3,548.8,215.4,547.4,217.3,546z M331.1,630.3
			c-1.2,1.9-2.6,3.2-2.4,4c0.3,1.2,1.9,2,2.9,3c0.9-1.1,2.3-2.1,2.5-3.4C334.2,633.1,332.5,632,331.1,630.3z M331.5,609.1
			c1.3-2.1,2.7-3.3,2.6-4.4c0-0.9-1.8-1.8-2.8-2.7c-0.9,1-2.4,2-2.7,3.2C328.5,606,330,607.1,331.5,609.1z M380.6,590.6
			c-1.5,2.2-2.9,3.4-2.9,4.5c0,0.9,1.7,2.5,2.7,2.5c1,0,2.7-1.5,2.8-2.4C383.3,594.1,382,592.9,380.6,590.6z M390.6,590.7
			c-1.5,2.2-2.9,3.3-2.9,4.5c0,0.9,1.7,2.4,2.7,2.5c1,0,2.7-1.4,2.8-2.3C393.2,594.2,391.9,592.9,390.6,590.7z M321.6,609.1
			c1.3-2.1,2.6-3.3,2.6-4.4c0-0.9-1.7-1.8-2.6-2.7c-1,1-2.5,1.9-2.7,3.1C318.7,605.9,320.1,607.1,321.6,609.1z M227.2,605.2
			c-1.9-1.5-3-3.1-3.9-3c-1.2,0.1-2.3,1.6-3.4,2.5c0.9,1,1.7,2.7,2.7,2.8C223.8,607.6,225.1,606.4,227.2,605.2z M345.5,634.5
			c-2-1.5-3.2-3-4.1-2.8c-1.2,0.2-2.1,1.8-3.2,2.7c0.9,1,1.8,2.6,2.8,2.7C342.1,637.3,343.3,635.9,345.5,634.5z M203.4,550.4
			c1.3-2,2.7-3.3,2.5-4.2c-0.3-1.1-1.8-2.5-2.9-2.7c-0.7-0.1-2.5,1.8-2.5,2.7C200.5,547.3,202,548.4,203.4,550.4z M410.9,532.8
			c-0.5,0-1,0-1.5,0c-0.7,1.2-2,2.5-1.9,3.7c0.1,1,1.8,2.6,2.7,2.6c1,0,2.6-1.7,2.6-2.7C412.9,535.2,411.6,534,410.9,532.8z
			 M262.6,600.5c-1.5,2-3.1,3.1-2.9,4c0.2,1.2,1.6,2.2,2.6,3.2c1-0.9,2.7-1.7,2.8-2.6C265.2,604,263.9,602.7,262.6,600.5z
			 M276.2,604.9c-1.8-1.4-3-2.9-3.8-2.7c-1.2,0.3-2.2,1.8-3.2,2.7c1.1,1,2,2.5,3.2,2.7C273.2,607.8,274.4,606.2,276.2,604.9z
			 M286.2,604.7c-2-1.3-3.2-2.6-4.3-2.6c-0.9,0-2.6,1.9-2.4,2.7c0.3,1.1,1.7,2.5,2.8,2.7C283.1,607.7,284.3,606.2,286.2,604.7z
			 M420.7,532.8c-0.5,0-1,0-1.5,0c-0.7,1.2-2.2,2.5-2,3.5c0.2,1.1,1.9,1.9,3,2.9c0.9-1,2.4-1.9,2.5-2.9
			C422.7,535.2,421.4,534,420.7,532.8z M390.4,542.2c-1.4,1.7-3,2.9-2.8,3.7c0.2,1.2,1.8,2.1,2.8,3.1c1-1,2.5-2,2.8-3.1
			C393.4,545.1,391.7,543.9,390.4,542.2z M257,605c-2.3-1.5-3.5-2.8-4.6-2.8c-0.9,0-2.5,1.7-2.5,2.7c0,1,1.5,2.7,2.4,2.8
			C253.5,607.7,254.7,606.4,257,605z M213.1,609.1c1.4-2,2.8-3.2,2.8-4.3c0-0.9-1.9-2.7-2.6-2.6c-1.2,0.3-2.6,1.7-2.9,2.8
			C210.1,605.8,211.6,607.1,213.1,609.1z M374.7,595.3c-1.7-1.4-2.8-3-3.7-2.9c-1.2,0.1-2.2,1.6-3.3,2.4c1,1,1.8,2.6,2.9,2.8
			C371.6,597.8,372.9,596.5,374.7,595.3z M365.3,634.1c-2.5-1.3-3.7-2.5-4.9-2.4c-0.9,0.1-2.3,1.9-2.2,2.8c0.1,1,1.7,2.6,2.6,2.6
			C361.9,637.1,363,635.7,365.3,634.1z M351.1,630.3c-1.5,1.9-3.1,3-2.9,3.8c0.2,1.2,1.7,2.2,2.6,3.2c1-1,2.4-1.9,2.7-3.1
			C353.7,633.4,352.4,632.2,351.1,630.3z M360.4,609.3c1.6-2.1,3.1-3.2,3-4c-0.2-1.2-1.6-2.2-2.5-3.3c-1,0.9-2.6,1.7-2.7,2.6
			C358,605.7,359.2,607,360.4,609.3z M360.5,590.7c-1.2,2.3-2.4,3.5-2.3,4.6c0.1,0.9,1.8,1.7,2.7,2.5c0.9-1.1,2.3-2,2.5-3.2
			C363.6,593.8,362.1,592.7,360.5,590.7z M380.6,609c1.4-1.9,2.9-3.2,2.7-4c-0.3-1.2-1.8-2.6-3-2.8c-0.7-0.1-2.6,1.7-2.6,2.7
			C377.7,606,379.2,607.1,380.6,609z M164,520.9c1.3-2.1,2.6-3.2,2.6-4.4c0-0.9-1.7-1.8-2.6-2.7c-1,1-2.5,1.9-2.7,3.1
			C161.1,517.7,162.6,518.9,164,520.9z M325.8,634.8c-2-1.6-3.1-3.1-4-3c-1.2,0.2-2.7,1.5-3,2.6c-0.2,0.7,1.4,2.7,2.4,2.8
			C322.3,637.3,323.6,636,325.8,634.8z M281.3,637.8c0.5,0,1,0,1.6,0c0.7-1.2,2-2.4,1.9-3.5c-0.1-0.9-1.7-2.4-2.7-2.4
			c-0.9,0-2.5,1.5-2.6,2.5C279.3,635.4,280.6,636.6,281.3,637.8z M242.8,590.8c-1.4,2-2.9,3.2-2.7,4c0.3,1.2,1.8,2,2.9,3
			c0.9-1,2.3-1.9,2.4-2.9C245.5,593.9,244.1,592.8,242.8,590.8z M217.5,595c-2.2-1.3-3.4-2.6-4.5-2.6c-1,0-1.9,1.7-2.8,2.6
			c1,1,1.9,2.5,3.1,2.7C214.2,597.8,215.4,596.4,217.5,595z M196.7,576.1c0-0.5,0-1-0.1-1.5c-1.2-0.6-2.5-1.8-3.6-1.7
			c-0.9,0.1-2.4,1.8-2.3,2.7c0.1,1,1.7,2.6,2.6,2.6C194.4,578.3,195.6,576.9,196.7,576.1z M410.3,579.9c1.3-2.1,2.7-3.4,2.5-4.3
			c-0.3-1.1-1.8-2.5-2.9-2.7c-0.7-0.1-2.6,1.7-2.5,2.6C407.4,576.7,408.8,577.8,410.3,579.9z M207.5,575.3c-2.1-1.3-3.5-2.7-4.3-2.4
			c-1.2,0.3-2,1.9-2.9,2.9c1,0.9,2,2.5,2.9,2.5C204.4,578.2,205.5,576.8,207.5,575.3z M203.4,520.8c1.3-2,2.8-3.3,2.5-4.2
			c-0.3-1.2-1.9-2-2.9-2.9c-0.9,1-2.5,2-2.5,2.9C200.5,517.8,202,518.9,203.4,520.8z M247,634.2c-2.1-1.3-3.4-2.7-4.2-2.5
			c-1.2,0.3-2.5,1.8-2.7,2.9c-0.1,0.7,1.7,2.5,2.6,2.5C243.9,637.2,245,635.7,247,634.2z M203.4,561.6c-1.5,2-2.9,3-2.9,4.2
			c0,0.9,1.8,2.7,2.4,2.6c1.2-0.2,2.6-1.5,3-2.6C206.2,564.9,204.7,563.6,203.4,561.6z M424.2,516.9c-2-1.6-3.1-3-4.2-3.1
			c-1,0-2,1.6-3,2.4c0.9,1,1.7,2.6,2.8,2.9C420.7,519.5,422,518.2,424.2,516.9z M340.9,610.2c-1.3,2.3-2.6,3.5-2.5,4.7
			c0.1,1,1.9,1.8,2.9,2.7c0.9-1.1,2.3-2.1,2.5-3.3C343.9,613.4,342.4,612.3,340.9,610.2z M374.7,624.6c-1.8-1.4-3-3-4-2.9
			c-1.1,0.1-2.7,1.9-2.7,3c0,1,1.8,2.5,3,2.7C371.8,627.5,373,625.9,374.7,624.6z M365,614.6c-2-1.4-3.3-2.9-4.1-2.7
			c-1.1,0.3-2.5,1.8-2.7,3c-0.1,0.7,1.7,2.6,2.6,2.6C361.9,617.4,363,616,365,614.6z M158.4,526.2c-2.1-1.3-3.4-2.6-4.6-2.6
			c-0.9,0.1-2.6,2.1-2.4,2.8c0.3,1.2,1.9,2.5,3.1,2.7C155.3,529.2,156.4,527.7,158.4,526.2z M207.4,556.1c-1.9-1.5-3.1-3.1-3.9-2.9
			c-1.2,0.2-2.6,1.7-2.9,2.9c-0.2,0.6,1.6,2.6,2.6,2.6C204.2,558.8,205.4,557.4,207.4,556.1z M197.5,556.2c-1.9-1.5-3-3.1-3.9-2.9
			c-1.2,0.2-2.6,1.6-2.9,2.7c-0.2,0.7,1.5,2.7,2.4,2.7C194.3,558.8,195.5,557.4,197.5,556.2z M420.7,562.4c-0.5,0-1,0-1.5,0
			c-0.8,1.2-2.1,2.3-2.1,3.5c0,0.9,1.7,2.4,2.7,2.5c0.9,0,2.6-1.4,2.7-2.4C422.7,564.9,421.4,563.6,420.7,562.4z M454.9,526.6
			c2.1,1.3,3.3,2.6,4.3,2.5c1.1-0.1,2.9-1.9,2.8-2.5c-0.3-1.2-1.7-2.9-2.7-3C458.2,523.5,457,525.1,454.9,526.6z M168.1,536
			c-2-1.3-3.3-2.8-4.1-2.6c-1.2,0.4-2.5,1.8-2.7,3c-0.1,0.7,1.7,2.6,2.7,2.5C165.1,539,166.2,537.5,168.1,536z M187.8,546.4
			c-1.9-1.5-3-3.1-3.9-2.9c-1.2,0.2-2.7,1.6-3,2.7c-0.2,0.7,1.5,2.7,2.5,2.8C184.5,549,185.8,547.6,187.8,546.4z M193.4,531.9
			c-1.4,2.1-2.7,3.3-2.7,4.4c0,1,1.6,1.9,2.5,2.9c1-1,2.6-1.9,2.8-3C196.2,535.3,194.8,534,193.4,531.9z M449.2,540.5
			c1.5-1.9,3.1-3,3-3.9c-0.2-1.2-1.7-2.2-2.7-3.3c-1,0.9-2.7,1.8-2.8,2.7C446.7,537.2,448,538.4,449.2,540.5z M164.1,550.6
			c1.3-2.3,2.6-3.6,2.5-4.7c-0.1-0.9-1.9-2.4-2.9-2.3c-0.9,0.1-2.3,1.8-2.4,2.8C161.2,547.3,162.6,548.4,164.1,550.6z M173.9,542
			c-1.4,1.8-2.9,2.9-2.8,3.8c0.2,1.2,1.6,2.2,2.6,3.3c1-1,2.5-1.9,2.7-3.1C176.6,545.1,175.2,543.9,173.9,542z M197.5,545.8
			c-2-1.2-3.3-2.6-4.2-2.4c-1.1,0.3-2.4,1.9-2.6,3c-0.1,0.7,1.8,2.5,2.7,2.4C194.6,548.8,195.6,547.3,197.5,545.8z M424.1,546.1
			c-2-1.4-3.3-2.8-4.1-2.6c-1.2,0.3-2.6,1.8-2.8,2.9c-0.1,0.7,1.7,2.6,2.7,2.6C421,549,422.1,547.5,424.1,546.1z M414.4,556
			c-2-1.5-3.2-3-4-2.8c-1.2,0.3-2.6,1.6-2.9,2.8c-0.2,0.6,1.6,2.6,2.5,2.6C411.1,558.7,412.3,557.4,414.4,556z M463.5,516.6
			c-2-1.4-3.2-2.8-4.3-2.8c-1,0-1.9,1.7-2.9,2.7c1,1,1.9,2.6,3.1,2.8C460.3,519.5,461.5,518,463.5,516.6z M350.7,610.3
			c-1.3,2.3-2.6,3.6-2.5,4.7c0.1,1,1.8,1.8,2.8,2.6c0.9-1.1,2.3-2.1,2.5-3.2C353.7,613.5,352.2,612.3,350.7,610.3z M193.4,569.9
			c1.3-2,2.7-3.1,2.6-4.1c-0.1-1-1.6-1.9-2.5-2.9c-1,1-2.5,1.9-2.8,3C190.5,566.7,192,568,193.4,569.9z M410.1,512.5
			c-1.3,1.9-2.8,3-2.7,4.1c0.1,1,1.7,1.9,2.6,2.9c1-1,2.5-1.9,2.8-3C413,515.5,411.5,514.3,410.1,512.5z M217.5,565.5
			c-2.2-1.3-3.5-2.6-4.4-2.4c-1.1,0.3-2,1.8-2.9,2.8c1,0.9,2,2.4,3,2.4C214.3,568.3,215.4,567,217.5,565.5z M410.1,570.2
			c1.4-2.4,2.7-3.6,2.7-4.7c-0.1-0.9-1.7-2.5-2.6-2.5c-1,0-2.7,1.5-2.8,2.4C407.3,566.7,408.7,567.9,410.1,570.2z M193.2,512.3
			c-1.3,2.1-2.6,3.3-2.5,4.5c0,0.9,1.7,1.8,2.7,2.7c1-1,2.5-1.9,2.7-3.1C196.2,515.5,194.7,514.4,193.2,512.3z M341.5,599.1
			c1.2-2,2.5-3.2,2.3-4.2c-0.2-1-1.7-1.9-2.6-2.8c-1,1-2.5,2-2.7,3.2C338.3,596.2,339.9,597.3,341.5,599.1z M158.3,516.7
			c-2-1.4-3.2-2.8-4.3-2.8c-0.9,0-1.9,1.7-2.9,2.6c1,1,1.9,2.6,3,2.8C155,519.5,156.3,518,158.3,516.7z M342,601.5
			c-0.5,0-1,0-1.5-0.1c-0.8,1.2-2.1,2.4-2.1,3.5c0,0.9,1.6,2.5,2.6,2.6c0.9,0.1,2.6-1.5,2.7-2.4C343.9,604,342.7,602.7,342,601.5z
			 M443.7,546.4c-1.8-1.5-3-3-3.8-2.9c-1.2,0.2-2.6,1.6-2.9,2.7c-0.2,0.7,1.5,2.7,2.4,2.7C440.5,548.9,441.7,547.6,443.7,546.4z
			 M257,594.8c-2.4-1.3-3.7-2.5-4.8-2.4c-0.9,0.1-2.3,1.9-2.3,2.8c0.1,0.9,1.7,2.3,2.8,2.3C253.7,597.7,254.8,596.3,257,594.8z
			 M350.8,590.6c-1.3,2.3-2.6,3.5-2.5,4.7c0.1,0.9,1.8,2.3,2.8,2.3c0.9,0,2.3-1.6,2.4-2.6C353.6,593.9,352.3,592.8,350.8,590.6z
			 M350.7,600.5c-1.3,2.2-2.5,3.5-2.5,4.6c0.1,0.9,1.8,1.7,2.8,2.6c0.9-1.1,2.4-2,2.5-3.2C353.7,603.6,352.2,602.5,350.7,600.5z"/>
		<path d="M249.7,153.1c-5.9-4-11.1-7.7-16.5-11.1c-11.3-7.1-23.8-9.4-37-8.8c-39.4,1.8-68.2,34-67.2,73.6
			c0.8,31.1,0.2,62.2,0.3,93.4c0,2.7,0,5.3,0,8.4c4.2-0.6,8-1.3,11.8-1.7c18.3-2.1,36.2,0.7,53.7,5.3c13,3.5,25.8,8.1,38.3,13.3
			c9.6,4,18.5,9.6,27.6,14.7c23.3,13.2,47.2,16,71.8,3.7c9.8-4.9,19.2-10.7,29.3-15c27.5-11.8,56-20,86.1-21.5
			c6.7-0.3,13.4,0.2,20,1c3.8,0.5,4.6-0.6,4.5-4.1c-0.1-29.6,0-59.3,0-88.9c0-1.6,0-3.2,0.1-4.8c1.6-28-8.7-50.5-32-66.1
			c-19.1-12.8-40.2-14.6-62-7.3c-8.5,2.8-15.9,7.4-22.7,13.3c-0.2,0.2-0.7,0.2-1.5,0.4c1.7-4.8,3.2-9.3,4.9-13.7
			c7.2-18.9,14.4-37.7,21.7-56.6c1.9-4.9,3.5-9.9,5.6-14.6c0.6-1.3,2.7-2.5,4.2-2.5c4-0.1,8.1,0.3,12,1c1.4,0.3,3.2,1.8,3.7,3.2
			c3,8.7,6.1,10.9,15.5,11.9c15.4,1.6,29.7,6.1,40.7,17.7c6.2,6.5,9.8,14.4,10.7,23.3c0.3,3.3,1.3,4.8,4.9,4.4
			c2.9-0.3,5.9,0,8.8-0.1c2.1-0.1,2.8,0.8,2.8,2.9c-0.1,3.9,0,7.8,0,11.7c0,56.7,0,113.5-0.1,170.2c0,4.4,1.5,7,4.7,9.8
			c8.5,7.1,11.8,16.9,12.4,27.7c0.9,15.8-2.5,31-8.5,45.5c-4.5,10.8-9.8,21.5-16.2,31.2c-4.8,7.2-11.5,13.4-18.2,19
			c-11.1,9.2-23.6,16.1-37.6,20.2c-13.8,4-27.6,4.7-41.6,0.3c-15.1-4.7-27.3-13.7-37-25.8c-7-8.7-12.6-18.6-18.8-27.9
			c-8.4-12.7-21.1-21.4-37.5-15.8c-10.2,3.5-16.6,11.3-21.6,20.5c-8.8,16-19.7,30.3-35.2,40.5c-18,11.8-37.4,14.5-58.1,8.6
			c-17.8-5.1-33.3-14.2-46.3-27.1c-22-21.8-32.2-49.2-35.3-79.4c-1.3-13.1,1.1-26.2,11.5-35.5c4.9-4.4,5.1-9,5.1-14.5
			c0-58.6,0-117.2-0.1-175.8c0-1.9,0-3.7,0-6.2c4.9,0,9.4-0.1,13.9,0c2.7,0.1,4-0.6,4.3-3.7c1.6-15.3,9.8-26.2,23.2-33.5
			c9.5-5.1,19.7-7.6,30.4-8.4c6.7-0.5,10.6-3.3,12.5-10c1-3.6,2.7-5.4,6.6-5.3c3.1,0.1,6.2-0.2,9.2-0.7c3.1-0.6,4.3,0.9,5.3,3.5
			c7,18.8,14.1,37.6,21.3,56.4C241.8,133,245.7,142.8,249.7,153.1z"/>
		<path d="M222.1,54.4c10.6-1.1,20.6-2.1,30.7-3.1c1.6-0.2,3.2-0.2,4.8-0.3c6-0.4,5.9-0.4,6.8,5.3c4.4,27.2,8.9,54.5,13.4,81.7
			c3.1,19.3,6.2,38.6,9.4,57.9c0.2,1.3,0.5,2.5,0.8,3.8c0.4,0,0.8,0,1.1-0.1c0-1,0.1-2,0-3c-2.5-22.9-4.9-45.8-7.5-68.7
			c-3.1-28.1-6.3-56.1-9.6-84.2c-0.4-3.1,0.8-4.9,3.4-6c17.6-7,35.3-7,52.8,0.5c1.3,0.5,2.7,2.8,2.6,4.2c-0.6,8.8-1.5,17.6-2.4,26.4
			c-0.9,8.8-2.1,17.5-3.1,26.3c-1.3,11.2-2.6,22.3-3.9,33.5c-1,8.9-1.8,17.8-2.8,26.7c-1.3,11.3-2.6,22.6-3.9,33.9
			c-0.4,3.4-0.7,6.9-0.2,10.7c0.4-1.3,1-2.6,1.2-3.9c3.5-21.6,6.9-43.1,10.4-64.7c4.2-25.7,8.4-51.3,12.6-76.9
			c0.3-1.8,0.2-3.6,2.8-3.4c12.9,1.1,25.8,2.2,39.3,3.4c-2.5,8.5-4.7,16-7.1,23.5c-4.1,13.3-8.3,26.6-12.4,39.8
			c-3.9,12.4-7.4,24.9-11.7,37.1c-1.5,4.2-4.7,7.7-7.2,11.5c-6.3,9.5-9.7,20-10.4,31.3c-0.3,4.1-1.7,5-5.5,5
			c-6.8,0.1-13.5,1.3-20.3,1.4c-5,0.1-10-0.8-15.1-1.1c-5.3-0.3-10.7-0.4-16-0.5c-6.6-0.1-5.7,0.5-6.2-5.7
			c-0.9-11.5-5.1-21.8-10.9-31.6c-2.7-4.5-5.1-9.4-6.7-14.5c-4.2-12.7-7.7-25.6-11.7-38.4c-5.5-17.8-11.1-35.5-16.7-53.3
			C222.8,57.7,222.6,56.5,222.1,54.4z"/>
		<path d="M125.3,515.2c3.7,3.1,7.5,6.1,11.1,9.3c0.6,0.5,0.6,1.8,1.2,2.5c2.2,2.2,4.5,4.2,6.8,6.3c1,0.9,2.4,1.8,2.7,3
			c1,4,2.9,6.7,7.3,7.3c1,0.1,2.3,1.8,2.5,2.9c0.6,4.6,2.3,6.2,6.7,6.7c1.1,0.1,2.9,2.1,3,3.2c0.2,5.2,1.8,7,6.7,6.6
			c2.6-0.2,4.3,1.6,3,4.1c-1.6,3,0.7,4.3,2.1,5.7c0.7,0.7,2.6,0.1,3.9,0.3c1.3,0.2,3.6,0.5,3.7,1.1c0.4,1.5-0.3,3.3-0.5,5
			c-0.4,0.1-0.7,0.1-1.1,0.2c1.7,1.8,3.3,3.7,5,5.5c0.1-0.5,0.2-1,0.4-1.5c1.9,0,3.9,0,5.8,0c-0.2,1.9-0.4,3.9-0.5,5.8
			c-0.5,0.1-0.9,0.2-1.4,0.3c1.8,2.1,3.7,4.1,5,5.6c2.2-1,4-1.9,5.8-2.5c0.3-0.1,1.8,1.8,1.6,2.3c-0.7,1.5-1.9,2.7-3.2,4.6
			c2.6,3,5.7,6.8,9.1,10.3c4.2,4.4,8.8,8.4,13,12.8c1.3,1.4,1.7,3.9,3.2,5c4.4,3.4,8,7.4,11.1,12c2,2.9,8.6,3.6,11.9,2.3
			c1-0.4,2.6-0.5,3.4,0.1c2.1,1.7,3.9,1.7,6.1,0.2c0.9-0.6,2.7-0.2,4,0c1,0.2,2.3,1.5,2.8,1.2c3.5-2.3,6.8-1.8,10.2-0.1
			c0.5,0.2,1.5-0.9,2.4-1.1c1.2-0.3,2.7-0.7,3.7-0.3c5.1,2,6.6,1.5,8.8-3.1c-1.3-1.9-2.6-3.3-3.3-5c-0.1-0.3,1.8-2.3,2.3-2.1
			c1.7,0.7,3.2,2,5.4,3.5c0.3-0.3,1.4-1.3,2.4-2.4c2-2,4.6-1.6,5.6,0.8c1.1,2.8,2.3,5.5,3,7.3c3,0.8,5.1,2,7,1.8
			c4.6-0.5,9.1,0.2,13.6-0.2c2.1-0.2,3.9-0.2,6,0c4.4,0.4,9,0,13.6,0c2,0,3.6-1.2,6,0.1c3.6,2.1,6.4-1.1,8.5-3.3
			c5.1-5,9.7-10.5,14.6-15.9c1.4-1.6,2.8-3.1,4.4-4.8c-1.9-1.8-6.1-2.7-2.9-6c2.8-2.9,4.3,0.5,6,2.6c2.1-2.3,4-4.3,6-6.5
			c-2-1.8-5-3.6-1.9-6c1-0.8,3.6,0.5,5.5,0.9c0,0.4,0,0.8-0.1,1.1c1.8-2,3.6-3.9,4.5-4.9c-0.2-3-0.3-4.9-0.5-6.8
			c1.9-0.1,3.9-0.2,6.7-0.3c1.4-1.5,4.8-2.8,2.6-7.3c-1-2.1,1.4-3.4,3.9-2.8c3.3,0.8,6.6-2.4,5.9-5.8c-0.6-2.9,0.5-4,3.2-4.1
			c3.5,0,6.4-2.7,6.4-6.2c0-2.3,0.8-3.5,3.1-3.7c3.8-0.4,5.5-3,6.7-6.3c0.5-1.3,1.6-2.4,2.6-3.5c2.2-2.3,4.6-4.5,6.8-6.8
			c0.4-0.4,0.4-1.3,0.9-1.8c4-4,8.2-7.8,12.2-11.8c3.8-3.9,7.4-8,10.5-11.4c-1.4-2.1-2.6-3.7-3.4-5.4c-0.1-0.3,1.9-2.2,2.4-2
			c1.5,0.5,2.8,1.8,4.6,3c0.4-0.4,1.5-1.4,2.6-2.3c0.3,0.1,0.6,0.3,0.9,0.4c-0.5,1.5-0.6,3.2-1.4,4.5c-9.1,13.2-18.3,26.4-27.5,39.6
			c-10.2,14.6-20.5,29.1-30.8,43.6c-8.5,12-17,24-25.5,36.1c-6.8,9.6-13.6,19.2-20.2,29c-2.7,4-5.5,5.8-10.7,5.7
			c-41.2-0.3-82.4-0.2-123.5-0.1c-2.9,0-4.3-1.1-5.8-3.2c-16.3-23.2-32.7-46.4-49-69.6c-13.2-18.8-26.4-37.7-39.6-56.6
			c-5.3-7.6-10.8-15-16-22.6c-1.2-1.8-1.7-4-2.6-6C124.7,515.3,125,515.2,125.3,515.2z"/>
		<path d="M301.4,573.2c9.5,0,19,0.1,28.5-0.1c3,0,4.4,0.7,4.2,4c-0.2,5.6,0.2,11.2,0.1,16.9c0,1.2-0.9,2.8-1.9,3.4
			c-0.7,0.4-2.5-0.2-3.4-0.9c-1.8-1.5-3.1-2-5.1,0c-0.8,0.8-3.5,0.9-4.4,0.2c-2.1-1.6-3.3-2-5.5-0.1c-0.9,0.8-3.5,0.7-4.5,0
			c-2-1.4-3.4-1.9-5.2-0.1c-1.8,1.8-3.4,1.2-5.3,0c-1.1-0.7-3.3-0.6-4.3,0c-2,1.3-3.6,1.8-5.3-0.1c-1.6-1.7-2.9-1.4-4.8,0
			c-1.1,0.8-3.8,0.9-4.7,0.1c-2-1.7-3.3-1.6-5.2-0.1c-0.9,0.7-2.7,1.4-3.4,0.9c-1-0.6-1.9-2.2-1.9-3.4c-0.2-5.9,0-11.8-0.1-17.7
			c-0.1-2.5,1-3.2,3.3-3.2C282.1,573.3,291.8,573.2,301.4,573.2z"/>
		<path d="M264.2,491.9c7.4,5.2,14.7,10.5,22.3,15.4c2.6,1.7,6.1,2.3,9.2,2.9c11.1,2,20.2-2,28.5-9.3c4-3.5,8.8-6.1,13.9-8.4
			c-3.4,5-6.8,10.1-10.2,15.1c-4.3,6.3-8.6,12.6-12.9,18.9c-1.5,2.3-3.1,3.7-6.1,3.6c-5.6-0.3-11.2,0-16.9-0.2
			c-1.4,0-3.4-0.6-4.1-1.6c-8.3-11.8-16.4-23.7-24.6-35.5C263.7,492.5,264,492.2,264.2,491.9z"/>
		<path d="M225.5,546c1.5,0.1,3.4-0.4,4.4,0.4c8,6,17.2,6.3,26.5,5.5c8.1-0.7,16.2-1.9,24.4-2.8c6.6-0.7,12.8,0.1,18.4,4
			c1.1,0.8,3.7,0.6,4.9-0.2c5.6-3.5,11.6-4.6,18.1-3.8c7.9,0.9,15.7,1.9,23.6,2.7c9.9,1,19.5,0.8,28-5.6c0.8-0.6,2.7,0.2,4.1,0.3
			c0.1,0.7,0.2,1.4,0.2,2.1c-6.6,2.4-13.1,5.5-19.9,7c-5.5,1.3-11.5,1-17.2,0.8c-12.7-0.4-25.5-1-37.9,2.8c-1.1,0.3-2.4,0.2-3.5-0.1
			c-11-3.3-22.2-3-33.5-2.9c-8.1,0.1-16.4-0.1-24.4-1.2c-4.3-0.6-8.2-3.5-12.3-5.4c-1.3-0.6-2.5-1.3-3.8-2
			C225.5,547,225.5,546.5,225.5,546z"/>
		<path d="M490,469.4c-9-0.2-14.1-6.2-14.6-14.4c-0.5-7.7,7-14.9,14.8-14.8c7.9,0.1,14.6,6.8,14.7,14.6
			C504.8,463,498.3,469.4,490,469.4z M481.9,454.7c-0.1,4.8,3.2,8.2,7.9,8.4c4.8,0.1,8.4-3.4,8.4-8.3c0-4.7-3.4-8.1-8.1-8.1
			C485.2,446.7,482,449.9,481.9,454.7z"/>
		<path d="M266.6,624.7c-2.1,1.3-3.3,2.7-4.5,2.7c-0.9,0-2.6-2-2.4-2.8c0.2-1.2,1.7-2.8,2.8-2.9
			C263.5,621.6,264.7,623.2,266.6,624.7z"/>
		<path d="M296.4,605.2c-2.3,1.2-3.7,2.5-4.8,2.3c-1-0.2-1.8-2-2.7-3.1c1-0.8,2.1-2.4,3.1-2.3C293.2,602.3,294.3,603.7,296.4,605.2z
			"/>
		<path d="M340.9,629.2c-1.3-2.4-2.7-3.8-2.4-4.9c0.2-1.1,2-1.9,3.1-2.8c0.8,1,2.3,2.1,2.3,3.1C343.8,625.8,342.5,626.9,340.9,629.2
			z"/>
		<path d="M390.2,530.8c-1.3-2.2-2.7-3.5-2.5-4.6c0.2-1.1,1.9-2.4,3.1-2.6c0.7-0.1,2.4,1.9,2.4,2.8
			C393.1,527.7,391.7,528.8,390.2,530.8z"/>
		<path d="M183.4,512.1c1.6,2.3,3,3.4,3,4.6c0,0.9-1.7,2.6-2.6,2.6c-1,0-2.8-1.4-2.9-2.4C180.7,515.8,182,514.5,183.4,512.1z"/>
		<path d="M316.1,614.6c-2.2,1.5-3.4,3-4.6,2.9c-1,0-2-1.7-3.1-2.6c1-1.1,1.9-2.8,3-3C312.5,611.7,313.9,613.2,316.1,614.6z"/>
		<path d="M390.2,589.6c-1.3-2.2-2.6-3.4-2.5-4.6c0.1-1,1.9-2.7,2.7-2.5c1.2,0.3,2.7,1.7,2.9,2.8
			C393.3,586.4,391.7,587.6,390.2,589.6z"/>
		<path d="M355,624.7c-1.9,1.4-3.2,2.9-4,2.7c-1.2-0.4-2.6-1.8-2.7-3c-0.1-0.8,1.7-2.7,2.6-2.7C352,621.7,353.1,623.2,355,624.7z"/>
		<path d="M395,575.5c-2.4,1.5-3.7,3-4.7,2.8c-1.1-0.2-2-1.9-2.9-2.9c1-0.9,1.9-2.4,3-2.4C391.5,572.8,392.7,574.1,395,575.5z"/>
		<path d="M183.2,531c-1.2-2.4-2.4-3.7-2.3-4.9c0.1-1,1.7-1.8,2.7-2.7c1,1,2.6,2,2.7,3.2C186.4,527.6,184.9,528.7,183.2,531z"/>
		<path d="M316,624.4c-2.1,1.5-3.4,3.1-4.4,2.9c-1.2-0.2-2.6-1.8-2.9-3c-0.2-0.7,1.7-2.6,2.7-2.7C312.5,621.6,313.8,623,316,624.4z"
			/>
		<path d="M276.1,624.3c-1.7,1.5-2.9,3.2-3.8,3.1c-1.1-0.1-2.8-1.8-2.8-2.8c0-1,1.6-2.6,2.8-2.9C273.1,621.4,274.3,623,276.1,624.3z
			"/>
		<path d="M360.7,619.8c1.5,2.4,2.8,3.6,2.7,4.8c0,1-1.6,2-2.5,2.9c-1-1-2.7-1.8-2.9-2.9C358,623.5,359.3,622.2,360.7,619.8z"/>
		<path d="M390.2,531.8c1.5,2.2,3,3.4,2.9,4.4c-0.1,1.1-1.7,2.6-2.9,2.9c-0.7,0.2-2.6-1.6-2.7-2.6
			C387.5,535.3,388.9,534.1,390.2,531.8z"/>
		<path d="M148.4,526.3c-1.8,1.5-3,3-3.9,2.9c-1.2-0.2-2.3-1.7-3.4-2.6c1-1.1,1.9-2.8,3-3C145.2,523.5,146.5,525,148.4,526.3z"/>
		<path d="M237.2,604.8c-2.1,1.4-3.3,2.9-4.2,2.8c-1.2-0.3-2.2-1.8-3.3-2.7c1-1,1.9-2.6,2.9-2.7
			C233.8,602.1,235.1,603.5,237.2,604.8z"/>
		<path d="M183.6,540.8c-1.5-2.3-2.8-3.4-2.8-4.6c0-1,1.8-2.9,2.4-2.8c1.2,0.3,2.9,1.6,3.1,2.6C186.5,537.1,185.1,538.5,183.6,540.8
			z"/>
		<path d="M183.4,551.5c1.5,2.2,3.1,3.4,3,4.4c-0.1,1.1-1.7,2.5-2.9,2.8c-0.7,0.2-2.6-1.6-2.6-2.6
			C180.8,555,182.1,553.8,183.4,551.5z"/>
		<path d="M238.5,624.3c2.2-1.4,3.5-2.9,4.5-2.7c1.1,0.2,2.3,2,2.4,3.2c0.1,0.8-1.7,2.5-2.7,2.5
			C241.6,627.3,240.5,625.9,238.5,624.3z"/>
		<path d="M306.1,614.7c-2,1.4-3.3,2.8-4.5,2.8c-1,0-2.9-1.9-2.7-2.6c0.3-1.2,1.7-2.9,2.9-3C302.8,611.8,304.1,613.3,306.1,614.7z"
			/>
		<path d="M430.4,522.9c0.7,1.2,2.1,2.4,2,3.6c0,1-1.6,2.7-2.6,2.7c-0.9,0-2.6-1.5-2.7-2.5c-0.1-1.2,1.1-2.5,1.8-3.8
			C429.4,522.9,429.9,522.9,430.4,522.9z"/>
		<path d="M390.7,560.1c-1.4-1.7-3.1-2.8-3-3.7c0.2-1.2,1.6-2.3,2.5-3.4c1.1,1,2.7,1.9,3,3.1C393.4,556.9,391.9,558.2,390.7,560.1z"
			/>
		<path d="M232.8,610.3c1.4,2.1,3,3.4,2.8,4.4c-0.2,1.1-1.8,2.6-3,2.8c-0.8,0.1-2.7-1.7-2.7-2.6
			C229.9,613.7,231.3,612.5,232.8,610.3z"/>
		<path d="M374.7,614.5c-1.7,1.5-2.8,3.2-3.7,3.1c-1.2-0.1-2.2-1.6-3.3-2.6c0.9-1.1,1.8-2.9,2.8-3
			C371.6,611.8,372.9,613.3,374.7,614.5z"/>
		<path d="M316,634.4c-2.1,1.4-3.4,2.9-4.4,2.7c-1.2-0.2-2.1-1.8-3.1-2.8c1.1-0.9,2.1-2.3,3.4-2.5C312.8,631.6,313.9,633,316,634.4z
			"/>
		<path d="M419.9,521.7c1.4,2.3,2.7,3.5,2.7,4.7c0,1-1.5,2-2.3,3c-1.1-0.9-2.9-1.7-3-2.8C417,525.5,418.4,524.1,419.9,521.7z"/>
		<path d="M390.1,561.6c1.6,1.8,3.2,3,3.1,3.8c-0.2,1.2-1.5,2.6-2.7,3c-0.7,0.2-2.7-1.4-2.8-2.3C387.6,565,388.9,563.7,390.1,561.6z
			"/>
		<path d="M443.8,516.7c-2,1.4-3.3,2.8-4.1,2.6c-1.2-0.3-2-1.8-3-2.8c0.9-0.9,1.9-2.6,2.8-2.6C440.6,513.9,441.8,515.3,443.8,516.7z
			"/>
		<path d="M216.6,576c-1.2,0.8-2.3,2.2-3.5,2.3c-1,0-2.6-1.5-2.8-2.5c-0.1-0.9,1.4-2.7,2.4-2.8c1.2-0.2,2.5,1,3.8,1.6
			C216.5,575,216.6,575.5,216.6,576z"/>
		<path d="M370.8,600.6c1.4,2.1,2.9,3.5,2.7,4.5c-0.2,1.1-2,2.4-3.2,2.5c-0.8,0.1-2.5-1.8-2.5-2.7
			C367.9,603.7,369.3,602.6,370.8,600.6z"/>
		<path d="M178,526.6c-2.1,1.3-3.4,2.8-4.2,2.5c-1.1-0.3-2.5-1.9-2.6-3c-0.1-0.8,1.8-2.6,2.7-2.5C174.9,523.6,176,525.1,178,526.6z"
			/>
		<path d="M331.4,629c-1.4-2.2-2.9-3.4-2.7-4.3c0.3-1.2,1.7-2.2,2.7-3.3c0.9,1,2.6,1.9,2.6,2.9C334.1,625.5,332.8,626.8,331.4,629z"
			/>
		<path d="M174.4,532.8c0.8,1.1,2.2,2.4,2.1,3.4c-0.1,1.1-1.8,2-2.7,3c-0.9-0.9-2.5-1.8-2.6-2.8c-0.1-1.1,1.2-2.4,1.8-3.6
			C173.4,532.8,173.9,532.8,174.4,532.8z"/>
		<path d="M207.7,585c-2.2,1.6-3.3,3-4.4,3c-1,0-2.9-1.6-2.8-2.3c0.2-1.2,1.4-2.9,2.5-3.2C203.9,582.3,205.3,583.7,207.7,585z"/>
		<path d="M178,555.9c-1.9,1.5-3.2,3.1-4,2.9c-1.2-0.3-2.7-1.7-2.9-2.8c-0.2-0.8,1.6-2.7,2.5-2.8C174.7,553.1,175.9,554.5,178,555.9
			z"/>
		<path d="M390.1,520.5c-1.2-1.7-2.8-3-2.6-3.8c0.3-1.2,1.9-2,3-3c0.9,1.1,2.5,2.1,2.6,3.3C393.3,517.8,391.6,518.9,390.1,520.5z"/>
		<path d="M213.1,531.8c1.4,2.2,3,3.5,2.8,4.5c-0.2,1.1-1.9,2.5-3.1,2.7c-0.7,0.1-2.5-1.8-2.5-2.8
			C210.3,535.2,211.7,534,213.1,531.8z"/>
		<path d="M276.1,614.7c-1.8,1.4-3,3-3.8,2.8c-1.2-0.3-2.1-1.9-3.2-2.9c1.1-1,2-2.5,3.2-2.7C273.2,611.7,274.4,613.3,276.1,614.7z"
			/>
		<path d="M138.6,516.6c-2,1.4-3.2,2.9-4.1,2.7c-1.2-0.2-2.1-1.8-3.1-2.8c1-0.9,1.9-2.6,2.9-2.6
			C135.5,513.9,136.7,515.3,138.6,516.6z"/>
		<path d="M291.9,618.7c-1.4-1.7-3-2.9-2.8-3.8c0.2-1.2,1.7-2.2,2.6-3.3c1.1,1,2.9,1.8,3.1,3C295,615.6,293.3,616.9,291.9,618.7z"/>
		<path d="M282.6,621c0.8,1.2,2.1,2.4,2.1,3.5c0,1-1.6,2.7-2.5,2.7c-0.9,0.1-2.7-1.4-2.8-2.4c-0.1-1.2,1.1-2.5,1.7-3.7
			C281.6,621.1,282.1,621.1,282.6,621z"/>
		<path d="M296.2,624.3c-1.9,1.5-3,2.9-4.3,3.1c-0.9,0.1-2.9-1.6-2.8-2.4c0.1-1.2,1.5-3.1,2.5-3.2
			C292.8,621.5,294.1,623,296.2,624.3z"/>
		<path d="M301.8,628.8c-1.4-2-3-3.2-2.9-4.3c0.1-1.1,1.8-2.6,3-2.9c0.8-0.1,2.7,1.7,2.7,2.7C304.7,625.5,303.2,626.8,301.8,628.8z"
			/>
		<path d="M439.6,521.9c1.4,2.2,2.8,3.4,2.6,4.3c-0.2,1.2-1.7,2.1-2.7,3.1c-0.9-0.9-2.6-1.9-2.6-2.9
			C436.9,525.3,438.2,524.1,439.6,521.9z"/>
		<path d="M301.7,608.7c-1.3-1.6-3-2.8-2.8-3.6c0.3-1.2,1.9-2.1,2.9-3.2c1,1.1,2.6,2,2.8,3.2C304.8,605.9,303,607.1,301.7,608.7z"/>
		<path d="M430.5,532.8c0.7,1.2,2,2.5,1.9,3.6c-0.1,1-1.7,2.7-2.7,2.6c-1,0-2.6-1.6-2.7-2.6c-0.1-1.1,1.2-2.4,1.9-3.6
			C429.5,532.8,430,532.8,430.5,532.8z"/>
		<path d="M148.5,516.4c-2,1.5-3.2,3.1-4.1,2.9c-1.2-0.2-2.2-1.8-3.3-2.7c0.9-1,1.8-2.7,2.9-2.7
			C145.2,513.8,146.4,515.2,148.5,516.4z"/>
		<path d="M311.7,609c-1.5-1.9-3-3-3-4.2c0-0.9,1.9-2.7,2.8-2.6c1.1,0.1,2.7,1.6,2.9,2.8C314.6,605.8,313,607.1,311.7,609z"/>
		<path d="M243,609.2c-1.5-2.1-3.1-3.2-2.9-4.1c0.2-1.2,1.7-2.2,2.6-3.3c1,0.9,2.6,1.7,2.7,2.7C245.5,605.7,244.2,607,243,609.2z"/>
		<path d="M227.4,614.9c-2.2,1.3-3.4,2.6-4.6,2.6c-1,0-2.7-2-2.6-2.7c0.3-1.2,1.8-2.7,2.9-2.8C224.2,611.9,225.4,613.4,227.4,614.9z
			"/>
		<path d="M242.4,610.3c1.6,2,3.1,3.1,3,4c-0.1,1.2-1.6,2.2-2.5,3.3c-1-0.9-2.8-1.6-2.9-2.6C239.9,613.9,241.2,612.5,242.4,610.3z"
			/>
		<path d="M222.9,591c1.4,1.9,2.8,3,2.8,4.2c0,0.9-1.9,2.6-2.7,2.5c-1.1-0.2-2.6-1.6-2.9-2.7C220,594.1,221.5,592.9,222.9,591z"/>
		<path d="M262.3,618.8c-1.3-1.8-2.8-3-2.6-3.9c0.2-1.2,1.8-2.1,2.8-3.2c0.9,1.1,2.5,2.1,2.7,3.3
			C265.2,615.9,263.6,617.1,262.3,618.8z"/>
		<path d="M404.9,585.2c-2.2,1.5-3.4,2.8-4.5,2.8c-1,0-2.8-1.7-2.7-2.4c0.2-1.2,1.5-2.9,2.6-3.1
			C401.2,582.4,402.5,583.8,404.9,585.2z"/>
		<path d="M213.2,589.6c-1.5-2.1-3.1-3.3-3-4.3c0.2-1.1,1.7-2.5,2.9-2.8c0.7-0.2,2.6,1.6,2.6,2.6
			C215.9,586.2,214.6,587.4,213.2,589.6z"/>
		<path d="M252.7,628.8c-1.4-1.9-2.9-3-2.7-3.9c0.2-1.2,1.6-2.2,2.6-3.4c1,1,2.5,2,2.7,3.2C255.4,625.6,254,626.8,252.7,628.8z"/>
		<path d="M213.2,512.1c1.4,2.3,2.7,3.6,2.6,4.8c-0.1,0.9-1.9,2.4-2.9,2.4c-1,0-2.7-1.6-2.7-2.6
			C210.3,515.6,211.7,514.4,213.2,512.1z"/>
		<path d="M404.9,516.9c-2.5,1.3-3.8,2.6-5,2.4c-0.9-0.1-2.4-1.9-2.3-2.9c0.1-1,1.8-2.6,2.7-2.6
			C401.5,513.9,402.6,515.3,404.9,516.9z"/>
		<path d="M158.2,536.2c-1.9,1.4-3.1,3-4,2.8c-1.2-0.3-2.1-1.8-3.2-2.9c1-1,1.9-2.7,2.9-2.7C155.1,533.4,156.3,534.9,158.2,536.2z"
			/>
		<path d="M453.5,526.2c-1.8,1.5-2.9,3-3.8,2.9c-1.2-0.2-2.2-1.6-3.3-2.5c0.9-1.1,1.8-2.8,2.9-3
			C450.3,523.4,451.6,524.9,453.5,526.2z"/>
		<path d="M237.3,624.8c-2.3,1.4-3.6,2.7-4.7,2.6c-1-0.1-2.7-2-2.6-2.8c0.3-1.2,1.8-2.7,3-2.9C233.9,621.5,235.2,623.2,237.3,624.8z
			"/>
		<path d="M217.6,555.8c-2.1,1.5-3.4,3.1-4.4,3c-1.1-0.1-2.6-1.7-2.8-2.8c-0.2-0.8,1.6-2.6,2.5-2.7
			C214,553.1,215.3,554.4,217.6,555.8z"/>
		<path d="M252.9,638.8c-1.6-2.1-3.1-3.2-3-4.1c0.2-1.2,1.6-2.2,2.5-3.3c1,0.9,2.8,1.6,2.9,2.6C255.5,635.2,254.2,636.5,252.9,638.8
			z"/>
		<path d="M404.8,555.7c-2.2,1.6-3.4,3-4.6,3.1c-1,0-2.7-1.6-2.7-2.6c-0.1-1,1.4-2.9,2.3-3C401.1,553.1,402.4,554.4,404.8,555.7z"/>
		<path d="M400.4,530.6c-1.4-1.8-3-2.9-2.9-3.8c0.2-1.2,1.7-2.3,2.6-3.4c1.1,1,2.8,1.9,3,3C403.2,527.4,401.7,528.7,400.4,530.6z"/>
		<path d="M424.3,556.1c-2.3,1.4-3.6,2.8-4.6,2.6c-1.1-0.3-2.4-1.9-2.6-3.1c-0.1-0.7,1.8-2.4,2.8-2.4
			C421.1,553.2,422.2,554.6,424.3,556.1z"/>
		<path d="M429.9,560.5c-1.5-2.2-2.9-3.4-2.8-4.3c0.2-1.2,1.7-2.2,2.6-3.3c0.9,0.9,2.6,1.8,2.6,2.8
			C432.5,556.9,431.2,558.2,429.9,560.5z"/>
		<path d="M188,566c-2.2,1.2-3.5,2.4-4.6,2.3c-1-0.1-1.8-1.7-2.7-2.6c1.1-0.9,2-2.4,3.2-2.6C184.7,562.9,185.9,564.4,188,566z"/>
		<path d="M332,611.2c0.8,1.2,2.2,2.4,2.2,3.5c0,1-1.6,2.6-2.6,2.7c-0.9,0.1-2.7-1.5-2.8-2.5c-0.1-1.2,1.1-2.5,1.8-3.7
			C331,611.3,331.5,611.3,332,611.2z"/>
		<path d="M430.5,513.2c0.7,1.2,2,2.4,2,3.5c-0.1,1-1.7,2.5-2.7,2.5c-0.9,0-2.6-1.5-2.7-2.5c-0.1-1.2,1.2-2.4,2-3.6
			C429.5,513.2,430,513.2,430.5,513.2z"/>
		<path d="M217.5,526.2c-2.1,1.5-3.2,3-4.4,3c-1,0-2.9-1.7-2.8-2.5c0.2-1.2,1.5-2.9,2.6-3.1C213.9,523.4,215.3,524.9,217.5,526.2z"
			/>
		<path d="M168.1,526.5c-2,1.4-3.3,2.9-4.1,2.6c-1.1-0.3-2.5-1.9-2.6-3c-0.1-0.8,1.7-2.6,2.6-2.6C165.1,523.6,166.2,525,168.1,526.5
			z"/>
		<path d="M197.5,526.7c-2.1,1.2-3.3,2.5-4.5,2.4c-0.9-0.1-2.5-2.1-2.3-2.8c0.4-1.2,1.8-2.5,3-2.7
			C194.6,523.5,195.7,525.1,197.5,526.7z"/>
		<path d="M403.7,566.5c-1.2,0.7-2.4,1.9-3.6,1.9c-1-0.1-2.5-1.7-2.5-2.7c0-0.9,1.6-2.6,2.6-2.6c1.1-0.1,2.4,1.2,3.6,1.9
			C403.7,565.5,403.7,566,403.7,566.5z"/>
		<path d="M207.5,526.4c-2.1,1.4-3.2,2.9-4.4,2.8c-0.9,0-2.7-1.8-2.6-2.6c0.1-1.2,1.5-2.9,2.6-3.1
			C204.1,523.4,205.4,525,207.5,526.4z"/>
		<path d="M453.6,516.8c-1.9,1.2-3.1,2.6-4,2.5c-1.2-0.2-2.2-1.7-3.2-2.7c1.1-0.9,2.1-2.4,3.4-2.7
			C450.6,513.8,451.8,515.4,453.6,516.8z"/>
		<path d="M322.2,611.3c0.7,1.2,2.1,2.4,2,3.6c-0.1,1-1.7,2.6-2.7,2.6c-0.9,0-2.6-1.6-2.7-2.5c-0.1-1.2,1.2-2.4,1.9-3.6
			C321.2,611.3,321.7,611.3,322.2,611.3z"/>
		<path d="M414.4,526.2c-2,1.5-3.1,3.1-4,2.9c-1.2-0.2-2.6-1.6-2.9-2.7c-0.2-0.7,1.5-2.7,2.4-2.7C411,523.5,412.3,524.9,414.4,526.2
			z"/>
		<path d="M403.8,576.1c-1.2,0.8-2.4,2.2-3.5,2.1c-1,0-2.6-1.6-2.7-2.6c-0.1-0.9,1.5-2.6,2.5-2.7c1.1-0.1,2.5,1.1,3.7,1.7
			C403.7,575.1,403.7,575.6,403.8,576.1z"/>
		<path d="M286.2,614.7c-2,1.4-3.2,3-4.1,2.8c-1.2-0.3-2.5-1.8-2.7-2.9c-0.2-0.7,1.6-2.6,2.5-2.6
			C283.1,611.9,284.2,613.3,286.2,614.7z"/>
		<path d="M272.2,630c1.4,2.2,2.8,3.4,2.6,4.3c-0.3,1.2-1.8,2.1-2.8,3.1c-0.9-0.9-2.6-1.9-2.6-2.8
			C269.4,633.4,270.8,632.2,272.2,630z"/>
		<path d="M321.6,620.2c1.3,2.1,2.6,3.4,2.5,4.6c-0.1,1-1.7,1.9-2.6,2.8c-1-1.1-2.5-2-2.7-3.2C318.7,623.4,320.2,622.2,321.6,620.2z
			"/>
		<path d="M203.3,540.5c-1.4-2-2.8-3.1-2.8-4.3c0-1,1.6-1.9,2.5-2.9c1,1,2.6,1.9,2.8,3C206.1,537.2,204.6,538.5,203.3,540.5z"/>
		<path d="M429.9,550.5c-1.5-2.1-3-3.2-2.8-4.1c0.2-1.2,1.7-2.1,2.6-3.2c1,0.9,2.7,1.7,2.7,2.7C432.5,547.1,431.2,548.3,429.9,550.5
			z"/>
		<path d="M262.5,630.3c1.3,1.9,2.7,3.1,2.5,4c-0.3,1.2-1.8,2.1-2.8,3.1c-0.9-1.1-2.4-2.1-2.6-3.3
			C259.5,633.2,261.1,632.1,262.5,630.3z"/>
		<path d="M404.5,536.4c-2,1.3-3.3,2.7-4.4,2.7c-0.9,0-2.6-2-2.4-2.8c0.3-1.2,1.8-2.6,3-2.8C401.5,533.3,402.6,534.9,404.5,536.4z"
			/>
		<path d="M414.2,545.8c-1.8,1.5-2.9,3.2-3.7,3c-1.2-0.2-2.2-1.7-3.2-2.7c0.9-1,1.8-2.5,2.8-2.7
			C411.1,543.3,412.3,544.7,414.2,545.8z"/>
		<path d="M404.8,546.2c-2.3,1.5-3.6,2.8-4.8,2.8c-1,0-2.6-1.8-2.6-2.8c0-1,1.6-2.7,2.6-2.7C401.3,543.4,402.5,544.7,404.8,546.2z"
			/>
		<path d="M237.3,595.1c-2.2,1.3-3.5,2.6-4.6,2.5c-1-0.1-1.9-1.7-2.8-2.7c1.1-0.9,2.1-2.4,3.3-2.6
			C234,592.2,235.2,593.7,237.3,595.1z"/>
		<path d="M252.8,610.3c1.3,2.2,2.6,3.4,2.5,4.6c-0.1,0.9-1.8,1.8-2.8,2.7c-0.9-1.1-2.4-2-2.6-3.2
			C249.8,613.5,251.3,612.3,252.8,610.3z"/>
		<path d="M439.7,540.6c-1.3-2-2.7-3.2-2.7-4.4c0-1,1.6-1.9,2.5-2.9c1,1,2.6,1.9,2.8,3.1C442.4,537.3,441,538.5,439.7,540.6z"/>
		<path d="M266.5,595.1c-2,1.3-3.1,2.7-4.1,2.6c-1-0.1-1.9-1.6-2.9-2.5c1-1,1.9-2.5,3-2.8C263.4,592.2,264.6,593.7,266.5,595.1z"/>
		<path d="M174.7,513.3c0.6,1.2,1.9,2.5,1.7,3.7c-0.1,1-1.8,2.5-2.8,2.4c-1-0.1-2.5-1.7-2.6-2.7c0-1.1,1.3-2.3,2.1-3.5
			C173.7,513.2,174.2,513.3,174.7,513.3z"/>
		<path d="M217.3,546c-1.9,1.4-3,2.9-4.2,2.9c-0.9,0.1-2-1.6-3-2.5c1-1.1,1.8-2.7,3-3C214,543.2,215.3,544.7,217.3,546z"/>
		<path d="M331.1,630.3c1.5,1.7,3.1,2.8,3,3.6c-0.2,1.2-1.6,2.3-2.5,3.4c-1-1-2.6-1.8-2.9-3C328.4,633.5,329.8,632.2,331.1,630.3z"
			/>
		<path d="M331.5,609.1c-1.4-2-2.9-3.1-2.8-4c0.2-1.2,1.7-2.1,2.7-3.2c1,0.9,2.7,1.8,2.8,2.7C334.2,605.8,332.8,607,331.5,609.1z"/>
		<path d="M380.6,590.6c1.4,2.3,2.7,3.5,2.6,4.6c-0.1,0.9-1.8,2.4-2.8,2.4c-1,0-2.7-1.6-2.7-2.5C377.7,594,379.1,592.9,380.6,590.6z
			"/>
		<path d="M390.6,590.7c1.4,2.3,2.7,3.5,2.6,4.6c-0.1,0.9-1.8,2.4-2.8,2.3c-1,0-2.7-1.6-2.7-2.5C387.6,594,389,592.8,390.6,590.7z"
			/>
		<path d="M321.6,609.1c-1.4-2-2.9-3.2-2.8-4c0.2-1.2,1.7-2.1,2.7-3.1c0.9,0.9,2.6,1.8,2.6,2.7C324.2,605.8,322.9,607,321.6,609.1z"
			/>
		<path d="M227.2,605.2c-2.1,1.2-3.4,2.4-4.6,2.3c-1-0.1-1.8-1.8-2.7-2.8c1.1-0.9,2.2-2.4,3.4-2.5
			C224.2,602.1,225.4,603.7,227.2,605.2z"/>
		<path d="M345.5,634.5c-2.1,1.4-3.3,2.7-4.4,2.7c-1-0.1-1.9-1.7-2.8-2.7c1-1,2-2.5,3.2-2.7C342.2,631.5,343.4,633,345.5,634.5z"/>
		<path d="M203.4,550.4c-1.4-1.9-2.9-3-2.9-4.2c0-0.9,1.8-2.8,2.5-2.7c1.2,0.2,2.7,1.6,2.9,2.7C206.1,547.1,204.7,548.4,203.4,550.4
			z"/>
		<path d="M410.9,532.8c0.7,1.2,2,2.4,2,3.6c-0.1,1-1.7,2.7-2.6,2.7c-1,0-2.6-1.6-2.7-2.6c-0.1-1.2,1.2-2.4,1.9-3.7
			C409.8,532.8,410.4,532.8,410.9,532.8z"/>
		<path d="M262.6,600.5c1.3,2.2,2.6,3.5,2.5,4.6c-0.1,1-1.8,1.8-2.8,2.6c-0.9-1.1-2.4-2.1-2.6-3.2
			C259.5,603.6,261.1,602.5,262.6,600.5z"/>
		<path d="M276.2,604.9c-1.8,1.4-3,2.9-3.8,2.7c-1.2-0.3-2.1-1.8-3.2-2.7c1.1-1,2-2.4,3.2-2.7C273.2,602,274.4,603.5,276.2,604.9z"
			/>
		<path d="M286.2,604.7c-1.9,1.5-3.1,3-3.9,2.8c-1.1-0.2-2.6-1.6-2.8-2.7c-0.2-0.7,1.5-2.6,2.4-2.7
			C283,602.1,284.2,603.4,286.2,604.7z"/>
		<path d="M420.7,532.8c0.7,1.2,2,2.4,1.9,3.5c-0.1,1-1.6,2-2.5,2.9c-1.1-1-2.8-1.8-3-2.9c-0.2-1,1.3-2.3,2-3.5
			C419.7,532.8,420.2,532.8,420.7,532.8z"/>
		<path d="M390.4,542.2c1.3,1.7,2.9,2.9,2.7,3.7c-0.2,1.2-1.8,2.1-2.8,3.1c-1-1-2.6-2-2.8-3.1C387.5,545.1,389.1,543.9,390.4,542.2z
			"/>
		<path d="M257,605c-2.3,1.4-3.6,2.7-4.7,2.6c-0.9-0.1-2.5-1.8-2.4-2.8c0-1,1.6-2.6,2.5-2.7C253.6,602.1,254.8,603.5,257,605z"/>
		<path d="M213.1,609.1c-1.4-2-2.9-3.2-2.7-4.1c0.3-1.2,1.7-2.6,2.9-2.8c0.7-0.2,2.6,1.6,2.6,2.6C215.8,605.9,214.4,607,213.1,609.1
			z"/>
		<path d="M374.7,595.3c-1.9,1.2-3.1,2.5-4,2.3c-1.1-0.2-2-1.8-2.9-2.8c1.1-0.9,2.1-2.3,3.3-2.4C372,592.3,373,593.9,374.7,595.3z"
			/>
		<path d="M365.3,634.1c-2.3,1.6-3.4,3-4.5,3c-0.9,0-2.5-1.6-2.6-2.6c-0.1-0.9,1.3-2.7,2.2-2.8C361.5,631.6,362.8,632.8,365.3,634.1
			z"/>
		<path d="M351.1,630.3c1.2,1.9,2.6,3.1,2.4,4c-0.3,1.2-1.7,2.1-2.7,3.1c-0.9-1.1-2.4-2-2.6-3.2
			C348.1,633.3,349.6,632.1,351.1,630.3z"/>
		<path d="M360.4,609.3c-1.2-2.3-2.4-3.6-2.3-4.7c0.1-1,1.8-1.8,2.7-2.6c0.9,1.1,2.4,2.1,2.5,3.3C363.6,606.1,362,607.2,360.4,609.3
			z"/>
		<path d="M360.5,590.7c1.6,2,3.1,3.1,3,4c-0.2,1.2-1.6,2.1-2.5,3.2c-1-0.8-2.6-1.6-2.7-2.5C358.1,594.2,359.3,593,360.5,590.7z"/>
		<path d="M380.6,609c-1.4-1.9-2.9-3-2.9-4.1c0-1,1.9-2.8,2.6-2.7c1.2,0.2,2.7,1.6,3,2.8C383.6,605.8,382,607,380.6,609z"/>
		<path d="M164,520.9c-1.4-2-2.9-3.2-2.8-4c0.3-1.2,1.8-2.1,2.7-3.1c0.9,0.9,2.6,1.8,2.6,2.7C166.6,517.6,165.3,518.8,164,520.9z"/>
		<path d="M325.8,634.8c-2.3,1.2-3.5,2.5-4.6,2.4c-1-0.1-2.6-2.1-2.4-2.8c0.3-1.1,1.8-2.4,3-2.6
			C322.7,631.7,323.8,633.2,325.8,634.8z"/>
		<path d="M281.3,637.8c-0.7-1.2-1.9-2.4-1.9-3.5c0.1-1,1.7-2.5,2.6-2.5c1,0,2.6,1.5,2.7,2.4c0.1,1.1-1.2,2.4-1.9,3.5
			C282.3,637.8,281.8,637.8,281.3,637.8z"/>
		<path d="M242.8,590.8c1.3,2,2.7,3.1,2.6,4.1c-0.1,1-1.6,1.9-2.4,2.9c-1-1-2.6-1.8-2.9-3C239.9,594.1,241.4,592.8,242.8,590.8z"/>
		<path d="M217.5,595c-2.1,1.4-3.3,2.8-4.2,2.7c-1.2-0.2-2.1-1.7-3.1-2.7c0.9-0.9,1.9-2.5,2.8-2.6
			C214.1,592.3,215.3,593.6,217.5,595z"/>
		<path d="M196.7,576.1c-1.1,0.8-2.3,2.1-3.4,2.1c-0.9,0-2.5-1.6-2.6-2.6c-0.1-0.9,1.4-2.6,2.3-2.7c1.1-0.1,2.4,1.1,3.6,1.7
			C196.7,575.2,196.7,575.6,196.7,576.1z"/>
		<path d="M410.3,579.9c-1.5-2.1-2.9-3.2-2.9-4.4c0-0.9,1.8-2.7,2.5-2.6c1.1,0.2,2.6,1.6,2.9,2.7C413,576.5,411.7,577.7,410.3,579.9
			z"/>
		<path d="M207.5,575.3c-2.1,1.5-3.2,2.9-4.3,3c-0.9,0-1.9-1.6-2.9-2.5c1-1,1.8-2.6,2.9-2.9C204.1,572.6,205.4,574,207.5,575.3z"/>
		<path d="M203.4,520.8c-1.4-2-2.9-3.1-2.9-4.2c0-0.9,1.6-1.9,2.5-2.9c1,1,2.6,1.8,2.9,2.9C206.2,517.5,204.7,518.8,203.4,520.8z"/>
		<path d="M247,634.2c-2.1,1.5-3.2,2.9-4.3,2.9c-0.9,0-2.8-1.8-2.6-2.5c0.2-1.2,1.6-2.6,2.7-2.9C243.7,631.5,244.9,632.9,247,634.2z
			"/>
		<path d="M203.4,561.6c1.3,2,2.8,3.3,2.5,4.1c-0.3,1.1-1.8,2.4-3,2.6c-0.7,0.1-2.5-1.7-2.4-2.6
			C200.5,564.6,201.9,563.6,203.4,561.6z"/>
		<path d="M424.2,516.9c-2.2,1.2-3.5,2.6-4.4,2.3c-1.1-0.3-1.9-1.9-2.8-2.9c1-0.9,2-2.5,3-2.4C421.1,513.9,422.2,515.4,424.2,516.9z
			"/>
		<path d="M340.9,610.2c1.5,2,3,3.2,2.9,4.1c-0.2,1.2-1.6,2.2-2.5,3.3c-1-0.9-2.8-1.7-2.9-2.7C338.3,613.8,339.6,612.5,340.9,610.2z
			"/>
		<path d="M374.7,624.6c-1.8,1.4-2.9,3-3.8,2.8c-1.2-0.2-3-1.7-3-2.7c0-1.1,1.6-2.8,2.7-3C371.7,621.6,372.9,623.2,374.7,624.6z"/>
		<path d="M365,614.6c-1.9,1.4-3,2.9-4.2,2.9c-0.9,0-2.7-1.8-2.6-2.6c0.2-1.2,1.5-2.7,2.7-3C361.7,611.7,363,613.2,365,614.6z"/>
		<path d="M158.4,526.2c-1.9,1.5-3.1,3.1-3.9,2.9c-1.2-0.2-2.7-1.5-3.1-2.7c-0.2-0.7,1.5-2.8,2.4-2.8
			C154.9,523.5,156.2,524.9,158.4,526.2z"/>
		<path d="M207.4,556.1c-2,1.3-3.2,2.7-4.3,2.6c-0.9,0-2.7-2-2.6-2.6c0.4-1.2,1.7-2.6,2.9-2.9C204.3,553,205.5,554.6,207.4,556.1z"
			/>
		<path d="M197.5,556.2c-2,1.3-3.2,2.6-4.4,2.5c-0.9-0.1-2.6-2-2.4-2.7c0.3-1.1,1.8-2.5,2.9-2.7
			C194.5,553.1,195.7,554.7,197.5,556.2z"/>
		<path d="M420.7,562.4c0.7,1.2,1.9,2.4,1.8,3.5c-0.1,0.9-1.8,2.4-2.7,2.4c-1-0.1-2.6-1.6-2.7-2.5c0-1.1,1.3-2.3,2.1-3.5
			C419.8,562.4,420.2,562.4,420.7,562.4z"/>
		<path d="M454.9,526.6c2-1.5,3.2-3.2,4.3-3c1.1,0.1,2.4,1.8,2.7,3c0.2,0.6-1.7,2.3-2.8,2.5C458.2,529.2,457,527.9,454.9,526.6z"/>
		<path d="M168.1,536c-2,1.5-3,3-4.2,3c-0.9,0-2.8-1.8-2.7-2.5c0.2-1.2,1.5-2.7,2.7-3C164.8,533.2,166.1,534.7,168.1,536z"/>
		<path d="M187.8,546.4c-2,1.3-3.3,2.6-4.5,2.6c-0.9,0-2.7-2.1-2.5-2.8c0.3-1.2,1.9-2.5,3-2.7C184.8,543.3,185.9,544.9,187.8,546.4z
			"/>
		<path d="M193.4,531.9c1.4,2.1,2.8,3.4,2.6,4.3c-0.3,1.2-1.8,2-2.8,3c-0.9-1-2.5-1.9-2.5-2.9C190.7,535.1,192.1,534,193.4,531.9z"
			/>
		<path d="M449.2,540.5c-1.2-2-2.5-3.3-2.4-4.5c0.1-1,1.8-1.8,2.8-2.7c1,1.1,2.5,2.1,2.7,3.3C452.3,537.4,450.7,538.6,449.2,540.5z"
			/>
		<path d="M164.1,550.6c-1.5-2.1-2.9-3.2-2.8-4.2c0.1-1.1,1.5-2.7,2.4-2.8c0.9-0.1,2.8,1.4,2.9,2.3
			C166.7,547,165.4,548.3,164.1,550.6z"/>
		<path d="M173.9,542c1.2,1.9,2.7,3.1,2.5,4c-0.3,1.2-1.8,2.1-2.7,3.1c-0.9-1.1-2.4-2.1-2.6-3.3C171,545,172.5,543.8,173.9,542z"/>
		<path d="M197.5,545.8c-1.8,1.5-2.9,2.9-4.1,3.1c-0.9,0.1-2.8-1.7-2.7-2.4c0.2-1.2,1.5-2.7,2.6-3
			C194.2,543.2,195.5,544.6,197.5,545.8z"/>
		<path d="M424.1,546.1c-2,1.5-3.2,2.9-4.3,2.9c-1,0-2.8-1.9-2.7-2.6c0.2-1.2,1.6-2.6,2.8-2.9C420.9,543.2,422.1,544.7,424.1,546.1z
			"/>
		<path d="M414.4,556c-2.1,1.3-3.3,2.7-4.4,2.6c-1,0-2.7-2-2.5-2.6c0.3-1.2,1.7-2.6,2.9-2.8C411.2,553,412.4,554.6,414.4,556z"/>
		<path d="M463.5,516.6c-2,1.4-3.2,2.9-4.1,2.7c-1.2-0.3-2.1-1.8-3.1-2.8c1-1,1.9-2.7,2.9-2.7C460.3,513.9,461.5,515.3,463.5,516.6z
			"/>
		<path d="M350.7,610.3c1.5,2.1,3,3.2,2.8,4.1c-0.2,1.2-1.6,2.2-2.5,3.2c-1-0.9-2.7-1.7-2.8-2.6
			C348.1,613.8,349.4,612.5,350.7,610.3z"/>
		<path d="M193.4,569.9c-1.4-1.9-2.9-3.1-2.7-3.9c0.3-1.2,1.8-2,2.8-3c0.9,0.9,2.4,1.8,2.5,2.9C196.1,566.8,194.8,567.9,193.4,569.9
			z"/>
		<path d="M410.1,512.5c1.3,1.8,2.9,3.1,2.7,3.9c-0.3,1.2-1.8,2-2.8,3c-0.9-1-2.5-1.8-2.6-2.9C407.4,515.5,408.8,514.4,410.1,512.5z
			"/>
		<path d="M217.5,565.5c-2.1,1.5-3.3,2.8-4.4,2.8c-1,0-2-1.5-3-2.4c1-1,1.8-2.5,2.9-2.8C214,562.9,215.3,564.2,217.5,565.5z"/>
		<path d="M410.1,570.2c-1.5-2.4-2.8-3.6-2.7-4.7c0.1-0.9,1.8-2.4,2.8-2.4c0.9,0,2.6,1.5,2.6,2.5
			C412.9,566.7,411.6,567.9,410.1,570.2z"/>
		<path d="M193.2,512.3c1.5,2,3,3.2,2.8,4.1c-0.2,1.2-1.7,2.1-2.7,3.1c-0.9-0.9-2.6-1.7-2.7-2.7
			C190.6,515.7,191.9,514.5,193.2,512.3z"/>
		<path d="M341.5,599.1c-1.5-1.8-3.2-3-3-3.8c0.2-1.2,1.7-2.1,2.7-3.2c0.9,0.9,2.5,1.8,2.6,2.8C343.9,596,342.6,597.2,341.5,599.1z"
			/>
		<path d="M158.3,516.7c-2,1.3-3.3,2.8-4.2,2.6c-1.2-0.3-2-1.8-3-2.8c1-0.9,1.9-2.6,2.9-2.6C155.2,513.9,156.3,515.3,158.3,516.7z"
			/>
		<path d="M342,601.5c0.6,1.2,1.9,2.5,1.7,3.6c-0.1,1-1.8,2.5-2.7,2.4c-1-0.1-2.6-1.7-2.6-2.6c0-1.2,1.4-2.3,2.1-3.5
			C341.1,601.5,341.6,601.5,342,601.5z"/>
		<path d="M443.7,546.4c-2,1.3-3.2,2.6-4.4,2.6c-0.9,0-2.6-2-2.4-2.7c0.3-1.2,1.8-2.5,2.9-2.7C440.7,543.3,441.9,544.9,443.7,546.4z
			"/>
		<path d="M257,594.8c-2.2,1.5-3.3,2.9-4.3,2.8c-1-0.1-2.7-1.4-2.8-2.3c-0.1-0.9,1.3-2.7,2.3-2.8C253.4,592.3,254.6,593.5,257,594.8
			z"/>
		<path d="M350.8,590.6c1.4,2.2,2.8,3.3,2.7,4.3c-0.1,1-1.5,2.6-2.4,2.6c-1,0-2.8-1.4-2.8-2.3C348.2,594.2,349.5,592.9,350.8,590.6z
			"/>
		<path d="M350.7,600.5c1.5,2,3,3.1,2.9,4c-0.2,1.2-1.6,2.1-2.5,3.2c-1-0.9-2.7-1.7-2.8-2.6C348.1,604,349.4,602.7,350.7,600.5z"/>
		<path class="st0" d="M481.9,454.7c0.1-4.9,3.3-8,8.2-8c4.7,0,8.1,3.4,8.1,8.1c0,4.9-3.6,8.4-8.4,8.3
			C485.1,463,481.9,459.5,481.9,454.7z"/>
	</g>
</g>
</svg>
