<?xml version="1.0" encoding="utf-8"?>
<!-- Generator: Adobe Illustrator 25.2.0, SVG Export Plug-In . SVG Version: 6.00 Build 0)  -->
<svg version="1.1" id="Layer_1" xmlns="http://www.w3.org/2000/svg" xmlns:xlink="http://www.w3.org/1999/xlink" x="0px" y="0px"
	 viewBox="0 0 148.8 95.1" style="enable-background:new 0 0 148.8 95.1;" xml:space="preserve">
<style type="text/css">
	.st0{fill:#38A4DD;}
	.st1{fill:#58C1EF;}
	.st2{fill:#2C98D4;}
	.st3{fill:#44B3E6;}
	.st4{fill:#231F20;}
	.st5{fill:#E0E0E0;}
	.st6{fill:#616262;}
	.st7{fill:#BDBDBD;}
	.st8{fill:#434343;}
</style>
<g>
	<g>
		<path class="st0" d="M75.3,46.6l-0.4,0.5c-0.4,0.5-0.9,1-1.4,1.3L75.3,46.6z"/>
	</g>
	<g>
		<g>
			<path class="st0" d="M74.4,50.2v44.9H2.4C1.1,95.1,0,94,0,92.7V60.6c0-1.3,1.1-2.4,2.4-2.4h7.3c2.5,0,4.9-1.1,6.5-3l3-3.5
				c1.8-2.1,5-2.1,6.8,0l3,3.5c0.3,0.3,0.6,0.6,0.9,0.9c1.6,1.4,3.5,2.1,5.6,2.1c2.5,0,4.9-1.1,6.6-3l3-3.5c1.8-2.1,5-2.1,6.8,0
				l3,3.5c1.6,1.9,4.1,3,6.6,3c2.5,0,4.9-1.1,6.5-3l3-3.5C71.9,50.7,73.2,50.2,74.4,50.2z"/>
		</g>
		<g>
			<path class="st1" d="M74.4,25.5v24.6c-1.2,0-2.5,0.5-3.4,1.6l-3,3.5c-1.7,1.9-4,3-6.5,3c-2.5,0-4.9-1.1-6.6-3l-3-3.5
				c-1.8-2.1-5-2.1-6.8,0l-3,3.5c-1.6,1.9-4.1,3-6.6,3c-2.1,0-4.1-0.7-5.6-2.1c-0.3-0.3-0.6-0.6-0.9-0.9l-3-3.5
				c-1.8-2.1-5-2.1-6.8,0l-3,3.5c-1.6,1.9-4,3-6.6,3H2.4c-1.3,0-2.4,1.1-2.4,2.4V36c0-1.3,1.1-2.4,2.4-2.4h7.3c2.5,0,4.9-1.1,6.6-3
				l3-3.5c1.8-2.1,5-2.1,6.8,0l3,3.5c0.3,0.3,0.6,0.6,0.9,0.9c1.5,1.3,3.5,2.1,5.6,2.1c2.5,0,4.9-1.1,6.6-3l3-3.5
				c1.8-2.1,5-2.1,6.8,0l3,3.5c1.7,1.9,4.1,3,6.6,3c2.5,0,4.9-1.1,6.5-3l3-3.5C71.9,26,73.2,25.5,74.4,25.5z"/>
		</g>
		<path class="st2" d="M148.8,60.6v32.1c0,1.3-1.1,2.4-2.4,2.4h-72V50.2c1.2,0,2.5,0.5,3.4,1.6l3,3.5c1.7,1.9,4,3,6.6,3
			c1.9,0,3.8-0.6,5.3-1.8c0.5-0.3,0.9-0.7,1.2-1.2l0.3-0.4l2.6-3.1c0.5-0.5,1-0.9,1.6-1.2c1.7-0.8,3.8-0.4,5.2,1.2l3,3.5
			c1.6,1.9,4,3,6.6,3c2.5,0,4.9-1.1,6.5-3l3-3.5c1.8-2.1,5-2.1,6.8,0l3,3.5c1.6,1.9,4.1,3,6.6,3h7.2
			C147.8,58.2,148.8,59.3,148.8,60.6z"/>
		<path class="st3" d="M148.8,36v24.6c0-1.3-1.1-2.4-2.4-2.4h-7.2c-2.5,0-4.9-1.1-6.6-3l-3-3.5c-1.8-2.1-5-2.1-6.8,0l-3,3.5
			c-1.6,1.9-4.1,3-6.5,3c-2.5,0-4.9-1.1-6.6-3l-3-3.5c-1.3-1.5-3.4-1.9-5.2-1.2c-0.6,0.3-1.1,0.7-1.6,1.2l-2.6,3.1l-1.6,1.6
			c-1.5,1.2-3.4,1.8-5.3,1.8c-2.5,0-4.9-1.1-6.6-3l-3-3.5c-0.9-1-2.1-1.6-3.4-1.6V25.5c1.2,0,2.5,0.5,3.4,1.6l3,3.5
			c1.7,1.9,4,3,6.6,3c1.9,0,3.8-0.6,5.3-1.8l1.6-1.6l2.6-3.1c0.5-0.5,1-0.9,1.6-1.2c1.7-0.8,3.8-0.4,5.2,1.2l3,3.5
			c1.6,1.9,4,3,6.6,3c2.5,0,4.9-1.1,6.5-3l3-3.5c1.8-2.1,5-2.1,6.8,0l3,3.5c1.6,1.9,4.1,3,6.6,3h7.2C147.8,33.6,148.8,34.6,148.8,36
			z"/>
		<g>
			<path class="st0" d="M74.4,0v25.5c-1.2,0-2.5,0.5-3.4,1.6l-3,3.5c-1.7,1.9-4,3-6.5,3c-2.5,0-4.9-1.1-6.6-3l-3-3.5
				c-1.8-2.1-5-2.1-6.8,0l-3,3.5c-1.6,1.9-4.1,3-6.6,3c-2.1,0-4.1-0.7-5.6-2.1c-0.3-0.3-0.6-0.6-0.9-0.9l-3-3.5
				c-1.8-2.1-5-2.1-6.8,0l-3,3.5c-1.6,1.9-4,3-6.6,3H2.4C1.1,33.6,0,34.6,0,36V10.4C0,9.1,1.1,8,2.4,8h7.3c2.5,0,4.9-1.1,6.6-3
				l3-3.5c0.6-0.7,1.4-1.2,2.3-1.4c1.6-0.4,3.4,0,4.5,1.4L29,5c1.6,1.9,4,3,6.6,3c2.5,0,4.9-1.1,6.6-3l3-3.5c1.8-2.1,5-2.1,6.8,0
				l3,3.5c0.2,0.3,0.5,0.5,0.7,0.8C57.2,7.2,59.3,8,61.5,8C64,8,66.4,7,68,5l3-3.5C71.9,0.5,73.2,0,74.4,0z"/>
		</g>
		<path class="st2" d="M146.4,8h-7.2c-2.5,0-4.9-1.1-6.6-3l-3-3.5c-1.6-1.9-4.3-2.1-6.2-0.6l-0.8,0.8L119.8,5
			c-0.7,0.8-1.5,1.4-2.3,1.9c-1.3,0.7-2.7,1.1-4.2,1.1c-2.5,0-4.9-1.1-6.6-3l-3-3.5c-1.8-2.1-5-2.1-6.8,0l-3,3.5c-1.6,1.9-4,3-6.6,3
			c-2.5,0-4.9-1.1-6.6-3l-3-3.5C76.9,0.5,75.7,0,74.4,0v25.5c1.2,0,2.5,0.5,3.4,1.6l3,3.5c1.7,1.9,4,3,6.6,3c1.9,0,3.8-0.6,5.3-1.8
			l1.6-1.6l2.6-3.1c0.5-0.5,1-0.9,1.6-1.2c1.7-0.8,3.8-0.4,5.2,1.2l3,3.5c1.6,1.9,4,3,6.6,3c2.5,0,4.9-1.1,6.5-3l3-3.5
			c1.8-2.1,5-2.1,6.8,0l3,3.5c1.6,1.9,4.1,3,6.6,3h7.2c1.3,0,2.4,1.1,2.4,2.4V10.4C148.8,9.1,147.8,8,146.4,8z"/>
	</g>
	<path class="st4" d="M75.3,46.6l-0.4,0.5c-0.4,0.5-0.9,1-1.4,1.3L75.3,46.6z"/>
	<g>
		<g>
			<g>
				<path class="st5" d="M64.6,19.3c0,3.4,2.7,6.1,6.1,6.1c1.4,0,2.7-0.5,3.7-1.3v62.6H63.7c-2.1,0-3-2.6-1.4-4l9.5-7.8
					c0.5-0.4,0.8-1.1,0.8-1.7v-0.6c0-1.2-1-2.2-2.2-2.2h-1.1c-0.9,0-1.6-0.7-1.5-1.6c0.1-0.8,0.8-1.4,1.5-1.4h1c1.2,0,2.2-1,2.2-2.2
					c0-1.2-1-2.2-2.2-2.2h-2.9c-0.9,0-1.6-0.7-1.5-1.6c0.1-0.8,0.8-1.4,1.5-1.4h2.9c1.2,0,2.2-1,2.2-2.2c0-1.2-1-2.2-2.2-2.2h-4.8
					c-0.9,0-1.6-0.7-1.5-1.6c0.1-0.8,0.8-1.4,1.5-1.4h4.7c1.2,0,2.2-1,2.2-2.2c0-1.2-1-2.2-2.2-2.2h-6.7c-0.9,0-1.6-0.7-1.5-1.6
					c0.1-0.8,0.8-1.4,1.5-1.4h6.6c1.2,0,2.2-1,2.2-2.2c0-1.2-1-2.2-2.2-2.2h-8.5c-0.9,0-1.6-0.7-1.5-1.6c0.1-0.8,0.8-1.4,1.5-1.4
					h8.4c1.2,0,2.2-1,2.2-2.2v-0.6c0-1.2-1-2.2-2.2-2.2H58.9c-1.4,0-2.4-1.2-2.2-2.6c1.2-9,8.7-17.5,17.7-17.5v2.2
					c-1-0.8-2.3-1.3-3.7-1.3C67.3,13.2,64.6,16,64.6,19.3z"/>
			</g>
		</g>
		<g>
			<path class="st6" d="M74.4,14.5v9.6c-1,0.8-2.3,1.3-3.7,1.3c-3.4,0-6.1-2.7-6.1-6.1c0-3.4,2.7-6.1,6.1-6.1
				C72.1,13.2,73.4,13.7,74.4,14.5z"/>
		</g>
		<g>
			<path class="st7" d="M89.9,32.4H78.6c-1.2,0-2.2,1-2.2,2.2v0.6c0,1.2,1,2.2,2.2,2.2h8.5c0.9,0,1.6,0.7,1.5,1.6
				c-0.1,0.8-0.8,1.4-1.5,1.4h-8.4c-1.2,0-2.2,1-2.2,2.2c0,1.2,1,2.2,2.2,2.2h6.6c0.9,0,1.6,0.7,1.5,1.6c-0.1,0.8-0.8,1.3-1.5,1.3
				h-6.6c-1.2,0-2.2,1-2.2,2.2c0,1.2,1,2.2,2.2,2.2h4.8c0.9,0,1.6,0.8,1.5,1.6c-0.1,0.8-0.8,1.3-1.5,1.3h-4.7c-1.2,0-2.2,1-2.2,2.2
				c0,1.2,1,2.2,2.2,2.2h2.9c0.9,0,1.6,0.8,1.5,1.6c-0.1,0.8-0.8,1.3-1.5,1.3h-2.9c-1.2,0-2.2,1-2.2,2.2c0,1.2,1,2.2,2.2,2.2h1
				c0.9,0,1.6,0.8,1.5,1.6c-0.1,0.8-0.8,1.3-1.5,1.3h-1c-1.2,0-2.2,1-2.2,2.2v0.6c0,0.7,0.3,1.3,0.8,1.7l9.4,7.8
				c1.6,1.3,0.7,4-1.4,4H74.4V24.1c1.4-1.1,2.4-2.9,2.4-4.8c0-2-0.9-3.7-2.4-4.8v-2.2c9,0,16.5,8.5,17.7,17.5
				C92.3,31.2,91.3,32.4,89.9,32.4z"/>
		</g>
		<g>
			<path class="st8" d="M76.8,19.3c0,2-0.9,3.7-2.4,4.8v-9.6C75.9,15.6,76.8,17.4,76.8,19.3z"/>
		</g>
	</g>
</g>
</svg>
