<?xml version="1.0" encoding="utf-8"?>
<!-- Generator: Adobe Illustrator 25.2.0, SVG Export Plug-In . SVG Version: 6.00 Build 0)  -->
<svg version="1.1" id="Layer_1" xmlns="http://www.w3.org/2000/svg" xmlns:xlink="http://www.w3.org/1999/xlink" x="0px" y="0px"
	 viewBox="0 0 175.7 269.8" style="enable-background:new 0 0 175.7 269.8;" xml:space="preserve">
<style type="text/css">
	.st0{fill:#EFD4D7;}
	.st1{fill:#F4A4A0;}
	.st2{fill:#E2DDD3;}
	.st3{fill:#D38484;}
	.st4{fill:#FFF0C7;}
	.st5{fill:#FCD150;}
</style>
<g>
	<g>
		<rect x="58.6" y="76.4" class="st0" width="29.3" height="168.9"/>
		<rect x="87.9" y="76.4" class="st1" width="29.3" height="168.9"/>
	</g>
	<path class="st2" d="M87.9,241.2H0l13.3,14.9c7.7,8.7,18.8,13.7,30.4,13.7h44.2h44.2c11.6,0,22.7-5,30.4-13.7l13.3-14.9H87.9z"/>
	<rect x="83.7" y="53.2" class="st3" width="8.6" height="23.2"/>
	<path class="st4" d="M88,61.3L88,61.3c-11.2,0-20.3-9.1-20.3-20.3v0c0-7.2,2.2-14.2,6.2-20.2L88,0V61.3z"/>
	<path class="st5" d="M88,61.3L88,61.3c11.2,0,20.3-9.1,20.3-20.3v0c0-7.2-2.2-14.2-6.2-20.2L88,0V61.3z"/>
</g>
</svg>
