<?xml version="1.0" encoding="utf-8"?>
<!-- Generator: Adobe Illustrator 25.2.0, SVG Export Plug-In . SVG Version: 6.00 Build 0)  -->
<svg version="1.1" id="Capa_1" xmlns="http://www.w3.org/2000/svg" xmlns:xlink="http://www.w3.org/1999/xlink" x="0px" y="0px"
	 viewBox="0 0 1243.9 1741.2" style="enable-background:new 0 0 1243.9 1741.2;" xml:space="preserve">
<style type="text/css">
	.st0{fill:#A67C64;}
	.st1{fill:#AC9081;}
	.st2{fill:#916A56;}
	.st3{fill:#614536;}
	.st4{fill:#EFA63F;}
	.st5{fill:#E0BC9F;}
	.st6{fill:#AF7753;}
	.st7{fill:#DA8F3C;}
</style>
<path class="st0" d="M439.4,496.8c0,0-75.8-200.4-99.1-378.2C332,55.2,317,40,366.6,37c17.5-1,37.1,4.5,58.5,10
	c39.1,10.1,83.8,20.2,130.9-10c64.2-41.1,157.4-49.5,218.6-17.5c61.2,32.1,90.3,49.5,131.1,40.8c40.8-8.7,116.6-52.4,122.4,2.9
	c5.8,55.4-95.2,381.1-145.7,433.5H439.4"/>
<path class="st1" d="M704,496.8H598.2c17.8,0.8,35.2,1.1,52.2,1.1C668.9,497.9,686.8,497.5,704,496.8"/>
<path class="st2" d="M907.3,365.2c-5.7,0-47.6,76.8-86.4,121.6c19.5-2.5,36-5,49-7.2c10.3-27.7,26.1-71.3,35.8-103.1
	C908.1,368.7,908.5,365.2,907.3,365.2 M779.6,70.3c-30,0-25.3,370.2-57.6,403.4c-3.8,3.9-6.7,5.7-8.8,5.7c-16.3,0,10.8-102,8.8-129
	c-0.2-2.8-0.9-4.1-2.1-4.1c-11.5,0-66.2,124.6-92.4,127.5c-0.3,0-0.6,0-0.9,0c-27.7,0-11.9-147.7-29.2-175.9c-1-1.7-1.9-2.5-2.7-2.5
	c-12.1,0-0.8,177.7-32.2,199.3c12,0.9,23.9,1.6,35.6,2.1H704c35.3-1.5,67.6-4.2,95.4-7.3c7.9-34.3,39.9-115.5,72.3-196.7
	c42.6-106.8,86-213.6,76.1-213.6c-0.2,0-0.4,0-0.6,0.1c-21.9,7.3-44.5,10.8-67.6,10.8c-32.3,0-65.4-6.9-98.6-19.6
	C780.6,70.3,780.1,70.3,779.6,70.3 M557,70.2c-0.3,0-0.6,0.1-1,0.4c-16,10.9-35.5,14.6-55.3,14.6c-39.6,0-80.8-14.6-99.5-14.6
	c-25.2,0,49.4,342.9,64.7,412c28.4,5.1,56.8,8.7,84.6,11.1C520.6,455,574.7,70.2,557,70.2"/>
<path class="st0" d="M421.3,518.9c0,0-532.1,508-400.4,962.1c0,0,69.7,216.3,283.4,192.9c0,0,57.7,37.8,142.8,9.6
	c0,0,104.4,122.4,344.6,10.5c0,0,80.3,53.2,193.3-20.1c0,0,222.8-27.4,250.4-203.9c52.1-333-144.7-773.2-340.3-951.1H421.3"/>
<path class="st1" d="M20.6,1479.8c0.1,0.4,0.2,0.8,0.4,1.2C20.8,1480.6,20.7,1480.2,20.6,1479.8 M20.3,1478.6
	c0.1,0.2,0.1,0.4,0.2,0.6C20.4,1479,20.3,1478.8,20.3,1478.6 M19.9,1477.3c0,0.2,0.1,0.3,0.1,0.5C20,1477.7,20,1477.5,19.9,1477.3
	 M19.6,1476.1c0,0.1,0.1,0.2,0.1,0.4C19.6,1476.4,19.6,1476.3,19.6,1476.1 M19.2,1475c0,0.1,0.1,0.2,0.1,0.3
	C19.3,1475.2,19.3,1475,19.2,1475 M18.9,1473.9C19,1473.9,19,1473.9,18.9,1473.9C19,1473.9,19,1473.9,18.9,1473.9"/>
<path class="st2" d="M926.1,549.3c-28.1,7.1-55.4,12.7-81.7,17.2c157.1,147.1,243.3,463,271.2,614.4
	c29.2,158.5,10.6,245.4-74.5,245.4c-4.1,0-8.3-0.2-12.7-0.6c-10.9-1-20.8-1.5-30.1-1.5c-72.7,0-102.4,29.8-180,80.2
	c-26.5,17.2-54.2,24-83.1,24c-66.5,0-139.3-35.9-218.5-63.3c-18.7-6.5-34.3-9.2-48.3-9.2c-34.6,0-59.2,16.5-95.6,33.1
	c-36.4,16.5-84.6,33-166.4,33c-4.3,0-8.7,0-13.2-0.1c-130.4-2.7-166.3-198-174.7-345.4c-22.6,97.7-26.6,198.8,0.5,297.5
	c0,0,0,0.1,0,0.1c0.1,0.3,0.2,0.7,0.3,1c0,0.1,0.1,0.2,0.1,0.3c0.1,0.3,0.2,0.6,0.3,0.9c0,0.1,0.1,0.2,0.1,0.4
	c0.1,0.3,0.2,0.6,0.2,0.8c0,0.1,0.1,0.3,0.1,0.5c0.1,0.3,0.1,0.5,0.2,0.8c0.1,0.2,0.1,0.4,0.2,0.6c0.1,0.2,0.1,0.4,0.2,0.6
	c0.1,0.4,0.2,0.8,0.4,1.2l0,0c0,0,62.8,194.7,251.7,194.7c10.2,0,20.8-0.6,31.7-1.8c0,0,30.6,20.1,80.1,20.1
	c18.5,0,39.6-2.8,62.7-10.4c0,0,49.2,57.6,157.7,57.6c49.6,0,111.6-12,186.9-47.2c0,0,28.1,18.7,74.6,18.7c32,0,72.6-8.9,118.7-38.8
	c0,0,222.8-27.4,250.4-203.9c5.7-36.8,8.5-74.8,8.5-113.7C1244.1,1061.7,1089.3,720.5,926.1,549.3"/>
<path class="st3" d="M406.2,530.1c68.5,27.9,256.2,85.7,520.6,19c-10.4-10.2-20.9-20.2-31.7-30.2H777.5l-276.6,11l-28.7-11h-50.9
	C421.3,518.9,415.8,522.7,406.2,530.1"/>
<path class="st4" d="M422.9,473.7c0,0-35.1,33.8-16,60.5c0,0,258.5,59,503.9,0c0,0,28.6-33.9-8.9-60.5
	C901.9,473.7,655.4,528.2,422.9,473.7"/>
<path class="st5" d="M401.9,523c0.8,3.6,2.3,7.2,4.6,10.6v0C404.2,530.2,402.7,526.6,401.9,523"/>
<path class="st6" d="M406.5,533.6L406.5,533.6c0.1,0.1,0.2,0.2,0.3,0.4C406.7,533.9,406.6,533.8,406.5,533.6"/>
<path class="st7" d="M919.8,496.8c-91.8,29.6-179.2,39.7-255.7,39.7c-124.8,0-220.3-26.9-258-39.3c-3.7,7.9-6.1,16.9-4.2,25.8
	c0.8,3.6,2.3,7.2,4.6,10.6c0.1,0.1,0.2,0.2,0.3,0.4c0,0.1,0.1,0.1,0.1,0.2c0,0,114.9,26.2,264.2,26.2c74.7,0,157.9-6.6,239.7-26.2
	l0,0v0C910.9,534,925.5,516.5,919.8,496.8"/>
</svg>
