<?xml version="1.0"?>
<svg xmlns="http://www.w3.org/2000/svg" viewBox="0 0 64 64" width="512" height="512"><g id="Filled_outline" data-name="Filled outline"><polygon points="51.667 33 54 35 54 21 47 21 47 28.625 51.667 33" style="fill:#d3843d"/><path d="M28.7,40.354,41,29,52.826,40.826a7.933,7.933,0,0,0,2.063-.715L57,38,41,23,25,38l.666.666C26.772,39.17,27.587,39.855,28.7,40.354Z" style="fill:#da1c4b"/><path d="M31.993,41c4.833,0,5.175-3,10.007-3s4.164,3,9,3a9.2,9.2,0,0,0,1.826-.174L41,29,28.7,40.354A7.736,7.736,0,0,0,31.993,41Z" style="fill:#ffd782"/><path d="M61,38c-4.836,0-5.164,3-10,3s-4.164-3-9-3-5.174,3-10.007,3-4.833-3-9.667-3S17.832,41,13,41,7.831,38,3,38V61H61Z" style="fill:#50b4f8"/><rect x="45" y="17" width="11" height="4" style="fill:#ad6327"/><path d="M27,11a3.193,3.193,0,0,0-3-3V7c0-2.435-2.565-4-5-4a3.786,3.786,0,0,0-4,3c-.857-.857-1.045-1-2-1a3.044,3.044,0,0,0-3,3,2.985,2.985,0,0,0-3,3c0,2.571,1.377,3,3,3H24A2.794,2.794,0,0,0,27,11Z" style="fill:#195c85"/><path d="M61,37a9.5,9.5,0,0,0-3.095.478L55,34.754V22h1a1,1,0,0,0,1-1V17a1,1,0,0,0-1-1H45a1,1,0,0,0-1,1v4a1,1,0,0,0,1,1h1v4.317l-4.316-4.046a1,1,0,0,0-1.368,0L24.384,37.207A9.849,9.849,0,0,0,22.326,37a8.234,8.234,0,0,0-5.219,1.668A6.285,6.285,0,0,1,13,40a7.792,7.792,0,0,1-4.5-1.365A9.8,9.8,0,0,0,3,37a1,1,0,0,0-1,1V61a1,1,0,0,0,1,1H61a1,1,0,0,0,1-1V38A1,1,0,0,0,61,37ZM46,18h9v2H46Zm7,4V32.879l-5-4.687V22ZM41,24.371,55.943,38.379l-.445.256a9.787,9.787,0,0,1-2.356,1.093L41.707,28.293a1,1,0,0,0-1.385-.028l-11.8,10.887c-.283-.156-.557-.326-.84-.5-.369-.229-.758-.465-1.186-.686Zm9.57,15.613a5.574,5.574,0,0,1-3.486-1.3A7.543,7.543,0,0,0,42,37a9.815,9.815,0,0,0-5.505,1.635A7.81,7.81,0,0,1,31.993,40a8.456,8.456,0,0,1-1.328-.1l10.307-9.514ZM60,60H4V39.051a8.1,8.1,0,0,1,3.5,1.314A9.8,9.8,0,0,0,13,42a8.23,8.23,0,0,0,5.218-1.668A6.29,6.29,0,0,1,22.326,39a7.017,7.017,0,0,1,4.306,1.35A9,9,0,0,0,31.993,42,9.819,9.819,0,0,0,37.5,40.365,7.809,7.809,0,0,1,42,39a5.633,5.633,0,0,1,3.916,1.312A7.543,7.543,0,0,0,51,42a9.791,9.791,0,0,0,5.5-1.635A8.078,8.078,0,0,1,60,39.051Z"/><path d="M17.834,46.448a1,1,0,0,0-1.386-.282c-1.283.85-2.338,1.146-3.134.885a2.765,2.765,0,0,1-1.085-.837A3,3,0,0,0,10,45a4.24,4.24,0,0,0-3.923,2.615,1,1,0,1,0,1.846.77A2.243,2.243,0,0,1,10,47c.2,0,.381.17.774.586a4.517,4.517,0,0,0,1.912,1.363,3.841,3.841,0,0,0,1.222.194,6.757,6.757,0,0,0,3.644-1.309A1,1,0,0,0,17.834,46.448Z"/><path d="M38.834,46.448a1,1,0,0,0-1.386-.282c-1.283.85-2.339,1.146-3.134.885a2.765,2.765,0,0,1-1.085-.837A3,3,0,0,0,31,45a4.24,4.24,0,0,0-3.923,2.615,1,1,0,1,0,1.846.77A2.243,2.243,0,0,1,31,47c.2,0,.381.17.774.586a4.517,4.517,0,0,0,1.912,1.363,3.841,3.841,0,0,0,1.222.194,6.757,6.757,0,0,0,3.644-1.309A1,1,0,0,0,38.834,46.448Z"/><path d="M53.314,47.051a2.765,2.765,0,0,1-1.085-.837A3,3,0,0,0,50,45a4.24,4.24,0,0,0-3.923,2.615,1,1,0,1,0,1.846.77A2.243,2.243,0,0,1,50,47c.2,0,.381.17.774.586a4.517,4.517,0,0,0,1.912,1.363,3.841,3.841,0,0,0,1.222.194,6.757,6.757,0,0,0,3.644-1.309,1,1,0,0,0-1.1-1.668C55.165,47.016,54.111,47.312,53.314,47.051Z"/><path d="M25,52.856a3,3,0,0,0-2.229,1.215,2.746,2.746,0,0,1-1.085.836c-.8.262-1.85-.034-3.134-.885a1,1,0,0,0-1.1,1.668A6.745,6.745,0,0,0,21.091,57a3.871,3.871,0,0,0,1.223-.194,4.525,4.525,0,0,0,1.912-1.363c.393-.417.573-.587.774-.587a2.244,2.244,0,0,1,2.077,1.385,1,1,0,1,0,1.846-.769A4.239,4.239,0,0,0,25,52.856Z"/><path d="M45,52.856a3,3,0,0,0-2.229,1.215,2.746,2.746,0,0,1-1.085.836c-.8.262-1.85-.034-3.134-.885a1,1,0,1,0-1.1,1.668A6.745,6.745,0,0,0,41.091,57a3.871,3.871,0,0,0,1.223-.194,4.525,4.525,0,0,0,1.912-1.363c.393-.417.573-.587.774-.587a2.244,2.244,0,0,1,2.077,1.385,1,1,0,1,0,1.846-.769A4.239,4.239,0,0,0,45,52.856Z"/><rect x="9" y="19.586" width="2" height="2.828" transform="translate(-11.92 13.222) rotate(-45)"/><rect x="17" y="24.586" width="2" height="2.828" transform="translate(-13.113 20.343) rotate(-45)"/><rect x="26" y="20.586" width="2" height="2.828" transform="translate(-7.648 25.536) rotate(-45)"/><rect x="17.5" y="18.379" width="2" height="4.243" transform="translate(-9.077 19.086) rotate(-45)"/><rect x="25.5" y="26.379" width="2" height="4.243" transform="translate(-12.391 27.086) rotate(-45)"/><path d="M19,2a4.859,4.859,0,0,0-4.41,2.342A2.933,2.933,0,0,0,13,4,4.067,4.067,0,0,0,9.106,7.1,4.007,4.007,0,0,0,6,11c0,4,3.011,4,4,4H24a3.786,3.786,0,0,0,4-4,4.318,4.318,0,0,0-3-3.871V7C25,3.912,21.886,2,19,2Zm7,9a1.813,1.813,0,0,1-2,2H10c-1.41,0-2-.278-2-2a1.978,1.978,0,0,1,2-2,1,1,0,0,0,1-1,2.053,2.053,0,0,1,2-2c.586,0,.586,0,1.293.707a1,1,0,0,0,1.679-.472A2.825,2.825,0,0,1,19,4c1.932,0,4,1.206,4,3V8a1,1,0,0,0,1,1A2.209,2.209,0,0,1,26,11Z"/></g></svg>
