<?xml version="1.0" encoding="utf-8"?>
<!-- Generator: Adobe Illustrator 25.2.0, SVG Export Plug-In . SVG Version: 6.00 Build 0)  -->
<svg version="1.1" id="Layer_1" xmlns="http://www.w3.org/2000/svg" xmlns:xlink="http://www.w3.org/1999/xlink" x="0px" y="0px"
	 viewBox="0 0 157.9 158.2" style="enable-background:new 0 0 157.9 158.2;" xml:space="preserve">
<style type="text/css">
	.st0{fill:#F5F5F5;}
	.st1{fill:#BDDDF4;}
	.st2{fill:#70B2E2;}
	.st3{fill:#95C8EC;}
	.st4{fill:#EEEEEE;}
	.st5{fill:#57A0D7;}
</style>
<g>
	<g>
		<path class="st0" d="M78.9,3.7v95.7H34.2c-16.1-0.3-29-13.5-29-29.7C5.1,53.3,18.4,40,34.8,40c0.6,0,1.2,0,1.8,0.1
			c-1.2-3.2-1.8-6.7-1.8-10.4C34.8,13.3,48.1,0,64.5,0C69.7,0,74.7,1.4,78.9,3.7z"/>
	</g>
	<path class="st1" d="M78.9,128.2v30c-8.3,0-15-6.7-15-15C63.9,134.9,70.6,128.2,78.9,128.2z"/>
	<g>
		<path class="st1" d="M30,132.1c0,1.3-0.2,2.5-0.5,3.7h0c-1.6,6.5-7.5,11.3-14.5,11.3c-8.3,0-15-6.7-15-15c0-8.3,6.7-15,15-15
			c5.9,0,11.1,3.4,13.5,8.4h0C29.5,127.5,30,129.8,30,132.1z"/>
	</g>
	<g>
		<path class="st2" d="M57.3,99.4v52.7c0,2.9-2.1,5.5-5,6c-0.4,0.1-0.7,0.1-1.1,0.1c-2.5,0-4.8-1.6-5.7-4c-4-10.8-9.3-16.9-16-18.4
			c0.3-1.2,0.5-2.4,0.5-3.7c0-2.4-0.5-4.6-1.5-6.5c5.9,0.6,12.8,3.2,18.8,11V99.4H57.3z"/>
	</g>
	<g>
		<path class="st2" d="M78.9,99.4v23.5c-2.8,0-5-2.2-5-5V99.4H78.9z"/>
	</g>
	<path class="st3" d="M93.9,143.2c0,8.3-6.7,15-15,15v-30C87.2,128.2,93.9,134.9,93.9,143.2z"/>
	<path class="st4" d="M153.6,69.7c0,16.4-13.3,29.7-29.7,29.7h-45V3.7c4.6,2.5,8.3,6.2,11,10.7c4.4-2.6,9.6-4.1,15-4.1
		c16.4,0,29.7,13.3,29.7,29.7c0,0.7,0,1.3-0.1,2C145.7,46.3,153.6,57.1,153.6,69.7z"/>
	<path class="st5" d="M83.9,99.4v18.5c0,2.8-2.2,5-5,5V99.4H83.9z"/>
	<path class="st5" d="M127.9,132.1c0,1.3,0.2,2.5,0.5,3.7c-6.8,1.5-12,7.6-16,18.4c-0.9,2.4-3.2,4-5.7,4c-0.4,0-0.7,0-1.1-0.1
		c-2.9-0.5-5-3-5-6V99.4h10v37.1c6-7.7,12.9-10.4,18.8-11C128.4,127.5,127.9,129.8,127.9,132.1z"/>
	<path class="st3" d="M157.9,132.1c0,8.3-6.7,15-15,15c-7,0-12.9-4.8-14.5-11.3c-0.3-1.2-0.5-2.4-0.5-3.7c0-2.4,0.5-4.6,1.5-6.5
		c2.4-5,7.6-8.4,13.5-8.4C151.1,117.1,157.9,123.8,157.9,132.1z"/>
</g>
</svg>
