<?xml version="1.0" encoding="utf-8"?>
<!-- Generator: Adobe Illustrator 25.2.0, SVG Export Plug-In . SVG Version: 6.00 Build 0)  -->
<svg version="1.1" id="Layer_1" xmlns="http://www.w3.org/2000/svg" xmlns:xlink="http://www.w3.org/1999/xlink" x="0px" y="0px"
	 viewBox="0 0 478 608.3" style="enable-background:new 0 0 478 608.3;" xml:space="preserve">
<style type="text/css">
	.st0{fill:#FFFFFF;}
	.st1{fill:#1A1A1A;}
	.st2{fill:#EF3F6B;}
	.st3{fill:#00A5D3;}
</style>
<g>
	<path class="st0" d="M460,260.6c-14.3,0-26,11.6-26,25.9v62.8c0,2-0.7,3.9-2.1,5.3l-53.7,53.8l-37.4,37.5c-2.9,2.9-7.7,2.9-10.6,0
		c-2.9-2.9-2.9-7.7,0-10.6l37.5-37.5c12-12.1,12-31.7-0.1-43.7c-0.7-0.7-1.6-0.8-2-0.8s-1.3,0.1-2,0.8l-56.6,56.4
		c-12.1,12.1-18.9,28.1-18.9,45.2v89.7h80v-25.1c0-1.5,0.6-2.9,1.4-4.2l87.5-130.6c4-6,6.1-12.9,6.1-20.1V263.4
		C463,261.9,461.6,260.6,460,260.6z"/>
	<path class="st1" d="M460,245.6c-22.6,0-41,18.4-41,40.9v59.7l-27.5,27.7c-0.5-11.1-4.9-22-13.3-30.4c-3.4-3.4-7.8-5.2-12.6-5.2
		c-4.8,0-9.3,1.9-12.6,5.2l-56.6,56.4c-14.9,14.9-23.3,34.7-23.3,55.8v89.7h-8.6c-4.1,0-7.4,3.1-7.4,7.2v48.6c0,4.1,3.3,7.2,7.4,7.2
		h16.5h94.8h16.5c4.1,0,7.8-3.1,7.8-7.2v-48.6c0-4.1-3.6-7.2-7.8-7.2H383v-22.8l86.3-128.7c5.7-8.5,8.7-18.3,8.7-28.5V263.4
		C478,253.6,469.9,245.6,460,245.6z M463,365.4c0,7.2-2.1,14.1-6.1,20.1L369.4,516c-0.8,1.2-1.4,2.7-1.4,4.2v25.1h-80v-89.7
		c0-17.1,6.8-33.1,18.9-45.2l56.5-56.4c0.7-0.7,1.6-0.8,2.1-0.8c0.4,0,1.3,0.1,2.1,0.8c12,12,12.1,31.7,0.1,43.7l-37.4,37.5
		c-2.9,2.9-2.9,7.7,0,10.6c2.9,2.9,7.7,2.9,10.6,0l37.5-37.5l53.6-53.8c1.4-1.4,2.1-3.3,2.1-5.3v-62.8c0-14.3,11.7-25.9,26-25.9
		c1.6,0,3,1.3,3,2.9V365.4z M385,593.3h-16.8h-79.8H272v-33h113V593.3z"/>
	<path class="st2" d="M428.3,109.7c0-25.3-9.8-49.1-27.7-67c-17.9-17.9-41.7-27.7-67-27.7s-49.1,9.8-67,27.7c-9,9-16,19.5-20.7,31.1
		c-1.2,2.8-3.9,4.7-6.9,4.7c-3,0-5.8-1.8-6.9-4.7c-4.8-11.7-11.7-22.2-20.7-31.1c-17.9-17.9-41.7-27.7-67-27.7s-49.1,9.8-67,27.7
		c-17.9,17.9-27.7,41.7-27.7,67s9.8,49.1,27.7,67L239,338.2l161.6-161.6C418.4,158.8,428.3,135,428.3,109.7z"/>
	<path class="st1" d="M443.3,109.7c0-29.3-11.4-56.8-32.1-77.6C390.4,11.4,362.9,0,333.6,0c-29.3,0-56.8,11.4-77.6,32.1
		c-6.7,6.7-12.4,14-17.1,22c-4.7-8-10.4-15.4-17.1-22C201.2,11.4,173.7,0,144.4,0c-29.3,0-56.8,11.4-77.6,32.1s-32.1,48.3-32.1,77.6
		c0,29.3,11.4,56.8,32.1,77.6l166.9,166.9c1.5,1.5,3.4,2.2,5.3,2.2c1.9,0,3.8-0.7,5.3-2.2l166.9-166.9
		C431.9,166.5,443.3,139,443.3,109.7z M77.4,176.6c-17.9-17.9-27.7-41.7-27.7-67s9.8-49.1,27.7-67c17.9-17.9,41.7-27.7,67-27.7
		s49.1,9.8,67,27.7c9,9,16,19.5,20.7,31.1c1.2,2.8,3.9,4.7,6.9,4.7c3,0,5.8-1.8,6.9-4.7c4.8-11.7,11.7-22.2,20.7-31.1
		c17.9-17.9,41.7-27.7,67-27.7s49.1,9.8,67,27.7c17.9,17.9,27.7,41.7,27.7,67s-9.8,49.1-27.7,67L239,338.2L77.4,176.6z"/>
	<polygon class="st3" points="272,560.3 272,593.3 288.4,593.3 368.2,593.3 385,593.3 385,560.3 	"/>
	<path class="st0" d="M190,545.3v-89.7c0-17.1-6.9-33.1-18.9-45.2L114.6,354c-0.7-0.7-1.6-0.8-2.1-0.8c-0.4,0-1.3,0.1-2.1,0.8
		c-12,12-12.1,31.7-0.1,43.8l37.4,37.4c2.9,2.9,2.9,7.7,0,10.6c-2.9,2.9-7.7,2.9-10.6,0l-37.4-37.4c0,0-0.1-0.1-0.1-0.1l-53.6-53.8
		c-1.4-1.4-2.1-3.3-2.1-5.3v-62.8c0-14.3-11.7-25.9-26-25.9c-1.6,0-3,1.3-3,2.9v101.9c0,7.2,2.1,14.1,6.1,20.1L108.6,516
		c0.8,1.2,1.4,2.7,1.4,4.2v25.1H190z"/>
	<polygon class="st3" points="93,560.3 93,593.3 109.7,593.3 189.6,593.3 206,593.3 206,560.3 	"/>
	<path class="st1" d="M213.6,545.3H205v-89.7c0-21.1-8.4-40.9-23.3-55.8l-56.5-56.4c-3.4-3.4-7.9-5.2-12.7-5.2
		c-4.8,0-9.3,1.9-12.7,5.2c-8.4,8.4-12.8,19.3-13.3,30.4L59,346.1v-59.7c0-22.6-18.5-40.9-41-40.9c-9.9,0-18,8-18,17.9v101.9
		c0,10.2,3.1,20,8.7,28.5L95,522.5v22.8h-9.2c-4.1,0-7.8,3.1-7.8,7.2v48.6c0,4.1,3.6,7.2,7.8,7.2h16.5h94.8h16.5
		c4.1,0,7.4-3.1,7.4-7.2v-48.6C221,548.4,217.7,545.3,213.6,545.3z M206,593.3h-16.4h-79.8H93v-33h113V593.3z M108.6,516L21.1,385.5
		c-4-6-6.1-12.9-6.1-20.1V263.4c0-1.6,1.4-2.9,3-2.9c14.3,0,26,11.6,26,25.9v62.8c0,2,0.6,3.9,2.1,5.3l53.7,53.8c0,0,0,0.1,0,0.1
		l37.4,37.4c2.9,2.9,7.7,2.9,10.6,0c2.9-2.9,2.9-7.7,0-10.6l-37.4-37.4c-12-12.1-12-31.7,0-43.8c0.7-0.7,1.6-0.8,2-0.8
		s1.3,0.1,2,0.8l56.6,56.4c12.1,12.1,18.9,28.1,18.9,45.2v89.7h-80v-25.1C110,518.7,109.4,517.3,108.6,516z"/>
</g>
</svg>
