<?xml version="1.0" encoding="utf-8"?>
<!-- Generator: Adobe Illustrator 25.2.0, SVG Export Plug-In . SVG Version: 6.00 Build 0)  -->
<svg version="1.1" id="Layer_1" xmlns="http://www.w3.org/2000/svg" xmlns:xlink="http://www.w3.org/1999/xlink" x="0px" y="0px"
	 viewBox="0 0 355 295.4" style="enable-background:new 0 0 355 295.4;" xml:space="preserve">
<style type="text/css">
	.st0{fill:#C1B5D7;}
	.st1{fill:#523E98;}
	.st2{fill:#FEC00F;}
	.st3{fill:#856DB1;}
	.st4{fill:#FFFFFF;}
</style>
<polyline class="st0" points="334.4,276.5 19.4,276.5 19.4,295.4 334.4,295.4 334.4,276.5 "/>
<path class="st1" d="M350.5,240.5v-3H4.5v1.5l1.1-1.1c-0.3-0.3-0.7-0.4-1.1-0.4v1.5l1.1-1.1L4.5,239l1.5,0c0-0.4-0.2-0.8-0.4-1.1
	L4.5,239l1.5,0V34H4.5l1.1,1.1C5.8,34.8,6,34.4,6,34H4.5l1.1,1.1L4.5,34v1.5c0.4,0,0.8-0.2,1.1-0.4L4.5,34v1.5h346V34l-1.1,1.1
	c0.3,0.3,0.7,0.4,1.1,0.4V34l-1.1,1.1l1.1-1.1l-1.5,0c0,0.4,0.2,0.8,0.4,1.1l1.1-1.1l-1.5,0v205h1.5l-1.1-1.1
	c-0.3,0.3-0.4,0.7-0.4,1.1h1.5l-1.1-1.1l1.1,1.1v-1.5c-0.4,0-0.8,0.2-1.1,0.4l1.1,1.1v-1.5V240.5v3c1.2,0,2.4-0.5,3.2-1.3
	c0.8-0.8,1.3-1.9,1.3-3.2V34c0-1.2-0.5-2.4-1.3-3.2c-0.8-0.8-1.9-1.3-3.2-1.3H4.5c-1.2,0-2.4,0.5-3.2,1.3C0.5,31.6,0,32.8,0,34v205
	c0,1.2,0.5,2.4,1.3,3.2c0.8,0.8,1.9,1.3,3.2,1.3h346V240.5z"/>
<rect x="23.8" y="53.5" class="st2" width="309.2" height="151"/>
<polygon class="st1" points="210.3,240.5 210.3,237.5 140.3,237.5 140.3,261.5 213.3,261.5 213.3,237.5 210.3,237.5 210.3,240.5 
	207.3,240.5 207.3,255.5 146.3,255.5 146.3,243.5 210.3,243.5 210.3,240.5 207.3,240.5 "/>
<polygon class="st1" points="257.3,258.5 257.3,255.5 93.3,255.5 93.3,279.5 260.3,279.5 260.3,255.5 257.3,255.5 257.3,258.5 
	254.3,258.5 254.3,273.5 99.3,273.5 99.3,261.5 257.3,261.5 257.3,258.5 254.3,258.5 "/>
<circle class="st2" cx="299.5" cy="221.2" r="8.5"/>
<polyline class="st3" points="266,218.2 260,218.2 260,224.2 266,224.2 "/>
<polyline class="st3" points="250.7,218.2 244.7,218.2 244.7,224.2 250.7,224.2 "/>
<polyline class="st3" points="235.5,218.2 229.5,218.2 229.5,224.2 235.5,224.2 "/>
<polyline class="st3" points="220.2,218.2 214.2,218.2 214.2,224.2 220.2,224.2 "/>
<rect x="23.8" y="215.8" class="st1" width="60.2" height="10"/>
<polygon class="st4" points="151.3,113.4 170.6,113.4 170.6,120.3 158.5,120.3 158.5,123.7 169.5,123.7 169.5,130.2 158.5,130.2 
	158.5,133.6 171,133.6 171,140.5 151.3,140.5 "/>
<polygon class="st4" points="197.6,140.5 190.6,140.5 188.1,124 188,124 185.6,140.5 178.5,140.5 172.2,113.4 179.2,113.4 
	182.1,130.1 182.2,130.1 185,113.4 191.3,113.4 194,130.4 194.1,130.4 197,113.4 204.1,113.4 "/>
<path class="st4" d="M211.5,131.4c0,0.7,0.1,1.3,0.3,1.8c0.5,1.6,2.1,2,3.4,2c1.2,0,3-0.5,3-2.5c0-1.4-1-1.8-5-3.1
	c-3.7-1.2-7.9-2.4-7.9-7.9c0-6.3,4.6-9,9.4-9c5.1,0,9.5,2.2,9.7,8.8h-6.8c0.1-1-0.3-1.7-0.8-2.2c-0.6-0.5-1.4-0.7-2.1-0.7
	c-1,0-2.6,0.3-2.6,1.8c0.1,1.9,3.5,2.4,6.8,3.4c3.3,1.1,6.6,2.8,6.6,7.8c0,7.1-5.6,9.3-10.8,9.3c-2.6,0-10.2-1.1-10.3-9.8H211.5z"/>
<path class="st4" d="M273.3,5c3.2,0,3.2-5,0-5C270.1,0,270.1,5,273.3,5z"/>
<polygon class="st4" points="147.5,134.6 147.5,113.4 140.7,113.4 140.7,122.1 "/>
<polygon class="st4" points="140.7,127.9 133.9,113.4 126.5,113.4 126.5,140.5 133.3,140.5 133.3,125.7 133.4,125.7 140.5,140.5 
	147.5,140.5 "/>
</svg>
