<?xml version="1.0" encoding="utf-8"?>
<!-- Generator: Adobe Illustrator 25.2.0, SVG Export Plug-In . SVG Version: 6.00 Build 0)  -->
<svg version="1.1" id="Layer_1" xmlns="http://www.w3.org/2000/svg" xmlns:xlink="http://www.w3.org/1999/xlink" x="0px" y="0px"
	 viewBox="0 0 240.8 266.4" style="enable-background:new 0 0 240.8 266.4;" xml:space="preserve">
<style type="text/css">
	.st0{fill:#9F493B;}
	.st1{fill:#FFCCB7;}
	.st2{fill:#F79A7C;}
	.st3{fill:#793A2D;}
</style>
<path class="st0" d="M240.8,256.4v10H0v-10c0-36.6,26.6-67.8,62.8-73.6c16.2-2.6,29.1-3.3,29.1-3.3l15.2-3.9h26.7l15.2,3.9
	c0,0,12.9,0.7,29.1,3.3C214.2,188.5,240.8,219.7,240.8,256.4z"/>
<path class="st0" d="M120.2,4.6L120.2,4.6c-29.2,0-52.8,23.6-52.8,52.8v11.4h105.6V57.4C173.1,28.2,149.4,4.6,120.2,4.6z"/>
<path class="st1" d="M148.7,139.1H91.8v40.3h0c16.4,11.8,38.3,12.2,55.1,1.1l1.7-1.1V139.1z"/>
<path class="st1" d="M148.7,139.1v29c-8,5.1-17.5,8-27.8,8h-1.3c-10.2,0-19.7-2.9-27.8-8v-29H148.7z"/>
<path class="st2" d="M148.7,139.1v29c-8,5.1-17.5,8-27.8,8h-1.3c-10.2,0-19.7-2.9-27.8-8v-29H148.7z"/>
<path class="st1" d="M172.8,74H67.7v43.9c0,28.7,23.3,51.9,51.9,51.9h1.3c28.7,0,51.9-23.3,51.9-51.9V74z"/>
<path class="st1" d="M172.8,74H67.7v43.9c0,28.7,23.3,51.9,51.9,51.9h1.3c28.7,0,51.9-23.3,51.9-51.9V74z"/>
<path class="st3" d="M170.4,59.8H70.1c-4.8,0-8.7,3.9-8.7,8.7v0.4c0,4.8,3.9,8.7,8.7,8.7h100.4c4.8,0,8.7-3.9,8.7-8.7v-0.4
	C179.1,63.7,175.2,59.8,170.4,59.8z"/>
<path class="st3" d="M120.2,0L120.2,0c-2.5,0-4.5,2-4.5,4.5v2.5h9V4.5C124.7,2,122.7,0,120.2,0z"/>
<path class="st3" d="M148.2,86.1c-12.1,3.5-26.5,3.9-28,4c-1.5,0-15.9-0.5-28-4c-11.7-3.4-21.2-2.2-24.5,4.2v18
	c0,0,22.7,24.7,52.5,9.8c29.8,14.9,52.5-9.8,52.5-9.8v-18C169.4,83.9,159.9,82.7,148.2,86.1z M91.7,110c-6.8-2-10.6-9.7-10.6-9.7
	s7.3-4.5,14.1-2.5c6.8,2,10.6,9.7,10.6,9.7S98.6,112,91.7,110z M148.8,110c-6.8,2-14.1-2.5-14.1-2.5s3.8-7.7,10.6-9.7
	c6.8-2,14.1,2.5,14.1,2.5S155.6,108,148.8,110z"/>
<path class="st3" d="M59.4,229.4v37H46.8V242C46.8,235.1,52.5,229.4,59.4,229.4z"/>
<path class="st3" d="M193.6,242v24.4H181v-37C187.9,229.4,193.6,235.1,193.6,242z"/>
</svg>
