<?xml version="1.0" encoding="utf-8"?>
<!-- Generator: Adobe Illustrator 25.2.0, SVG Export Plug-In . SVG Version: 6.00 Build 0)  -->
<svg version="1.1" id="Layer_1" xmlns="http://www.w3.org/2000/svg" xmlns:xlink="http://www.w3.org/1999/xlink" x="0px" y="0px"
	 viewBox="0 0 137.3 155.4" style="enable-background:new 0 0 137.3 155.4;" xml:space="preserve">
<style type="text/css">
	.st0{fill:#434343;}
	.st1{fill:#F78C1E;}
	.st2{fill:#BDBDBD;}
	.st3{fill:#EEEEEE;}
	.st4{fill:#E0E0E0;}
	.st5{fill:#616262;}
	.st6{fill:#F8981D;}
	.st7{fill:#F5F5F5;}
</style>
<g>
	<g>
		<path class="st0" d="M99.3,124.8c0,0.8,0,1.5-0.1,2.2c-0.5,7.4-3.7,14.1-8.6,19.2c-5.6,5.7-13.3,9.3-21.9,9.3v-8
			c2.6,0,5.1-0.4,7.4-1.3c1.6-0.6,3.1-1.3,4.5-2.2c6.4-4,10.7-11.1,10.7-19.2c0-1.5-0.1-2.9-0.4-4.3c-2-10.5-11.2-18.4-22.2-18.4v-8
			c15.5,0,28.3,11.5,30.4,26.4C99.2,121.9,99.3,123.3,99.3,124.8z"/>
	</g>
	<path class="st1" d="M103.3,93.3c6.2,0,11.8-2.4,16-6.4c-0.3,1-0.6,1.9-0.9,2.8c-3.9,11.4-8.7,21.4-14.7,30.8
		c-1.4,2.2-2.9,4.4-4.4,6.5c0-0.7,0.1-1.5,0.1-2.2c0-1.5-0.1-2.9-0.3-4.3C97,105.6,84.2,94.1,68.7,94.1V12.7h1.9l3.5,0.5
		c3.4,0.5,6.7,1.3,9.9,2.4c7.8,2.8,14.8,7.4,20.7,13.2c2.3,2.3,4.4,4.8,6.3,7.4c4,5.5,7,11.7,9,18.2c-4.2-4.4-10.1-7.1-16.7-7.1
		c-12.7,0-23,10.3-23,23C80.3,83,90.6,93.3,103.3,93.3z"/>
	<path class="st2" d="M111,13.5v22.7c-1.9-2.7-4-5.1-6.3-7.4C98.8,23,91.8,18.3,84,15.6v-2.1c0-3.7,1.5-7.1,3.9-9.5
		c2.5-2.5,5.8-4,9.6-4C105,0,111,6.1,111,13.5z"/>
	<path class="st0" d="M126.3,70.3c0,6.5-2.7,12.4-7,16.6v0c-4.1,4-9.8,6.4-16,6.4c-12.7,0-23-10.3-23-23c0-12.7,10.3-23,23-23
		c6.6,0,12.5,2.7,16.7,7.1C123.9,58.6,126.3,64.2,126.3,70.3z"/>
	<path class="st2" d="M112.2,120.5v25.6c0,0,0,0,0,0H90.6c4.9-5,8.1-11.7,8.6-19.2c1.5-2.1,3-4.3,4.4-6.5H112.2z"/>
	<path class="st3" d="M91.3,124.8c0,8.1-4.3,15.2-10.7,19.2c-1.4,0.9-2.9,1.6-4.5,2.2c-2.3,0.8-4.8,1.3-7.4,1.3v-10
		c7,0,12.7-5.7,12.7-12.7c0-1.5-0.3-2.9-0.7-4.3c-1.8-4.9-6.4-8.4-11.9-8.4v-10c11,0,20.2,7.9,22.2,18.4
		C91.2,121.9,91.3,123.3,91.3,124.8z"/>
	<path class="st0" d="M81.3,124.8c0,7-5.7,12.7-12.7,12.7v-25.3c5.5,0,10.2,3.5,11.9,8.4C81.1,121.8,81.3,123.3,81.3,124.8z"/>
	<g>
		<path class="st0" d="M137.3,124.1v18.5c0,7.1-5.7,12.8-12.8,12.8c-5.9,0-10.8-3.9-12.3-9.3c0,0,0,0,0,0v-25.6
			c0.6-2.1,1.7-4,3.3-5.5c2.3-2.3,5.5-3.8,9.1-3.8C131.6,111.2,137.3,117,137.3,124.1z"/>
	</g>
	<path class="st4" d="M46.7,146.2H25.2c0,0,0,0,0,0v-25.6h8.5c1.4,2.2,2.9,4.3,4.4,6.5C38.6,134.4,41.8,141.1,46.7,146.2z"/>
	<path class="st5" d="M25.2,120.5v25.6c0,0,0,0,0,0c-1.6,5.4-6.5,9.3-12.3,9.3c-7.1,0-12.8-5.7-12.8-12.8v-18.5
		c0-7.1,5.8-12.8,12.8-12.8c3.5,0,6.8,1.4,9.1,3.8C23.4,116.5,24.6,118.4,25.2,120.5z"/>
	<path class="st5" d="M46.4,120.5c-0.3,1.4-0.4,2.8-0.4,4.3c0,8.1,4.3,15.2,10.7,19.2c1.4,0.9,2.9,1.6,4.5,2.2
		c2.3,0.8,4.8,1.3,7.4,1.3v8c-8.6,0-16.4-3.5-22-9.3c-4.9-5-8.1-11.8-8.6-19.2c0-0.7-0.1-1.5-0.1-2.2c0-1.5,0.1-2.9,0.3-4.3
		c2.1-14.9,14.9-26.4,30.4-26.4v8C57.6,102.1,48.4,110,46.4,120.5z"/>
	<path class="st6" d="M68.7,12.7v81.4c-15.5,0-28.3,11.5-30.4,26.4c-0.2,1.4-0.3,2.8-0.3,4.3c0,0.7,0,1.5,0.1,2.2
		c-1.5-2.1-3-4.3-4.4-6.5c-0.5-0.8-1-1.6-1.5-2.4c-5.3-8.7-9.7-17.9-13.2-28.3c-0.3-0.9-0.6-1.9-0.9-2.9c4.1,4,9.8,6.5,16,6.5
		c12.7,0,23-10.3,23-23c0-12.7-10.3-23-23-23c-6.6,0-12.5,2.8-16.7,7.2c1.9-6.6,5-12.8,9-18.2c6.8-9.4,16.2-16.8,27-20.7
		c3.2-1.1,6.5-1.9,9.9-2.4l3.5-0.5H68.7z"/>
	<path class="st5" d="M57,70.3c0,12.7-10.3,23-23,23c-6.2,0-11.8-2.4-16-6.5c-4.3-4.2-7-10-7-16.5c0-6.1,2.4-11.7,6.3-15.8
		c4.2-4.4,10.1-7.2,16.7-7.2C46.7,47.3,57,57.6,57,70.3z"/>
	<path class="st4" d="M53.3,13.5v2.1c-10.8,3.8-20.2,11.2-27,20.7V13.5C26.3,6.1,32.4,0,39.8,0c3.7,0,7.1,1.5,9.5,4
		C51.8,6.4,53.3,9.8,53.3,13.5z"/>
	<path class="st7" d="M56.7,120.5c-0.5,1.3-0.7,2.8-0.7,4.3c0,7,5.7,12.7,12.7,12.7v10c-2.6,0-5.1-0.4-7.4-1.3
		c-1.6-0.6-3.1-1.3-4.5-2.2c-6.4-4-10.7-11.1-10.7-19.2c0-1.5,0.1-2.9,0.4-4.3c2-10.5,11.2-18.4,22.3-18.4v10
		C63.2,112.1,58.5,115.6,56.7,120.5z"/>
	<path class="st5" d="M68.7,112.1v25.3c-7,0-12.7-5.7-12.7-12.7c0-1.5,0.3-2.9,0.7-4.3C58.5,115.6,63.2,112.1,68.7,112.1z"/>
</g>
</svg>
