<?xml version="1.0" encoding="utf-8"?>
<!-- Generator: Adobe Illustrator 25.2.0, SVG Export Plug-In . SVG Version: 6.00 Build 0)  -->
<svg version="1.1" id="Layer_1" xmlns="http://www.w3.org/2000/svg" xmlns:xlink="http://www.w3.org/1999/xlink" x="0px" y="0px"
	 viewBox="0 0 134.2 147.5" style="enable-background:new 0 0 134.2 147.5;" xml:space="preserve">
<style type="text/css">
	.st0{fill:#434343;}
	.st1{fill:#E53A35;}
	.st2{fill:#FDD836;}
	.st3{fill:#EF4438;}
	.st4{fill:#FEEA39;}
	.st5{fill:#616262;}
	.st6{fill:#F78C1E;}
	.st7{fill:#F8981D;}
</style>
<g>
	<g>
		<g>
			<g>
				<path class="st0" d="M81.6,79.9v30.9H67.1V65.3c4,0,7.7,1.6,10.3,4.3C80,72.2,81.6,75.9,81.6,79.9z"/>
			</g>
		</g>
		<g>
			<path class="st1" d="M128.1,53.4c-1.4,1.8-3.5,2.8-5.6,2.8c-1.5,0-3-0.5-4.3-1.4l-2.6-2L67.1,16V0c1.5,0,3,0.5,4.3,1.4L115.5,35
				l11.2,8.5C129.8,45.9,130.5,50.3,128.1,53.4z"/>
		</g>
		<g>
			<path class="st2" d="M115.5,52.8v58H67.1l0,0h14.5V79.9c0-4-1.6-7.6-4.3-10.3c-2.6-2.6-6.2-4.3-10.3-4.3V16L115.5,52.8z"/>
		</g>
		<g>
			<path class="st3" d="M67.1,0v16L18.7,52.8l-2.6,2c-3.1,2.4-7.6,1.8-9.9-1.4c-2.4-3.1-1.8-7.5,1.4-9.9L18.7,35L62.8,1.4
				C64.1,0.5,65.6,0,67.1,0z"/>
		</g>
		<g>
			<path class="st4" d="M52.6,79.9v30.9h14.6l0,0H18.7v-58L67.1,16v49.3C59.1,65.3,52.6,71.8,52.6,79.9z"/>
		</g>
		<g>
			<path class="st5" d="M67.1,65.3v45.4H52.6V79.9C52.6,71.8,59.1,65.3,67.1,65.3z"/>
		</g>
	</g>
	<path class="st6" d="M134.2,115.2c0,13.9-6,22.3-11.4,27c-3.9,3.4-9,5.2-14.1,5.2H67.1V98.1c0.7-0.1,1.3-0.2,2.1-0.2
		c7.5,0,5.9-5.6,3.9-9.6c-1-2,0.3-4.3,2.5-4.6l2.3,0.8c2.5,0.8,5.1,1.4,7.8,1.9c9.4,1.7,13.4,11.2,15.9,20.5c1.1,4.1,7,3.7,7.6-0.4
		c0.6-4.4-0.2-9.8-0.7-12.6c-0.2-1,0.6-2,1.7-1.9C116.2,92.2,134.2,94.6,134.2,115.2z"/>
	<path class="st7" d="M67.1,98.1v49.4H23.3c-7.7,0-14.9-3.9-18.7-10.6c-8-14.3,7.1-27.8,7.1-37.3C11.8,91.4,5,85.1,0.7,82
		c-1.2-0.9-0.7-2.8,0.8-3c28.1-3.8,42.4,16.8,47.9,27.5c1.2,2.3,4.4,2.5,5.8,0.4C57.6,103.2,61.6,98.9,67.1,98.1z"/>
</g>
</svg>
