<?xml version="1.0" encoding="utf-8"?>
<!-- Generator: Adobe Illustrator 25.2.0, SVG Export Plug-In . SVG Version: 6.00 Build 0)  -->
<svg version="1.1" id="Layer_1" xmlns="http://www.w3.org/2000/svg" xmlns:xlink="http://www.w3.org/1999/xlink" x="0px" y="0px"
	 viewBox="0 0 478 508" style="enable-background:new 0 0 478 508;" xml:space="preserve">
<style type="text/css">
	.st0{fill:#FFFFFF;}
	.st1{fill:#1A1A1A;}
	.st2{fill:#00A5D3;}
	.st3{fill:#EF3F6B;}
</style>
<g>
	<path class="st0" d="M460,160.2c-14.3,0-26,11.6-26,25.9v62.8c0,2-0.7,3.9-2.1,5.3l-91.2,91.2c-2.9,2.9-7.6,2.9-10.6,0
		c-2.9-2.9-2.9-7.7,0-10.6l37.4-37.4c5.9-5.9,9.1-13.6,9.1-21.9c0-8.3-3.2-16.1-9.1-21.9c-0.7-0.7-1.6-0.8-2-0.8s-1.3,0.1-2,0.8
		l-56.6,56.4c-12.1,12.1-18.9,28.1-18.9,45.2V445h80v-25.1c0-1.5,0.6-2.9,1.4-4.2l87.5-130.6c4-6,6.1-12.9,6.1-20.1V163.1
		C463,161.5,461.6,160.2,460,160.2z"/>
	<path class="st1" d="M460,145.2c-22.6,0-41,18.4-41,40.9v59.7l-27.5,27.7c-0.5-11.1-4.9-22-13.3-30.4c-3.4-3.4-7.8-5.2-12.6-5.2
		c-4.8,0-9.3,1.9-12.6,5.2l-56.6,56.4c-14.9,14.9-23.3,34.7-23.3,55.8V445h-8.6c-4.1,0-7.4,3.1-7.4,7.2v48.6c0,4.1,3.3,7.2,7.4,7.2
		h16.5h94.8h16.5c4.1,0,7.8-3,7.8-7.2v-48.6c0-4.1-3.6-7.2-7.8-7.2H383v-22.8l86.3-128.7c5.7-8.5,8.7-18.3,8.7-28.5V163.1
		C478,153.3,469.9,145.2,460,145.2z M463,265.1c0,7.2-2.1,14.1-6.1,20.1l-87.6,130.6c-0.8,1.2-1.4,2.7-1.4,4.2V445h-80v-89.7
		c0-17.1,6.8-33.1,18.9-45.2l56.5-56.4c0.7-0.7,1.6-0.8,2.1-0.8c0.4,0,1.3,0.1,2.1,0.8c5.9,5.9,9.1,13.6,9.1,21.9
		c0,8.3-3.2,16.1-9.1,21.9l-37.4,37.4c-2.9,2.9-2.9,7.7,0,10.6c2.9,2.9,7.7,2.9,10.6,0l91.1-91.2c1.4-1.4,2.1-3.3,2.1-5.3v-62.8
		c0-14.3,11.7-25.9,26-25.9c1.6,0,3,1.3,3,2.9V265.1z M385,493h-16.8h-79.8H272v-33h113V493z"/>
	<polygon class="st2" points="272,460 272,493 288.4,493 368.2,493 385,493 385,460 	"/>
	<path class="st0" d="M190,445v-89.7c0-17.1-6.9-33.1-18.9-45.2l-56.5-56.4c-0.7-0.7-1.6-0.8-2.1-0.8c-0.4,0-1.3,0.1-2.1,0.8
		c-5.9,5.9-9.1,13.6-9.1,21.9c0,8.3,3.2,16.1,9.1,21.9l37.4,37.4c2.9,2.9,2.9,7.7,0,10.6c-2.9,2.9-7.7,2.9-10.6,0l-91.1-91.2
		c-1.4-1.4-2.1-3.3-2.1-5.3v-62.8c0-14.3-11.7-25.9-26-25.9c-1.6,0-3,1.3-3,2.9v101.9c0,7.2,2.1,14.1,6.1,20.1l87.6,130.6
		c0.8,1.2,1.4,2.7,1.4,4.2V445H190z"/>
	<polygon class="st2" points="93,460 93,493 109.7,493 189.6,493 206,493 206,460 	"/>
	<path class="st1" d="M213.6,445H205v-89.7c0-21.1-8.4-40.9-23.3-55.8l-56.5-56.4c-3.4-3.4-7.9-5.2-12.7-5.2
		c-4.8,0-9.3,1.9-12.7,5.2c-8.2,8.2-12.8,18.9-13.3,30.4L59,245.8v-59.7c0-22.6-18.5-40.9-41-40.9c-9.9,0-18,8-18,17.9v101.9
		c0,10.2,3.1,20,8.7,28.5L95,422.2V445h-9.2c-4.1,0-7.8,3.1-7.8,7.2v48.6c0,4.1,3.6,7.2,7.8,7.2h16.5h94.8h16.5c4.1,0,7.4-3,7.4-7.2
		v-48.6C221,448.1,217.7,445,213.6,445z M206,493h-16.4h-79.8H93v-33h113V493z M108.6,415.7L21.1,285.2c-4-6-6.1-12.9-6.1-20.1
		V163.1c0-1.6,1.4-2.9,3-2.9c14.3,0,26,11.6,26,25.9v62.8c0,2,0.6,3.9,2.1,5.3l91.2,91.2c2.9,2.9,7.6,2.9,10.6,0
		c2.9-2.9,2.9-7.7,0-10.6l-37.4-37.4c-5.9-5.9-9.1-13.6-9.1-21.9c0-8.3,3.2-16.1,9.1-21.9c0.7-0.7,1.6-0.8,2-0.8
		c0.4,0,1.3,0.1,2,0.8l56.6,56.4c12.1,12.1,18.9,28.1,18.9,45.2V445h-80v-25.1C110,418.4,109.4,417,108.6,415.7z"/>
	<path class="st0" d="M308.8,141c0,1,0,0.5,0,0.6c-0.1,1.9-0.1,3.9-0.2,5.8c0,0.4,0,0.9-0.1,1.3c-0.1,1.7-0.2,3.4-0.3,5.1
		c0,0.3,0,0.6-0.1,0.9c-0.2,1.9-0.3,3.8-0.5,5.7c0,0.4-0.1,0.9-0.1,1.3c-0.2,1.7-0.4,3.4-0.6,5.2c0,0.2,0,0.4-0.1,0.6
		c-0.2,1.9-0.5,3.7-0.8,5.5c-0.1,0.4-0.1,0.9-0.2,1.3c-0.3,1.8-0.6,3.7-0.9,5.5c0,0,0,0,0,0.1c-0.3,1.8-0.7,3.6-1.1,5.4
		c-0.1,0.4-0.2,0.8-0.3,1.2c-0.4,1.8-0.8,3.5-1.2,5.3c0,0,0,0.1,0,0.1c0.2,0.1,0.4,0.1,0.6,0.2c1,0.3,2.1,0.7,3.1,1
		c0.3,0.1,0.7,0.2,1,0.3c1.3,0.4,2.6,0.9,3.8,1.3c0.2,0.1,0.3,0.1,0.5,0.2c1.1,0.4,2.2,0.8,3.3,1.2c0.3,0.1,0.7,0.3,1,0.4
		c1.1,0.4,2.2,0.9,3.2,1.3c0.1,0.1,0.3,0.1,0.4,0.2c1.2,0.5,2.4,1,3.5,1.6c0.3,0.1,0.6,0.3,0.9,0.4c0.9,0.4,1.9,0.9,2.8,1.3
		c0.3,0.1,0.5,0.3,0.8,0.4c1.1,0.6,2.2,1.1,3.3,1.7c0.2,0.1,0.4,0.2,0.6,0.3c0.9,0.5,1.8,1,2.7,1.5c0.2,0.1,0.3,0,0.5,0.1
		c14-18.6,22.2-40.3,23.7-64.3H308.8z"/>
	<path class="st3" d="M302.2,76c0.4,1.7,0.8,3.5,1.2,5.3c0.1,0.4,0.2,0.8,0.3,1.2c0.4,1.8,0.7,3.6,1.1,5.4c0,0,0,0,0,0
		c0.3,1.8,0.6,3.6,0.9,5.5c0.1,0.4,0.1,0.9,0.2,1.3c0.3,1.8,0.6,3.7,0.8,5.5c0,0.2,0,0.4,0.1,0.6c0.2,1.7,0.4,3.4,0.6,5.2
		c0,0.4,0.1,0.9,0.1,1.3c0.2,1.9,0.4,3.8,0.5,5.6c0,0.3,0,0.6,0.1,0.9c0.1,1.7,0.2,3.4,0.3,5.1c0,0.4,0,0.8,0.1,1.2
		c0.1,1.9,0.2,3.6,0.2,5.5c0,0.1,0,0.2,0,0.2h49.2c-1.5-23-9.7-45.4-23.7-63.9c-0.2,0.1-0.3,0.3-0.5,0.4c-0.9,0.5-1.7,1-2.6,1.5
		c-0.2,0.1-0.4,0.3-0.7,0.4c-1.1,0.6-2.2,1.2-3.3,1.7c-0.3,0.1-0.5,0.3-0.8,0.4c-0.9,0.4-1.8,0.9-2.8,1.3c-0.3,0.1-0.6,0.3-0.9,0.4
		c-1.2,0.5-2.3,1.1-3.5,1.6c-0.1,0.1-0.3,0.1-0.4,0.2c-1.1,0.5-2.2,0.9-3.2,1.3c-0.3,0.1-0.7,0.3-1,0.4c-1.1,0.4-2.2,0.8-3.3,1.2
		c-0.2,0.1-0.3,0.1-0.5,0.2c-1.3,0.5-2.5,0.9-3.8,1.3c-0.3,0.1-0.7,0.2-1,0.3c-1,0.3-2.1,0.7-3.1,1C302.6,75.8,302.4,75.8,302.2,76
		C302.2,75.9,302.2,76,302.2,76z"/>
	<path class="st3" d="M175.7,191.8c-0.4-1.7-0.8-3.5-1.2-5.3c-0.1-0.4-0.2-0.8-0.3-1.2c-0.4-1.8-0.7-3.6-1.1-5.4c0,0,0,0,0-0.1
		c-0.3-1.8-0.6-3.6-0.9-5.5c-0.1-0.4-0.1-0.9-0.2-1.3c-0.3-1.8-0.6-3.7-0.8-5.5c0-0.2,0-0.4-0.1-0.6c-0.2-1.7-0.4-3.4-0.6-5.2
		c0-0.4-0.1-0.9-0.1-1.3c-0.2-1.9-0.4-3.8-0.5-5.6c0-0.3,0-0.6-0.1-0.9c-0.1-1.7-0.2-3.4-0.3-5.1c0-0.4,0-0.8-0.1-1.2
		c-0.1-1.9-0.2-4-0.2-5.9c0-0.1,0,0.4,0-0.6H120c1.5,24,9.7,45.8,23.7,64.3c0.2-0.1,0.3-0.1,0.5-0.2c0.9-0.5,1.8-1,2.7-1.4
		c0.2-0.1,0.4-0.2,0.6-0.3c1.1-0.6,2.2-1.1,3.3-1.7c0.3-0.1,0.5-0.2,0.8-0.4c0.9-0.4,1.8-0.9,2.8-1.3c0.3-0.1,0.6-0.3,0.9-0.4
		c1.2-0.5,2.3-1.1,3.5-1.6c0.1-0.1,0.3-0.1,0.4-0.2c1.1-0.5,2.1-0.9,3.2-1.3c0.3-0.1,0.7-0.3,1-0.4c1.1-0.4,2.2-0.8,3.3-1.2
		c0.2-0.1,0.3-0.1,0.5-0.2c1.3-0.5,2.5-0.9,3.8-1.3c0.3-0.1,0.7-0.2,1-0.3c1-0.3,2.1-0.7,3.1-1C175.3,192,175.5,191.9,175.7,191.8
		C175.7,191.8,175.7,191.8,175.7,191.8z"/>
	<path class="st0" d="M169.2,126c0,0,0-0.1,0-0.2c0.1-1.9,0.1-3.7,0.2-5.6c0-0.4,0-0.8,0.1-1.2c0.1-1.7,0.2-3.4,0.3-5.1
		c0-0.3,0-0.6,0.1-0.9c0.2-1.9,0.3-3.8,0.5-5.6c0-0.4,0.1-0.9,0.1-1.3c0.2-1.7,0.4-3.4,0.6-5.2c0-0.2,0-0.4,0.1-0.6
		c0.2-1.9,0.5-3.7,0.8-5.5c0.1-0.4,0.1-0.9,0.2-1.3c0.3-1.8,0.6-3.7,0.9-5.5c0,0,0,0,0,0c0.3-1.8,0.7-3.6,1.1-5.4
		c0.1-0.4,0.2-0.8,0.3-1.2c0.4-1.8,0.8-3.5,1.2-5.3c0,0,0-0.1,0-0.1c-0.2-0.1-0.4-0.1-0.6-0.2c-1.1-0.3-2.1-0.7-3.1-1
		c-0.3-0.1-0.7-0.2-1-0.3c-1.3-0.4-2.6-0.9-3.8-1.3c-0.2-0.1-0.3-0.1-0.5-0.2c-1.1-0.4-2.2-0.8-3.3-1.2c-0.3-0.1-0.7-0.3-1-0.4
		c-1.1-0.4-2.2-0.9-3.2-1.3c-0.1-0.1-0.3-0.1-0.4-0.2c-1.2-0.5-2.4-1-3.5-1.6c-0.3-0.1-0.6-0.3-0.9-0.4c-0.9-0.4-1.8-0.9-2.8-1.3
		c-0.3-0.1-0.5-0.3-0.8-0.4c-1.1-0.6-2.2-1.1-3.3-1.7c-0.2-0.1-0.4-0.2-0.7-0.4c-0.9-0.5-1.8-1-2.6-1.5c-0.2-0.1-0.3-0.4-0.5-0.5
		c-14,18.6-22.2,40.9-23.7,63.9H169.2z"/>
	<path class="st0" d="M287.7,79.5c-1.9,0.4-3.8,0.9-5.7,1.3c-0.5,0.1-1,0.2-1.5,0.3c-1.6,0.3-3.2,0.6-4.8,0.9
		c-0.6,0.1-1.2,0.2-1.8,0.3c-1.9,0.3-3.8,0.6-5.7,0.8c-0.2,0-0.4,0.1-0.5,0.1c-2.1,0.3-4.2,0.5-6.3,0.7c-0.6,0.1-1.2,0.1-1.8,0.2
		c-1.6,0.1-3.2,0.3-4.9,0.4c-0.6,0-1.4,0.1-2,0.1c-2.1,0.1-3.6,0.2-6.6,0.3V126h47.8C293.3,110,291.2,94,287.7,79.5z"/>
	<path class="st0" d="M231,141h-46.8c0.5,17,2.6,32.4,6.1,46.9c1.9-0.4,3.8-0.7,5.7-1.1c0.5-0.1,1-0.1,1.5-0.2
		c1.6-0.3,3.2-0.5,4.8-0.8c0.6-0.1,1.2-0.2,1.8-0.3c1.9-0.3,3.8-0.6,5.7-0.8c0.2,0,0.4,0,0.5-0.1c2.1-0.3,4.2-0.5,6.3-0.7
		c0.6-0.1,1.2-0.1,1.8-0.2c1.6-0.1,3.2-0.3,4.9-0.4c0.6,0,1-0.1,1.6-0.1c2.1-0.1,4.1-0.2,6.1-0.3V141z"/>
	<path class="st3" d="M246,141v42c3,0.1,4.5,0.2,6.6,0.3c0.6,0,1.3,0.1,1.9,0.1c1.6,0.1,3.3,0.2,4.9,0.4c0.6,0.1,1.2,0.1,1.8,0.2
		c2.1,0.2,4.2,0.4,6.3,0.7c0.2,0,0.4,0.1,0.6,0.1c1.9,0.2,3.8,0.5,5.7,0.8c0.6,0.1,1.2,0.2,1.8,0.3c1.6,0.3,3.2,0.5,4.8,0.8
		c0.5,0.1,1,0.2,1.5,0.3c1.9,0.4,3.8,0.6,5.7,1c3.5-14.5,5.6-29.9,6.1-46.9H246z"/>
	<path class="st3" d="M231,126V84.8c-2-0.1-4-0.2-6.1-0.3c-0.6,0-1.1-0.1-1.7-0.1c-1.6-0.1-3.2-0.2-4.8-0.4
		c-0.6-0.1-1.2-0.1-1.7-0.2c-2.1-0.2-4.2-0.4-6.3-0.7c-0.2,0-0.4-0.1-0.5-0.1c-1.9-0.2-3.8-0.5-5.7-0.8c-0.6-0.1-1.2-0.2-1.8-0.3
		c-1.6-0.3-3.2-0.5-4.8-0.8c-0.5-0.1-1-0.2-1.5-0.3c-1.9-0.4-3.8-1-5.7-1.4c-3.5,14.5-5.6,30.5-6.1,46.5H231z"/>
	<path class="st3" d="M153.7,50.6c7.8,4.2,16.6,7.9,26.2,10.8c0-0.1,0.1-0.3,0.1-0.4c0.1-0.4,0.3-0.7,0.4-1.1
		c0.3-0.8,0.5-1.6,0.8-2.4c0.1-0.4,0.3-0.8,0.4-1.2c0.3-0.8,0.6-1.5,0.8-2.3c0.1-0.4,0.3-0.7,0.4-1.1c0.4-1,0.8-1.9,1.1-2.9
		c0.1-0.1,0.1-0.3,0.2-0.4c0.4-1.1,0.9-2.1,1.3-3.2c0.1-0.3,0.3-0.6,0.4-1c0.3-0.7,0.6-1.4,1-2.1c0.2-0.4,0.3-0.7,0.5-1.1
		c0.3-0.7,0.6-1.3,1-2c0.2-0.3,0.3-0.7,0.5-1c0.4-0.8,0.8-1.6,1.2-2.4c0.1-0.2,0.2-0.3,0.3-0.5c0.5-0.9,1-1.8,1.5-2.7
		c0.2-0.3,0.3-0.5,0.5-0.8c0.4-0.6,0.7-1.3,1.1-1.9c0.2-0.3,0.4-0.6,0.6-0.9c0.4-0.6,0.7-1.1,1.1-1.7c0.2-0.3,0.4-0.6,0.6-0.9
		c0.4-0.7,0.9-1.3,1.3-1.9c0.1-0.2,0.2-0.3,0.3-0.5c0.6-0.8,1.1-1.6,1.7-2.3c0.2-0.2,0.3-0.4,0.5-0.6c0.3-0.4,0.6-0.8,0.9-1.1
		C183,27,166.9,37.1,153.7,50.6z"/>
	<path class="st0" d="M278.4,22.2c0.2,0.2,0.3,0.4,0.5,0.6c0.6,0.8,1.1,1.5,1.7,2.3c0.1,0.1,0.2,0.3,0.3,0.4c0.5,0.7,0.9,1.3,1.4,2
		c0.2,0.3,0.4,0.6,0.6,0.8c0.4,0.6,0.7,1.1,1.1,1.7c0.2,0.3,0.4,0.6,0.6,0.9c0.4,0.6,0.8,1.3,1.1,1.9c0.2,0.3,0.3,0.5,0.5,0.8
		c0.5,0.9,1,1.8,1.5,2.7c0.1,0.1,0.2,0.3,0.2,0.4c0.4,0.8,0.8,1.6,1.3,2.4c0.2,0.3,0.3,0.7,0.5,1c0.3,0.7,0.7,1.3,1,2
		c0.2,0.4,0.3,0.7,0.5,1.1c0.3,0.7,0.7,1.4,1,2.2c0.1,0.3,0.3,0.6,0.4,0.9c0.5,1,0.9,2.1,1.3,3.2c0.1,0.1,0.1,0.3,0.2,0.4
		c0.4,1,0.8,1.9,1.1,2.9c0.1,0.4,0.3,0.7,0.4,1.1c0.3,0.8,0.6,1.5,0.8,2.3c0.1,0.4,0.3,0.8,0.4,1.2c0.3,0.8,0.6,1.6,0.8,2.4
		c0.1,0.4,0.3,0.7,0.4,1.1c0,0.1,0.1,0.3,0.1,0.4c9.6-2.9,18.4-6.6,26.2-10.8C311.1,37.1,295,27,277.4,21
		C277.7,21.4,278,21.8,278.4,22.2z"/>
	<path class="st3" d="M246,69.8c13-0.4,25.2-1.9,37.1-4.5C274.2,38.4,261,20.5,246,15.9V69.8z"/>
	<path class="st0" d="M193.9,65.3c11.9,2.6,25.1,4.1,37.1,4.5V15.9C217,20.5,202.8,38.4,193.9,65.3z"/>
	<path class="st3" d="M324.3,217.1c-7.8-4.2-16.6-7.9-26.2-10.8c0,0.1-0.1,0.3-0.1,0.4c-0.1,0.4-0.3,0.7-0.4,1.1
		c-0.3,0.8-0.5,1.6-0.8,2.4c-0.1,0.4-0.3,0.8-0.4,1.2c-0.3,0.8-0.6,1.5-0.8,2.3c-0.1,0.4-0.3,0.7-0.4,1.1c-0.4,1-0.8,1.9-1.1,2.9
		c-0.1,0.1-0.1,0.3-0.2,0.4c-0.4,1.1-0.9,2.1-1.3,3.2c-0.1,0.3-0.3,0.6-0.4,0.9c-0.3,0.7-0.7,1.5-1,2.2c-0.2,0.4-0.3,0.7-0.5,1.1
		c-0.3,0.7-0.7,1.4-1,2c-0.2,0.3-0.3,0.7-0.5,1c-0.4,0.8-0.8,1.6-1.3,2.4c-0.1,0.1-0.2,0.3-0.2,0.5c-0.5,0.9-1,1.8-1.5,2.7
		c-0.2,0.3-0.3,0.5-0.5,0.8c-0.4,0.6-0.8,1.3-1.1,1.9c-0.2,0.3-0.4,0.6-0.6,0.9c-0.4,0.6-0.7,1.2-1.1,1.7c-0.2,0.3-0.4,0.6-0.6,0.9
		c-0.4,0.7-0.9,1.3-1.3,2c-0.1,0.2-0.2,0.3-0.3,0.5c-0.6,0.8-1.1,1.6-1.7,2.3c-0.2,0.2-0.3,0.4-0.5,0.6c-0.3,0.4-0.6,0.8-0.9,1.1
		C295,240.8,311.1,230.7,324.3,217.1z"/>
	<path class="st0" d="M199.6,245.6c-0.2-0.2-0.3-0.4-0.5-0.6c-0.6-0.8-1.1-1.5-1.7-2.3c-0.1-0.2-0.2-0.3-0.3-0.5
		c-0.5-0.6-0.9-1.3-1.3-2c-0.2-0.3-0.4-0.6-0.6-0.8c-0.4-0.6-0.7-1.1-1.1-1.7c-0.2-0.3-0.4-0.6-0.6-0.9c-0.4-0.6-0.8-1.3-1.1-1.9
		c-0.2-0.3-0.3-0.5-0.5-0.8c-0.5-0.9-1-1.8-1.5-2.7c-0.1-0.1-0.2-0.3-0.2-0.5c-0.4-0.8-0.8-1.6-1.3-2.4c-0.2-0.3-0.3-0.7-0.5-1
		c-0.3-0.7-0.7-1.3-1-2c-0.2-0.4-0.3-0.7-0.5-1.1c-0.3-0.7-0.7-1.4-1-2.2c-0.1-0.3-0.3-0.6-0.4-0.9c-0.5-1-0.9-2.1-1.3-3.2
		c-0.1-0.1-0.1-0.3-0.2-0.4c-0.4-1-0.8-1.9-1.1-2.9c-0.1-0.4-0.3-0.7-0.4-1.1c-0.3-0.8-0.6-1.5-0.8-2.3c-0.1-0.4-0.3-0.8-0.4-1.2
		c-0.3-0.8-0.6-1.6-0.8-2.4c-0.1-0.4-0.3-0.7-0.4-1.1c0-0.1-0.1-0.3-0.1-0.4c-9.6,2.9-18.4,6.6-26.2,10.8
		c13.2,13.5,29.3,23.6,46.8,29.6C200.2,246.4,199.9,246,199.6,245.6z"/>
	<path class="st1" d="M239,268c39.7,0,77.1-17.4,102.7-47.8c20.3-24.1,31.5-54.8,31.5-86.3S362,71.8,341.7,47.7
		C316.1,17.3,278.7,0,239,0c0,0,0,0,0,0h0c0,0,0,0,0,0c0,0,0,0,0,0c-39.7,0-77.1,17.3-102.7,47.7c-20.3,24.1-31.5,54.7-31.5,86.3
		c0,31.6,11.2,62.1,31.5,86.3C161.9,250.6,199.3,268,239,268C239,268,239,268,239,268C239,268,239,268,239,268
		C239,268,239,268,239,268z M193.9,202.5c11.9-2.6,25.1-4.1,37.1-4.5v53.9C217,247.3,202.8,229.4,193.9,202.5z M172,193.1
		c-0.3,0.1-0.7,0.2-1,0.3c-1.3,0.4-2.6,0.9-3.8,1.3c-0.2,0.1-0.3,0.1-0.5,0.2c-1.1,0.4-2.2,0.8-3.3,1.2c-0.3,0.1-0.7,0.3-1,0.4
		c-1.1,0.4-2.2,0.9-3.2,1.3c-0.1,0.1-0.3,0.1-0.4,0.2c-1.2,0.5-2.4,1-3.5,1.6c-0.3,0.1-0.6,0.3-0.9,0.4c-0.9,0.4-1.9,0.9-2.8,1.3
		c-0.3,0.1-0.5,0.3-0.8,0.4c-1.1,0.6-2.2,1.1-3.3,1.7c-0.2,0.1-0.4,0.2-0.6,0.3c-0.9,0.5-1.8,1-2.7,1.5c-0.2,0.1-0.3,0-0.5,0.1
		c-14-18.6-22.2-40.3-23.7-64.3h49.2c0,1,0,0.5,0,0.6c0.1,1.9,0.1,3.9,0.2,5.8c0,0.4,0,0.9,0.1,1.3c0.1,1.7,0.2,3.4,0.3,5.1
		c0,0.3,0,0.6,0.1,0.9c0.2,1.9,0.3,3.8,0.5,5.7c0,0.4,0.1,0.9,0.1,1.3c0.2,1.7,0.4,3.4,0.6,5.2c0,0.2,0,0.4,0.1,0.6
		c0.2,1.9,0.5,3.7,0.8,5.5c0.1,0.4,0.1,0.9,0.2,1.3c0.3,1.8,0.6,3.7,0.9,5.5c0,0,0,0,0,0.1c0.3,1.8,0.7,3.6,1.1,5.4
		c0.1,0.4,0.2,0.8,0.3,1.2c0.4,1.8,0.8,3.5,1.2,5.3c0,0,0,0.1,0,0.1c-0.2,0.1-0.4,0.1-0.6,0.2C174.1,192.4,173,192.7,172,193.1z
		 M143.7,62.1c0.2,0.1,0.3,0.3,0.5,0.4c0.9,0.5,1.7,1,2.6,1.5c0.2,0.1,0.4,0.3,0.7,0.4c1.1,0.6,2.2,1.2,3.3,1.7
		c0.3,0.1,0.5,0.3,0.8,0.4c0.9,0.4,1.8,0.9,2.8,1.3c0.3,0.1,0.6,0.3,0.9,0.4c1.2,0.5,2.3,1.1,3.5,1.6c0.1,0.1,0.3,0.1,0.4,0.2
		c1.1,0.5,2.2,0.9,3.2,1.3c0.3,0.1,0.7,0.3,1,0.4c1.1,0.4,2.2,0.8,3.3,1.2c0.2,0.1,0.3,0.1,0.5,0.2c1.3,0.5,2.5,0.9,3.8,1.3
		c0.3,0.1,0.7,0.2,1,0.3c1,0.3,2.1,0.7,3.1,1c0.2,0.1,0.4,0.1,0.6,0.2c0,0,0,0.1,0,0.1c-0.4,1.7-0.8,3.5-1.2,5.3
		c-0.1,0.4-0.2,0.8-0.3,1.2c-0.4,1.8-0.7,3.6-1.1,5.4c0,0,0,0,0,0c-0.3,1.8-0.6,3.6-0.9,5.5c-0.1,0.4-0.1,0.9-0.2,1.3
		c-0.3,1.8-0.6,3.7-0.8,5.5c0,0.2,0,0.4-0.1,0.6c-0.2,1.7-0.4,3.4-0.6,5.2c0,0.4-0.1,0.9-0.1,1.3c-0.2,1.9-0.4,3.8-0.5,5.6
		c0,0.3,0,0.6-0.1,0.9c-0.1,1.7-0.2,3.4-0.3,5.1c0,0.4,0,0.8-0.1,1.2c-0.1,1.9-0.2,3.6-0.2,5.5c0,0.1,0,0.2,0,0.2H120
		C121.5,103,129.7,80.6,143.7,62.1z M231,15.9v53.9c-12-0.4-25.2-1.9-37.1-4.5C202.8,38.4,217,20.5,231,15.9z M306,74.7
		c0.3-0.1,0.7-0.2,1-0.3c1.3-0.4,2.6-0.9,3.8-1.3c0.2-0.1,0.3-0.1,0.5-0.2c1.1-0.4,2.2-0.8,3.3-1.2c0.3-0.1,0.7-0.3,1-0.4
		c1.1-0.4,2.2-0.9,3.2-1.3c0.1-0.1,0.3-0.1,0.4-0.2c1.2-0.5,2.4-1,3.5-1.6c0.3-0.1,0.6-0.3,0.9-0.4c0.9-0.4,1.8-0.9,2.8-1.3
		c0.3-0.1,0.5-0.3,0.8-0.4c1.1-0.6,2.2-1.1,3.3-1.7c0.2-0.1,0.4-0.2,0.7-0.4c0.9-0.5,1.8-1,2.6-1.5c0.2-0.1,0.3-0.4,0.5-0.5
		c14,18.6,22.2,40.9,23.7,63.9h-49.2c0,0,0-0.1,0-0.2c-0.1-1.9-0.1-3.7-0.2-5.6c0-0.4,0-0.8-0.1-1.2c-0.1-1.7-0.2-3.4-0.3-5.1
		c0-0.3,0-0.6-0.1-0.9c-0.2-1.9-0.3-3.8-0.5-5.6c0-0.4-0.1-0.9-0.1-1.3c-0.2-1.7-0.4-3.4-0.6-5.2c0-0.2,0-0.4-0.1-0.6
		c-0.2-1.9-0.5-3.7-0.8-5.5c-0.1-0.4-0.1-0.9-0.2-1.3c-0.3-1.8-0.6-3.7-0.9-5.5c0,0,0,0,0,0c-0.3-1.8-0.7-3.6-1.1-5.4
		c-0.1-0.4-0.2-0.8-0.3-1.2c-0.4-1.8-0.8-3.5-1.2-5.3c0,0,0-0.1,0-0.1c0.2-0.1,0.4-0.1,0.6-0.2C303.9,75.4,304.9,75.1,306,74.7z
		 M334.2,205.3c-0.2-0.1-0.3-0.1-0.5-0.2c-0.9-0.5-1.8-1-2.7-1.4c-0.2-0.1-0.4-0.2-0.6-0.3c-1.1-0.6-2.2-1.1-3.3-1.7
		c-0.3-0.1-0.5-0.2-0.8-0.4c-0.9-0.4-1.8-0.9-2.8-1.3c-0.3-0.1-0.6-0.3-0.9-0.4c-1.2-0.5-2.3-1.1-3.5-1.6c-0.1-0.1-0.3-0.1-0.4-0.2
		c-1.1-0.5-2.1-0.9-3.2-1.3c-0.3-0.1-0.7-0.3-1-0.4c-1.1-0.4-2.2-0.8-3.3-1.2c-0.2-0.1-0.3-0.1-0.5-0.2c-1.3-0.5-2.5-0.9-3.8-1.3
		c-0.3-0.1-0.7-0.2-1-0.3c-1-0.3-2.1-0.7-3.1-1c-0.2-0.1-0.4-0.1-0.6-0.2c0,0,0-0.1,0-0.1c0.4-1.7,0.8-3.5,1.2-5.3
		c0.1-0.4,0.2-0.8,0.3-1.2c0.4-1.8,0.7-3.6,1.1-5.4c0,0,0,0,0-0.1c0.3-1.8,0.6-3.6,0.9-5.5c0.1-0.4,0.1-0.9,0.2-1.3
		c0.3-1.8,0.6-3.7,0.8-5.5c0-0.2,0-0.4,0.1-0.6c0.2-1.7,0.4-3.4,0.6-5.2c0-0.4,0.1-0.9,0.1-1.3c0.2-1.9,0.4-3.8,0.5-5.6
		c0-0.3,0-0.6,0.1-0.9c0.1-1.7,0.2-3.4,0.3-5.1c0-0.4,0-0.8,0.1-1.2c0.1-1.9,0.2-4,0.2-5.9c0-0.1,0,0.4,0-0.6h49.2
		C356.5,165,348.2,186.8,334.2,205.3z M283.1,65.3c-11.9,2.6-24.1,4.1-37.1,4.5V15.9C261,20.5,274.2,38.4,283.1,65.3z M223.3,183.4
		c-1.6,0.1-3.3,0.2-4.9,0.4c-0.6,0.1-1.2,0.1-1.8,0.2c-2.1,0.2-4.2,0.4-6.3,0.7c-0.2,0-0.4,0.1-0.5,0.1c-1.9,0.2-3.8,0.5-5.7,0.8
		c-0.6,0.1-1.2,0.2-1.8,0.3c-1.6,0.3-3.2,0.5-4.8,0.8c-0.5,0.1-1,0.2-1.5,0.3c-1.9,0.4-3.8,0.6-5.7,1c-3.5-14.5-5.6-29.9-6.1-46.9
		H231v42c-2,0.1-4,0.2-6.1,0.3C224.3,183.3,223.9,183.4,223.3,183.4z M190.3,79.5c1.9,0.4,3.8,0.9,5.7,1.3c0.5,0.1,1,0.2,1.5,0.3
		c1.6,0.3,3.2,0.6,4.8,0.9c0.6,0.1,1.2,0.2,1.8,0.3c1.9,0.3,3.8,0.6,5.7,0.8c0.2,0,0.4,0.1,0.5,0.1c2.1,0.3,4.2,0.5,6.3,0.7
		c0.6,0.1,1.2,0.1,1.8,0.2c1.6,0.1,3.2,0.3,4.9,0.4c0.6,0,1,0.1,1.6,0.1c2.1,0.1,4.1,0.2,6.1,0.3V126h-46.8
		C184.7,110,186.7,94,190.3,79.5z M287.7,187.9c-1.9-0.4-3.8-0.7-5.7-1.1c-0.5-0.1-1-0.1-1.5-0.2c-1.6-0.3-3.2-0.5-4.8-0.8
		c-0.6-0.1-1.2-0.2-1.8-0.3c-1.9-0.3-3.8-0.6-5.7-0.8c-0.2,0-0.4,0-0.5-0.1c-2.1-0.3-4.2-0.5-6.3-0.7c-0.6-0.1-1.2-0.1-1.8-0.2
		c-1.6-0.1-3.2-0.3-4.9-0.4c-0.6,0-1.4-0.1-2.1-0.1c-2.1-0.1-3.6-0.2-6.6-0.3v-42h47.8C293.3,158,291.2,173.4,287.7,187.9z M246,126
		V84.8c3-0.1,4.5-0.2,6.6-0.3c0.6,0,1.3-0.1,1.9-0.1c1.6-0.1,3.3-0.2,4.9-0.4c0.6-0.1,1.2-0.1,1.8-0.2c2.1-0.2,4.2-0.4,6.3-0.7
		c0.2,0,0.4-0.1,0.6-0.1c1.9-0.2,3.8-0.5,5.7-0.8c0.6-0.1,1.2-0.2,1.8-0.3c1.6-0.3,3.2-0.5,4.8-0.8c0.5-0.1,1-0.2,1.5-0.3
		c1.9-0.4,3.8-1,5.7-1.4c3.5,14.5,5.6,30.5,6.1,46.5H246z M246,198c13,0.4,25.2,1.9,37.1,4.5c-8.9,26.9-22.1,44.8-37.1,49.4V198z
		 M278.3,245.6c0.2-0.2,0.3-0.4,0.5-0.6c0.6-0.8,1.1-1.5,1.7-2.3c0.1-0.2,0.2-0.3,0.3-0.5c0.5-0.6,0.9-1.3,1.3-2
		c0.2-0.3,0.4-0.6,0.6-0.9c0.4-0.6,0.7-1.1,1.1-1.7c0.2-0.3,0.4-0.6,0.6-0.9c0.4-0.6,0.8-1.3,1.1-1.9c0.2-0.3,0.3-0.5,0.5-0.8
		c0.5-0.9,1-1.8,1.5-2.7c0.1-0.1,0.2-0.3,0.2-0.5c0.4-0.8,0.8-1.6,1.3-2.4c0.2-0.3,0.3-0.7,0.5-1c0.3-0.7,0.7-1.3,1-2
		c0.2-0.4,0.3-0.7,0.5-1.1c0.3-0.7,0.7-1.4,1-2.2c0.1-0.3,0.3-0.6,0.4-0.9c0.5-1,0.9-2.1,1.3-3.2c0.1-0.1,0.1-0.3,0.2-0.4
		c0.4-1,0.8-1.9,1.1-2.9c0.1-0.4,0.3-0.7,0.4-1.1c0.3-0.8,0.6-1.5,0.8-2.3c0.1-0.4,0.3-0.8,0.4-1.2c0.3-0.8,0.6-1.6,0.8-2.4
		c0.1-0.4,0.3-0.7,0.4-1.1c0-0.1,0.1-0.3,0.1-0.4c9.6,2.9,18.4,6.6,26.2,10.8c-13.2,13.5-29.3,23.6-46.8,29.6
		C277.7,246.4,278,246,278.3,245.6z M324.3,50.6c-7.8,4.2-16.6,7.9-26.2,10.8c0-0.1-0.1-0.3-0.1-0.4c-0.1-0.4-0.3-0.7-0.4-1.1
		c-0.3-0.8-0.5-1.6-0.8-2.4c-0.1-0.4-0.3-0.8-0.4-1.2c-0.3-0.8-0.6-1.5-0.8-2.3c-0.1-0.4-0.3-0.7-0.4-1.1c-0.4-1-0.8-1.9-1.1-2.9
		c-0.1-0.1-0.1-0.3-0.2-0.4c-0.4-1.1-0.9-2.1-1.3-3.2c-0.1-0.3-0.3-0.6-0.4-0.9c-0.3-0.7-0.7-1.5-1-2.2c-0.2-0.4-0.3-0.7-0.5-1.1
		c-0.3-0.7-0.7-1.4-1-2c-0.2-0.3-0.3-0.7-0.5-1c-0.4-0.8-0.8-1.6-1.3-2.4c-0.1-0.1-0.2-0.3-0.2-0.4c-0.5-0.9-1-1.8-1.5-2.7
		c-0.2-0.3-0.3-0.5-0.5-0.8c-0.4-0.6-0.8-1.3-1.1-1.9c-0.2-0.3-0.4-0.6-0.6-0.9c-0.4-0.6-0.7-1.2-1.1-1.7c-0.2-0.3-0.4-0.6-0.6-0.8
		c-0.5-0.7-0.9-1.3-1.4-2c-0.1-0.1-0.2-0.3-0.3-0.4c-0.6-0.8-1.1-1.6-1.7-2.3c-0.2-0.2-0.3-0.4-0.5-0.6c-0.3-0.4-0.6-0.8-0.9-1.2
		C295,27,311.1,37.1,324.3,50.6z M199.6,22.2c-0.2,0.2-0.3,0.4-0.5,0.6c-0.6,0.8-1.1,1.5-1.7,2.3c-0.1,0.2-0.2,0.3-0.3,0.5
		c-0.4,0.6-0.9,1.3-1.3,1.9c-0.2,0.3-0.4,0.6-0.6,0.9c-0.4,0.6-0.7,1.1-1.1,1.7c-0.2,0.3-0.4,0.6-0.6,0.9c-0.4,0.6-0.7,1.2-1.1,1.9
		c-0.2,0.3-0.3,0.5-0.5,0.8c-0.5,0.9-1,1.8-1.5,2.7c-0.1,0.2-0.2,0.3-0.3,0.5c-0.4,0.8-0.8,1.6-1.2,2.4c-0.2,0.3-0.3,0.7-0.5,1
		c-0.3,0.7-0.7,1.3-1,2c-0.2,0.4-0.3,0.7-0.5,1.1c-0.3,0.7-0.7,1.4-1,2.1c-0.1,0.3-0.3,0.6-0.4,1c-0.5,1-0.9,2.1-1.3,3.2
		c-0.1,0.1-0.1,0.3-0.2,0.4c-0.4,0.9-0.8,1.9-1.1,2.9c-0.1,0.4-0.3,0.7-0.4,1.1c-0.3,0.8-0.6,1.5-0.8,2.3c-0.1,0.4-0.3,0.8-0.4,1.2
		c-0.3,0.8-0.6,1.6-0.8,2.4c-0.1,0.4-0.3,0.7-0.4,1.1c0,0.1-0.1,0.3-0.1,0.4c-9.6-2.9-18.4-6.6-26.2-10.8
		C166.9,37.1,183,27,200.5,21C200.2,21.4,199.9,21.8,199.6,22.2z M153.7,217.1c7.8-4.2,16.6-7.9,26.2-10.8c0,0.1,0.1,0.3,0.1,0.4
		c0.1,0.4,0.3,0.7,0.4,1.1c0.3,0.8,0.5,1.6,0.8,2.4c0.1,0.4,0.3,0.8,0.4,1.2c0.3,0.8,0.6,1.5,0.8,2.3c0.1,0.4,0.3,0.7,0.4,1.1
		c0.4,1,0.8,1.9,1.1,2.9c0.1,0.1,0.1,0.3,0.2,0.4c0.4,1.1,0.9,2.1,1.3,3.2c0.1,0.3,0.3,0.6,0.4,0.9c0.3,0.7,0.7,1.5,1,2.2
		c0.2,0.4,0.3,0.7,0.5,1.1c0.3,0.7,0.7,1.4,1,2c0.2,0.3,0.3,0.7,0.5,1c0.4,0.8,0.8,1.6,1.3,2.4c0.1,0.1,0.2,0.3,0.2,0.5
		c0.5,0.9,1,1.8,1.5,2.7c0.2,0.3,0.3,0.5,0.5,0.8c0.4,0.6,0.8,1.3,1.1,1.9c0.2,0.3,0.4,0.6,0.6,0.9c0.4,0.6,0.7,1.2,1.1,1.7
		c0.2,0.3,0.4,0.6,0.6,0.8c0.4,0.7,0.9,1.3,1.3,2c0.1,0.2,0.2,0.3,0.3,0.5c0.6,0.8,1.1,1.6,1.7,2.3c0.2,0.2,0.3,0.4,0.5,0.6
		c0.3,0.4,0.6,0.8,0.9,1.2C183,240.8,166.9,230.7,153.7,217.1z"/>
	<path class="st0" d="M283.1,202.5c-11.9-2.6-24.1-4.1-37.1-4.5v53.9C261,247.3,274.2,229.4,283.1,202.5z"/>
	<path class="st3" d="M231,198c-12,0.4-25.2,1.9-37.1,4.5c8.9,26.9,23.1,44.8,37.1,49.4V198z"/>
</g>
</svg>
