<?xml version="1.0" encoding="utf-8"?>
<!-- Generator: Adobe Illustrator 25.2.0, SVG Export Plug-In . SVG Version: 6.00 Build 0)  -->
<svg version="1.1" id="Layer_1" xmlns="http://www.w3.org/2000/svg" xmlns:xlink="http://www.w3.org/1999/xlink" x="0px" y="0px"
	 viewBox="0 0 151.8 150.4" style="enable-background:new 0 0 151.8 150.4;" xml:space="preserve">
<style type="text/css">
	.st0{fill:#434343;}
	.st1{fill:#FDD836;}
	.st2{fill:#E53A35;}
	.st3{fill:#BDBDBD;}
	.st4{fill:#EF4438;}
	.st5{fill:#E0E0E0;}
	.st6{fill:#616262;}
	.st7{fill:#FEEA39;}
</style>
<g>
	<path class="st0" d="M26.5,22.9V144c0,3.6-2.9,6.4-6.4,6.4h-5.5V29.2C19.5,29.2,23.9,26.7,26.5,22.9z"/>
	<path class="st1" d="M29.1,14.6c0,3.1-1,6-2.6,8.3c-2.6,3.8-7,6.2-12,6.2V0C22.6,0,29.1,6.5,29.1,14.6z"/>
	<g>
		<g>
			<path class="st2" d="M51.7,105.9c-2.3-0.4-4.5-1.1-6.6-2.1l-18.5-8.9v-7.8l15.3,7.3C44.4,100.3,47.8,104.4,51.7,105.9z"/>
		</g>
	</g>
	<path class="st2" d="M151.8,66.8c0,12.7-4.8,22.9-10.7,22.9l-14.6,3c0-0.1,0.1-0.2,0.1-0.3c0.9-2.3,1.7-4.9,2.4-7.6
		c0.9-3.8,1.5-8,1.8-12.3c0,0,0,0,0,0v0c0.1-1.8,0.2-3.7,0.2-5.6H151.8z"/>
	<path class="st3" d="M131,66.8c0,1.9-0.1,3.8-0.2,5.6v0c0,0,0,0,0,0c-0.3,4.4-0.9,8.5-1.8,12.3c-0.6,2.7-1.4,5.3-2.4,7.6
		c0,0.1-0.1,0.2-0.1,0.3l-25.6,5.2L95,99.1c0.1-0.1,0.1-0.2,0.2-0.3c1.2-1.8,2.2-4,3.1-6.4c0.2-0.5,0.4-1,0.6-1.5
		c2.4-6.7,3.8-15,3.8-24.1H131z"/>
	<path class="st2" d="M102.7,66.8c0,9.1-1.4,17.4-3.8,24.1c-0.2,0.5-0.4,1-0.6,1.5c-0.9,2.4-2,4.5-3.1,6.4c-0.1,0.1-0.1,0.2-0.2,0.3
		l-18.7,3.8l-16.1,3.3c-1.5,0.3-3,0.4-4.5,0.4c0.7-0.1,1.3-0.2,2-0.4h0c3.5-1,6.6-4.2,9.2-8.8c1-1.8,1.9-3.8,2.7-6
		c2.5-6.8,4-15.3,4-24.6H102.7z"/>
	<path class="st3" d="M73.6,66.8c0,9.3-1.5,17.9-4,24.6c-0.8,2.2-1.7,4.2-2.7,6c-2.6,4.6-5.7,7.8-9.2,8.8h0c-0.6,0.2-1.3,0.3-2,0.4
		h0c-0.7,0-1.3,0-2-0.1c0,0,0,0,0,0h0c-0.7-0.1-1.3-0.3-2-0.6h0c-3.8-1.6-7.2-5.6-9.8-11.4c-3.2-7.2-5.2-16.9-5.2-27.7H73.6z"/>
	<path class="st4" d="M151.8,66.8H131c0-1.9-0.1-3.8-0.2-5.6c0,0,0,0,0,0c-0.3-4.4-0.9-8.6-1.8-12.4c-0.6-2.7-1.4-5.3-2.4-7.6
		c0-0.1-0.1-0.2-0.1-0.3l14.6,3C147,43.9,151.8,54.1,151.8,66.8z"/>
	<path class="st5" d="M131,66.8h-28.3c0-9.1-1.4-17.4-3.8-24.1c-0.2-0.5-0.4-1-0.6-1.5c-0.9-2.4-2-4.5-3.1-6.4
		c-0.1-0.1-0.1-0.2-0.2-0.3l5.9,1.2l25.6,5.2c0,0.1,0.1,0.2,0.1,0.3c0.9,2.3,1.7,4.9,2.4,7.6c0.9,3.8,1.5,8,1.8,12.4c0,0,0,0,0,0
		C130.9,63,131,64.9,131,66.8z"/>
	<path class="st4" d="M102.7,66.8H73.6c0-9.3-1.5-17.9-4-24.6c-0.8-2.2-1.7-4.2-2.7-6c-2.6-4.6-5.7-7.7-9.2-8.8
		c-0.7-0.2-1.3-0.3-2-0.4c1.5,0,3,0.1,4.5,0.4l16.1,3.3L95,34.5c0.1,0.1,0.1,0.2,0.2,0.3c1.2,1.9,2.2,4,3.1,6.4
		c0.2,0.5,0.4,1,0.6,1.5C101.3,49.4,102.7,57.7,102.7,66.8z"/>
	<path class="st5" d="M73.6,66.8h-37c0-10.8,2-20.5,5.2-27.7c2.6-5.8,6-9.8,9.8-11.4c0.6-0.3,1.3-0.5,1.9-0.6h0
		c0.7-0.1,1.4-0.1,2.2-0.1h0c0.7,0.1,1.4,0.2,2,0.4c3.5,1.1,6.6,4.2,9.2,8.8c1,1.8,1.9,3.8,2.7,6C72.1,48.9,73.6,57.5,73.6,66.8z"/>
	<path class="st4" d="M51.6,27.7c-3.8,1.6-7.2,5.7-9.8,11.4l-15.3,7.3v-7.8l18.5-8.9C47.2,28.8,49.4,28.1,51.6,27.7z"/>
	<path class="st6" d="M14.6,29.2v121.3H9.1c-3.6,0-6.4-2.9-6.4-6.4V22.9C5.2,26.7,9.6,29.2,14.6,29.2z"/>
	<path class="st7" d="M14.6,0v29.2c-5,0-9.3-2.5-12-6.3C1,20.5,0,17.7,0,14.6C0,6.5,6.5,0,14.6,0z"/>
</g>
</svg>
